<?xml version="1.0" encoding="utf-8"?>
<svg version="1.1" id="Bowser" xmlns="http://www.w3.org/2000/svg" xmlns:xlink="http://www.w3.org/1999/xlink" x="0px" y="0px"
	 viewBox="0 0 718.5 878" style="enable-background:new 0 0 718.5 878;" xml:space="preserve">
<style type="text/css">
	.st0{fill:#009345;}
	.st1{fill:#FCB813;}
	.st2{fill:#FFFFFF;}
	.st3{fill:#FBC69A;}
	.st4{fill:#F1CE9A;}
	.st5{fill:#C16544;}
	.st6{fill:#404041;}
	.st7{fill:#6D6E70;}
	.st8{fill:#EC1C24;}
	.st9{fill:#EE4023;}
	.st10{fill:#0B0204;}
</style>
<g>
	<path class="st0" d="M109.1,221.6c1.8-14.8,14.6-31.4,21.2-35.3c8.4-13.7,28.1-27.7,34.4-40.2C196.1,83.8,274.7,81.2,295,87.8
		c20.3,6.6,77.7,35.8,88.3,86.5C363,205.7,184.2,264,109.1,221.6"/>
	<path class="st0" d="M407.1,118.8c79.5,15.9,162.5,45.9,211.9,139.5c38.5,73,41.2,232.4-33,321.4c-18.9,22.7-51.8-21.8-41.2-67.1
		c10.6-45.3-161.3-364.4-160.7-378.6C399.8,130.5,407.1,118.8,407.1,118.8"/>
	<path class="st1" d="M519.3,481.2c-74.6-203.1-153.5-294.8-401.2-208.1c-12.5,4.4-45,64.4-52.8,77c-7.8,12.6-43.7,87.2-19.6,129
		c24.1,41.8,67.7,43.6,75.4,44.2c2.4,14.1,3.5,38.9,5.3,47.1c-32.9,5.7-95.4,39.3-99.8,79.9c-4.4,40.6,31.8,82.6,48.1,95.8
		c-10.5,1.8-19.4,12.3-22.5,15.9c-9.7,1.8-27,7-33.1,19.9c-4.7,9.9,64.1,53.1,92.7,58.7c28.7,5.6,51.2-7.1,58.7-10.6
		c15.4,5.7,74.1,3.7,87.9-23.8c9.7-19.4-13.8-46.9-19.4-53c-0.4-8.4-5.5-32.2-8.4-35.8c-2.9-3.6,3.1-3.5,4.4-4.4
		c17.1,9.3,49.6,10,56.1,11c9.1,12.6,57.8,34.4,112.6,33.6c0.9,6.6,2.7,8.4-0.4,10.6c-3.1,2.2-23.8,29.5-17.2,46.8
		c6.5,17.3,26.5,38.5,78.2,44.6c7.9,9.8,34,20.5,49.9,11.9c8.1-4.3,92.7-45.1,94.8-54.5c2.1-9.3-9.7-30-27.4-34.4
		c-4.4-10-9.1-15-20.9-22.1c2.9-2.7,3.5-1.5,8.5-8.2c69.8-2.9,149.8-63.3,146.6-80.7c-2.5-13.6-60.9-19.1-87.7-14.7
		c-5.9-10-27.4-23.8-30.3-26.2C524.6,570.4,533.1,518.8,519.3,481.2"/>
	<path class="st2" d="M58.8,293.1c-19.4-56.5,37.3-70.6,47.3-69.3c98,28.7,102.7-1.5,177.2-11c45.2-5.8,87.6-40.2,96.9-36.4
		c11.5-4.4-6.1-29-12.1-32.8c6.5-4.6,7.3-10.6,8.2-15.9c6.2,1.4,12.3,3.3,18.1,5.6c51.2,24.4,70,74.1,72.9,87.4
		c34.9,1.8,58.7-1.3,93.2,27.8c10.9,9.3,50.8,70.6,14.6,215.9c-4.1,16.5-21.6,102.3,11.2,115.4c8.2-10.6,11.7-23,16.5-22.9
		c35,31.1,22.7,77-25,78.8c-23.4-32.5-63.3-55.2-75.5-61.4c-6.3-32.3-0.7-103.5,2.2-112.2c-19-114.4-90.1-161.3-122.3-138.6
		c-8.2,10.7-7.5,13.2-12.8,17.7c9.3,9.7-50.3,69.3-49,73.7c1.3,4.4-13.2,25.2-13.2,28.7s-1.8,27.8-4,28.3
		c-2.2,0.4-28.7-5.3-31.8-5.7c-37.5-5.3-129.8-121.4-129.8-128.1c0-6.6,9.5-22.5,11.5-26c2-3.5-29.2-36.4-33.1-37.1
		c-3.9-0.7-20.5,10.2-19.4,17.6c0.7,4.5,1.8,11.5,3.2,19.4c-5.9,10.8,7.5,44.4,6.6,46c-1.3,2.2-17.5,4.1-18.1-0.2
		c-1.8-11.5-29.7-33-34.4-34.3c-4.7-1.3-6.5-24.9-6.5-24.9L58.8,293.1z"/>
	<path class="st2" d="M22.4,783c-3.2,1.7-22.4,25.6-19.7,29.7c2.7,4.1,22,3.1,27.4,2.1c-1.5,6.5-3.5,7.1-1.8,9.4
		c1.8,2.4,31.5,7.9,37.4,5.6c-2.1,3.5,3.5,18.2,43.4,10.3c11-2.2,1.7-38.8-11.9-35.6c-6.6,1.5-17.7,7.4-18.8,9.4
		c-1.8-7.9-9.7-23.8-16.5-23.3c-6.8,0.6-13.4,2.6-16.8,5.3C40.9,790.3,29.3,779.2,22.4,783"/>
	<path class="st2" d="M505.8,863.9c5.5,14,49.8,10.3,51.2,5.9c1.5-4.4-0.3-8-1.5-11.2c11.5,3.2,34.1,6.5,35,3.2
		c0.9-3.2-0.9-9.4-2.1-11.5c-1.2-2.1,28,7.7,29.7,2.9c1.8-4.7-9.1-41.8-23-42.4c-9-0.4-14.4,7.4-14.7,9.7c-0.3,2.4-1.5,5.9-3.2,5.9
		c-1.8,0-11.2-10.6-15.9-8.5c-4.7,2.1-12.4,6.8-20.3,17.4c-1.8,3.5-9.9-8.6-15.3-8C504.9,830.1,503.1,857.1,505.8,863.9"/>
	<path class="st3" d="M162.1,230.9c6.9-10.5,28.8-38.4,73.3-9.7c7.2-4.3,37.2-11.9,47.8-8.4c9.1-12.1,35.3-43.3,67.1-43.3
		c43.6,0,96.3,47.1,45.3,104.8c0.3,20.8-13.5,52.9-25.6,66.2c29.4,47.1-16.2,100.1-84.2,63.3c-37.6,44.5-120.7,14.7-66.2-54.5
		c0.6,5.6,2.7,16.5,4.4,19.4c12.4-10.6,43.6-31.5,105.4-12.7c-2.7-27,13.8-73.9,41.5-95.1c0.3-16.5-21.2-35.2-24.1-37.4
		c0,11.8-34.4,83.6-100.1,79.8c-9.6,11.2-10.6,27.9-9.7,33.3c-7.1-4.7-15.6-10.6-17.1-5c-0.3-13.8,0.4-23.4-1.2-25.3
		c-7.3,7.7-58.6,24.4-85.4-9.4C94.2,247.5,139,215.7,162.1,230.9"/>
	<path class="st4" d="M70.9,174.8c2.9-3.8,55.4,1.5,55.2-0.7c-44.2-41.5-22.5-85.1-17.7-84.8c4.8,0.3,9.9,32.7,47.7,41.7
		c0.2,3.5-4,4.2-6.6,5.3c-2.6,1.1-19.4,13-16.6,25.8c-3.4,14.1-5.1,17.4-2.4,25.4c-8.6,6.8-20.5,29.6-21.2,36.9
		c-6.8-0.6-20.8-0.1-24.7,3.1C81.1,220.9,68.7,177.6,70.9,174.8"/>
	<path class="st4" d="M575.8,195.7c5.3-3.6,68.4-9.6,72.1-5.9c3.7,3.7-24.9,73.2-28.6,72.7C612.6,238.3,574.4,196.6,575.8,195.7"/>
	<path class="st5" d="M157.2,133.9c1.9-3.7,14.1-10.3,15.6-6.8c1.5,3.5-4.2,16.3-6.7,16.3C163.7,143.3,156,136.2,157.2,133.9"/>
	<path class="st5" d="M294.7,92.4c0.9-4.5,14.7-11.5,22.4-8.5c7.6,2.9,52.4,28.6,54.5,34.2c2.1,5.6,5.5,23.8-3.5,25.6
		C329.7,151.4,293.2,99.9,294.7,92.4"/>
	<path class="st4" d="M319.1,87.4C358.4,54.9,335.3,5.2,338,3.2c7.9-6.2,62.4,39.4,29.7,112.7C353,128,321.2,106.3,319.1,87.4"/>
	<path class="st5" d="M469.8,130.9c10.9,0.4,73,29.7,78.6,37.7c5.6,8,10,29-1.5,33.6c-26.5,10.6-90.4-19.1-98.6-49.8
		C445.2,140.6,461.2,130.6,469.8,130.9"/>
	<path class="st4" d="M467.8,142.4c-2.6-7.9,65.3-59.4,72.4-56.2c12.1,5.3,9.3,84.5,0.6,90.1C529.3,183.6,474,161.5,467.8,142.4"/>
	<path class="st5" d="M637,277.8c6.2,12.3,17,69.2,16.2,81.2c-0.8,12-13,27.5-25,19.7c-34.9-22.4-34.1-90.7-23.8-106
		C611.8,261.8,632.3,268.4,637,277.8"/>
	<path class="st5" d="M637.9,473.9c-1.4,15.8-18.5,66.2-24.1,74.2c-6.4,9.1-28.7,12.5-33.9,2.7c-13.3-25.3,10.6-83.6,26.8-94.8
		C623.5,444.3,639.1,460.9,637.9,473.9"/>
	<path class="st4" d="M645.3,665.2c-2.9-4.7,12.5-38.5,18-38.9c5.4-0.3,21.3,30.2,19.7,36.8C680.6,672.9,648.3,670.2,645.3,665.2"/>
	<path class="st4" d="M620.6,609.1c4.5-1.6,19.7-3.3,20.9-1.2c1.2,2.1-10.4,45.5-14.7,47.4c-4.1-4.4-17.6-17.7-27.2-22.2
		C604.1,629.9,619.1,618.9,620.6,609.1"/>
	<path class="st4" d="M629.1,471.8c5-0.7,63.3,51.5,60.3,60.3c-2.9,8.8-79.4,17.7-83.6,11.8C592.6,525.4,620.3,473,629.1,471.8"/>
	<path class="st4" d="M647.9,402.3c0-4.2,38.2,40.5,35.9,46.8c-2.3,6.3-41.6,22-46.3,19.6C632.9,466.5,647.9,407.3,647.9,402.3"/>
	<path class="st6" d="M393.8,276.9c1.9-2.6,13.4-15.3,15.1-12c1.8,3.2,10.9,17.1,12.4,19.7c-2,9-5.5,33.4,13,35.9
		c18.4,2.5,29.1-9.4,31.2-20c9.4,0.3,37.4,3.2,44.2,2.9c8.2,7.9,53.3,75.1,45,103c-3.6,12.1-51.2,58.9-59.2,62.1
		c16.5-23-22.7-115.4-105.7-159.8C391.8,297.8,394.8,284.9,393.8,276.9"/>
	<path class="st2" d="M489.9,381.7c-1.3-9.1,10.9-25.3,23-24.1c12,1.1,23.9,11.3,22.1,24.1c-1.8,12.8-14.8,23.2-25.1,20.4
		C499.6,399.4,491.3,391.1,489.9,381.7"/>
	<path class="st7" d="M382,322.2c1.3-3.2,6.8-8.5,7.7-13.5c91.2,47.5,122.7,151,104.2,160.1c-9.6,4.8-21.6-0.4-24.4-3.8
		c7.7-4.7,10.9-10.9,13-14.1C484.6,447.7,471.3,374.4,382,322.2"/>
	<path class="st7" d="M282.5,407.5c-0.1,2.7,32.7,29.6,37.5,22.5c4.8-7.1,2.4-15.7,0.5-16.2C302.6,414.1,282.7,402.1,282.5,407.5"/>
	<path class="st6" d="M155.7,310.8c-2.5-0.5-15,13.2-15,17.1c0.3,34.4,48.6,126.6,108.9,147.8c16.7-2.1,68.6-37.5,70.4-43.3
		c-14.4-2.6-35.4-19.8-36.7-23.5c-8.9,5.4-9.6,5.9-14.9,9c3.3,8.5,1.5,25.6-14.4,27.7c-15.9,2.1-25.3-14.1-24.7-20.6
		c-32.4-7.9-34.9-45.3-9.7-75.7c3.9-11.5,2.9-14.4,0.6-13.2c-2.4,1.2-3.2,7.1-5,7.1c-1.8,0-8.5-2.9-11.2-5.9
		c-0.6,6.8-7.7,20.6-22.1,20.9c-14.4,0.3-18.8-15.6-19.1-20.3c-0.3-4.7,7.1-17.3,13-20.6C169.8,316.8,159.1,311.5,155.7,310.8"/>
	<path class="st7" d="M63.9,357.6c-3.5-2.4-13.8-13.2-12.4-18c1.5-4.7,12.1-8.5,41.8-1.2c12.8,3.2-0.2,11.9-1.4,13.8
		c-1.2,1.9-18.8-4.5-22.1-4.4S63.9,357.6,63.9,357.6"/>
	<path class="st6" d="M52.8,337.7c3-6.2,39.4-64.6,44.4-65.7c5-1.2,15.9-0.5,17.4,0.9c1.4,1.4-12.1,14.6-11.2,20.6
		c-6.8,4.7-18.8,17.4-16,19.3c2.8,1.9,9,2.8,11.9,3.4c-2.1,4.4-13.1,15.2-11.8,21C65.4,334.3,58.5,335,52.8,337.7"/>
	<path class="st8" d="M238.7,338.6c-0.9-12.5,5.5-30.9,8.8-33.8c7.5,0.4,19.9-0.2,21.9-1.1c6,9.5,25.6,26.3,27.8,24.1
		c2.2-2.2,5.7-35.8,5.1-39.1c5.5-6.2,10.4-8.4,11.3-8.6c8.2,6,22.5,9.5,23.6,7.1c1.1-2.4-4-26.1-4.6-28.7c3.3-5.2,4.6-7.9,5.7-7.5
		c1.1,0.4,16.8,11.6,17.4,8.5c0.7-3.2-6.8-27.4-5.3-28.1c1.5-0.7,7.7,0,9.5,1.5c1.8,1.5,11.2,21.7,9.9,29.1
		c-4.8,4.2-8.6,8-10.5,10.2c-3.3-3.7-14.6-12.8-15.7-11c-1.1,1.8,2.1,23.9,3.8,27.8c-1.9,3.4-5.3,10-6.5,12.5
		c-5.3-3.9-15.2-9.6-16.6-8.1c-1.3,1.5,3.9,24.1,7.1,28.9c-1.1,2.6-3.1,8.6-3.3,11.5c-5.7-5.5-17.7-15.5-19.4-14.8
		c-1.8,0.7-3.9,26.9-2.7,29.4c-9.7-2-54.1,2.9-57.2,6C247.5,348.5,238.9,340.8,238.7,338.6"/>
	<path class="st2" d="M162.5,185.8c-1.6,0.5,1.5,29,10.2,29.8c8.7,0.8,22.1-6.6,23.6-8.2c1.5-1.5-6.6-12-8.6-11.9
		C177.6,195.8,163.8,185.4,162.5,185.8"/>
	<path class="st2" d="M236,191.6c7.9-4.5,25.4-51.4,55.9-43.7c10,2.6,8.2,33.6,5.5,36.9c-5.3,3.3-29.4,3.8-47.9,20.8
		C247,206.4,234.8,194.8,236,191.6"/>
	<path class="st9" d="M185,173.5c-20.5-3.8-18.7-32.5-23.4-36c-16.4-12.1-29.8,17.2-28.7,24.7c-2.4,9.9-5,27.7,2,35.5
		c2-3.3,4.2-7.7,6.4-10.2c0.6,7.3,7.1,15.9,11.9,17.9c0.4-10.2,3.1-20.5,7.3-21c4.2-0.4,19.6,11.3,22.5,12.1
		c-4.8,2.7-7.3,5.7-3.1,14.4c1.9,3.9,18.8-2.9,17.7-4.4C185.3,189.8,184.6,174.6,185,173.5"/>
	<path class="st9" d="M216.4,160.9c-2,4-1.1,30,15.2,32.2c8.3,1.1,27.1-35.7,36.7-40.4c9.6-4.7,24.4-11,48.3,4.2
		c2.2-6.2,0.7-11.7,2.4-12.4c1.8-0.7,8.2,5.3,9.1,3.5c0.9-1.8,7.5-21.2-16.8-39.1c3.5-0.7,9.1,0.2,7.9-1.3
		c-1.1-1.5-12.2-17.3-30.5-14.4c-36.7,6-59.4,68.4-62.9,69.3C222.4,163.5,216.4,160.9,216.4,160.9"/>
	<path class="st8" d="M272.6,190.7c-2.8-2.1-6.8-6.6-6.5-9.2c0.3-2.5,5.2-9.3,8.4-9.1c3.2,0.2,9.7,4,9.7,7.2c0,3.2-0.4,8.3-2.5,8.8
		C279.4,189,273.3,191.2,272.6,190.7"/>
	<path class="st9" d="M188.7,112.7c-36.5-28-27.7-82.7-0.6-101.6c-1.8,14.1,0,33.6,7.1,44.4c1.5-15.9,14.2-43,40-46.2
		c40.3-5,55,29.1,89.8,8.8c-3.5,14.7-5.9,21.2-9.7,25.6c9.7-1.1,11-3.5,13.5-6.2c2.1,4.6-1.8,12.1-3.5,14.4
		c6.2,0.3,11.8-1.1,15.2,1.2c-2.5,8.3-15.7,29.2-18.5,31.6c-6.5-4.1-20.8-2.8-25.2,1.9C274.4,83.2,228.5,80,188.7,112.7"/>
	<path class="st9" d="M377.9,75.2c11,3,25.1,8.9,39.5-17c4.4,15,6.8,76.2-43.9,78.2c1.5-12.8-1.8-19.2-5.3-21.9
		C372.9,102.3,377.8,77.9,377.9,75.2"/>
	<path class="st4" d="M626.2,283.4c2.8-7.2,83.2,9.5,84.3,16.3c1.1,6.8-55.9,63.7-65.9,60.1C634.6,356.3,614.7,313.4,626.2,283.4"/>
	<path class="st8" d="M184.4,196.3c2.9-0.3,10.9,7.9,10,9.7c-0.9,1.8-10.1,5.8-12.7,4.6c-2.6-1.2-4.1-4.7-3.9-7.8
		C178,199.7,180.4,196.7,184.4,196.3"/>
	<path class="st4" d="M121,523.3c21.8,0.1,87.1-24.1,100.1-34.7c8.2,10,45.1,45.9,87.1,47.1c42,1.2,94.2-18.3,117.2-35.9
		c17.1,106-30.7,244.2-153.7,222.5C148.7,700.5,131.4,606.4,121,523.3"/>
	<path class="st2" d="M184.9,202.4c0,0.9-0.7,1.7-1.7,1.7c-0.9,0-1.7-0.7-1.7-1.7c0-0.9,0.7-1.7,1.7-1.7
		C184.2,200.8,184.9,201.5,184.9,202.4"/>
	<path class="st2" d="M274.8,179.8c0,1.2-1,2.2-2.2,2.2c-1.2,0-2.2-1-2.2-2.2c0-1.2,1-2.2,2.2-2.2
		C273.8,177.6,274.8,178.6,274.8,179.8"/>
	<path class="st10" d="M275.8,178c-0.5,0-1.1,0.1-1.5,0.3c0.4,0.4,0.6,0.9,0.6,1.5c0,1.2-1,2.2-2.2,2.2c-0.2,0-0.3,0-0.5-0.1
		c0.2,1.9,1.7,3.4,3.6,3.4c2,0,3.7-1.7,3.7-3.7C279.5,179.7,277.8,178,275.8,178"/>
	<path class="st10" d="M197.7,247.9c5.9-12.7,12.4-15.3,14.3-14.4c2.4,1,0.6,4.6-0.5,5.6c-1,1-1.2,1.6,0.9,0.6
		c6.6-2.9,7.1-12,0.5-12.1c-8.1-0.1-16,9.2-15.9,20.6C196.9,249.7,197.2,248.9,197.7,247.9"/>
	<path class="st10" d="M537.4,380.5c0-13.9-11.3-25.1-25.1-25.1c-13.9,0-25.1,11.3-25.1,25.1c0,13.9,11.3,25.1,25.1,25.1
		C526.1,405.6,537.4,394.3,537.4,380.5 M492.4,380.5c0-11,8.9-19.8,19.8-19.8c11,0,19.8,8.9,19.8,19.8c0,11-8.9,19.8-19.8,19.8
		C501.3,400.3,492.4,391.4,492.4,380.5"/>
	<path class="st10" d="M548.2,720.9c0.7-0.1,1.3-0.2,2-0.4c-0.7,4.6,1.9,13.2,8.9,12.6c11.2-0.9,19.5-18.1,17.6-23.1
		c9.2-4,12.6-20.7,9.7-23.1c-0.1-0.1-0.3-0.2-0.3,0c-0.2,2-2.9,19.2-12.5,21.3c-4.7,0.2-7.3-6.2-9.1-10c0.4-3.8-0.1-6.9-1.4-8.3
		c-0.1-0.1-0.3-0.4-0.3-0.1c0.2,2.9-2.8,25.8-14.9,28.1c-8.4,0.9-8.6-20.3-8.1-20.4c-0.1-0.2-0.3-0.1-0.4,0.1
		C535.7,703.7,537.6,721.9,548.2,720.9 M563.8,702.2c1.3,4.4,4.2,9.2,9.7,8.6c0.7-0.1,1.4-0.2,2-0.4c-1.6,5.2-8.7,18.8-16.1,19.7
		c-4.5,0.6-6.7-6.6-7.5-10.2C558.4,717.1,562.3,709.2,563.8,702.2"/>
	<path class="st10" d="M717.7,669.6c-3.7-8-17.3-12.4-32.9-14.6c-4.4-13-16.5-32.9-21-32.4c-6,1.1-14.9,18.6-19.3,30.4
		c-5.9,0.2-10.8,0.5-14.1,0.9c7.1-12.4,16.8-44.6,13.3-47.4c-3.5-2.4-14-1.5-19.9,0.3c6.6-25.5-7.8-44.9-16.5-49.7
		c4.1-2.3,7.3-5.1,9.4-7.3c26,1.8,74.7-9.4,76.7-15.9c3.1-9-31.7-44.5-52.4-58.7c-0.1-0.9-0.2-2.1-0.5-3.3
		c9.3-2.2,45.5-14.6,46.5-22.4c1.1-8.7-26-42-35.5-49.1c0.8-10.4,0.9-20.2,0.1-28c3.1-4.7,4.9-10,5.7-14
		c21.9-13.3,58.7-50.2,56.4-58.7c-2-7.3-48.5-19.5-73.7-22c-2.1-3.7-7.1-9.5-13.9-12.4c-0.3-0.8-0.5-1.6-0.8-2.4
		c7.9-10.4,31.5-70.4,25.5-75.2c-7.8-6.2-62.4,0-75.9,4.3c-6.3-6.1-12.6-11.5-18.8-15.8c-2-5.1-5.1-9-7.3-11.1
		c6-26.7,1.9-79.5-6.1-82.9c-7-3-52,26.8-70.3,46.5c-5.1-0.9-9.9-0.2-14.1,1.4c-8.7-4.4-31.6-11.1-45.7-12.7
		c13.1-19.1,13.9-45.6,5.9-63.8c-0.9-2.1-1.6-2.5-2.3,0c-2.3,8.9-15.3,28-35.8,18.9c-0.1-29.9-12.7-60.8-36.3-70.9
		c-10.3-4.4-9.8,2.1-7.1,12.4c4,15.3,4.3,27.1,2.2,36.8c-2.6-1.2-7.8-0.5-10.9,0.4c1.5-2.6,3.2-12.5,2.7-16.1
		c-0.2-1.6-1-1.2-2.2-0.1c-1.3,1.1-4.6,3.3-8.8,5c6.4-9.7,6.7-21.1,6.5-23.5c-0.2-3.1-0.2-3.1-2.1-1.1c-1.5,1.7-9.7,7.7-23.5,6.7
		C288.7,21,270.8,6.8,250.7,6c-20.6-0.8-45.8,4.2-57.4,35.5c-5.2-12-0.8-31.5-0.2-34.1c0.6-2.6-0.3-2.8-2.6-1.4
		c-28.5,17-50.8,71.5-5.6,107.3c-3.9,3.6-7.6,7.1-10.8,11.1c-3.7-2.1-12.8-2.5-18.2,3.8c-2.7,0.6-28.9-5.7-39.9-32.8
		c-3.3-8.1-6.7-12.7-12.3-4.4c-16.7,24.9-3.4,65.6,19.1,82.4c-15.7-2.8-39.3-5.1-51.6-2.6c-5.1,1.1-4.5,2-4.5,5.3
		c0,8.6,7.2,37.1,13.6,50.4c-2.8,1.3-5.5,2.9-8.3,4.8c-24.4,16.9-23.6,46.7-16.9,62c-2,0.9-3.7,1.8-4.7,2.6c-1.9,1.5-2.9,3-2.6,6.5
		c0.2,3.6,4,18.1,6.4,24.9c-2.9,5.1-4.9,9-5.3,10.8c-2.1,9.4,4.6,18.6,10.3,21.5C43.5,386,32.6,416.9,34,445.3
		c3.1,63.9,53.2,81.3,84.3,82.6c0.5,13.8,1.7,26.5,3.4,38.1c-64.2,18.6-97.8,53.7-99.4,91.1c-1.5,32.3,17.7,67.5,47.3,88
		c-6.1,2.3-16,9.5-18.6,13.7c-26.4,3-37.3,20.7-35.5,27.8c-10.3,8.5-17.4,22.3-15,26.8c2.9,5.2,18.9,5.9,26.1,4.8
		c-1.3,3-1.7,5.6-0.7,7.3c3.5,5,24.7,9,36.1,7c-0.4,1-0.7,1.9-0.6,2.5c0.4,4.9,29.1,14.1,44.7,8.9c21.5,9.4,53.6-0.9,64-9.9
		c43.4,7.7,136.6-7.7,71.3-82.6c0.7-9.1-1.2-25.4-6.6-31.3c1.7-0.6,2.9-1.3,3.6-2c15.3,5.5,31.2,8.7,46.8,9.4
		c28.2,20.6,86.3,36.5,114.6,33.2c0.2,1.4,0.5,2.8,0.8,4c-55.8,65.5,26.3,95.1,63.9,98.7c10.9,12.4,42.7,20.1,53.8,9.9
		c17.6,4.1,42.8,0.8,42.6-2.9c-0.1-2.7-0.6-5.5-1.5-8.4c6.8,2.7,33.2,5.9,34.2,1.3c0.5-2.2,0.1-5.3-0.8-8.9c6.3,1.7,26.4,5,28,0.8
		c2.8-7.3-2.1-21.7-9.1-32.7c4.4-16-12-36.4-27.2-40.8c-0.8-5.3-10.9-17.9-19.4-20.8c1.1-1,2.1-2,3.2-3.1
		C637.2,750,728,694.7,717.7,669.6 M664.1,628.6c3.9-0.8,16.5,27.8,16.1,33.8c-0.4,6.2-27.3,7.2-32.3,0.4
		C646.1,660.3,659.3,629.5,664.1,628.6 M630.8,660.2c2.7-0.5,6.3-0.9,11.8-1.1c-0.5,2-0.7,3.4-0.6,4.2c2.9,12.4,41.7,13.5,44.3,0.7
		c0.1-0.5,0.1-1.2,0.1-1.9c12.6,2,23,5.1,25.3,11.1c4.2,13.7-62.3,64.1-135.9,76.6c16.8-20.5,31.8-52.9,19.7-90.5
		c-3-7.5-6.7-14.5-10.8-21.1c4.1-0.3,8.3-1.1,12.3-2.4c11.7,5.1,26.2,20.6,37.5,37.6c0-0.1,0.6,0.5,0.6-0.3
		C634.6,669,633.1,664.6,630.8,660.2 M639.4,610c1.7,1.2-7.6,28.9-14.3,41c-6.1-8.4-13.9-15.8-20.3-18.8c7.2-3.9,13.3-9.9,16.8-18.6
		C626.9,611.8,637.4,608.6,639.4,610 M616.5,609.2c-3.9,10.7-15.6,21.8-36.2,22.4c-20.5-28.6-50.2-48.2-73.2-57.7
		c-9.5-38.8-2.4-86.2,2-111.1c1.1-1,2.3-2,3.4-3.1c9.5,0.7,27.6,1.3,31.1,0.9c4.7-0.4,5.3-0.9,6-4.3c0.6-3.2,2-30.2,1.6-37.2
		c2.2-2.7,3.9-4.9,4.9-6.4c9.3-14.3-6.8-68.5-39.8-106.4c8.8,0.5,18,1.7,28.5,4.3c5.8,1.4,6,0.4,0.9-2.5
		c-22.9-12.8-72.1-6.1-99.5-13.5c-24.4-6.7-32.7-25-35.5-35c11.1-19,8.4-38.5,4.6-49.8c-4.8-14.5-14.9-26.1-27.9-33.5
		c0.1-10.8-8.2-27.6-13.6-32.9c1.1-0.8,1.8-2,2.3-3.3c4.5-0.8,8.7-2,12.6-3.5c41.6,5.6,70.9,66.5,81.6,103.8c1.1,3.7,2.1,4.6,1.9,0
		c-0.2-5.3-1-10.9-2.2-16.6c13.8-1.1,48.7-0.5,77.1,17.5c43.2,27.4,46.3,114.9,31.8,189.1c-4.4,22.6-20.9,92.7-13.4,125.9
		c4.5,19.8,17.1,32.4,31.6,30.5c5-0.7,3.1-0.9,0-2.6c-2.2-1.2-4.4-2.2-6.6-3.3c2.8-3.7,8.6-12.7,12.5-18.9
		C624.7,577.9,618.7,603.2,616.5,609.2 M472.7,382.3c-21.7-36.5-58.8-63.6-80.2-74.3c3-8.5,4.8-17.8,4.9-28.1
		c3.1-2.5,8.1-6.3,10.7-8.1c2.6,6.6,6.6,11.8,11.3,15.9c-1.5,2.6-2.6,7.2-2.6,11.1c0,13.9,11.3,25.1,25.1,25.1
		c12,0,22.1-8.4,24.5-19.7c13.2,1.5,31.1,1.6,39.7,1.7c28,28.9,49.6,78.1,44.6,99.7c-2.3,9.9-34.8,40.8-50.3,53.8
		C503.6,448.6,499,426.6,472.7,382.3 M226.1,487.8c6.4-4.2,11.1-7.7,13.5-9.8c4,1.9,7.4,3,10.1,3.1c3.1,0.2,11.3-4.2,21.1-10.3
		c7.4,1.4,24.2,3.9,31,3.9c2.9,0,3.5-1.2,3.8-2.2c1.7-5.7,4.4-22.5,4.8-29.4c7-5.4,12-9.5,12.9-10.8c2.5-3.8,1.7-10,0.5-14.1
		c17.3,1.1,34.7-3.3,46.6-15.1c15.9-15.7,17.2-38.8,2.8-62.2c3.8-4.8,7.3-9.7,10.5-14.8c24.4,14.6,50.8,36.3,68.7,62.8
		c22.5,33.3,28.7,56.5,26.3,59.6C461,472,368.1,550.3,291.2,530C263.9,522.7,234.6,496.4,226.1,487.8 M247.7,517
		c-11.5-0.5-49.7-4.6-61.1-6.8c11.7-5.5,22.4-11.6,31.2-17C222.5,497.7,233.7,507.4,247.7,517 M137.5,331.9c0.2,1.6,0.4,3.1,0.7,4.6
		c-10.3,4.9-19.1,10.5-26.5,16.4c-9.8-18.8,9.4-38.5,34.6-41.4c0.8,0.5,1.6,0.9,2.4,1.3C141.7,317.9,136.6,324.9,137.5,331.9
		 M84.9,335.8c-9.2-2.9-20.2-4.8-26.4-1.9c7.3-14.9,32.9-52.4,37.7-55.9c4-2.9,10.1-2.7,14.3-1.3c-4,3.2-8.2,8-10.3,14.1
		c-5.4,4.4-12.9,14.7-14.1,18c-1.9,5.7,0.2,6.6,3.1,8c1.7,0.8,3.9,1.2,6,1.4c-4.4,4.5-8.6,10.8-9.5,13.5
		C85,333.5,84.8,334.8,84.9,335.8 M157.7,190.3c0.8-0.9,1.7-1.6,2.8-2c-2.3,9.8,3.9,24.2,9,27.1c-4,3.2-7.3,7.3-9.3,12
		c-1.7-1.1-4.4-2.4-7.5-3.2c1.3-2.7,4-7.3,7-9.6C157.7,210.4,156.8,197.8,157.7,190.3 M186.2,200.8c-0.6,0-1.2,0.2-1.7,0.5
		c0.3,0.3,0.5,0.7,0.5,1.1c0,0.9-0.8,1.7-1.7,1.7c-0.2,0-0.3-0.1-0.5-0.1c0,0.1,0,0.2,0,0.2c0,1.5,1,2.8,2.3,3.2
		c-1.5,0.5-3.1,1-4.6,1.6c-1.2-1.3-1.9-3-1.9-4.8c0-3,1.8-5.5,4.4-6.6c1.3,0.3,2.7,0.6,4.2,0.7c1.9,3.3,4,5.8,5.5,7.3
		c0,0.1-0.1,0.2-0.1,0.4c-0.8,0.1-2.7,0.2-4,0.6c0.6-0.6,0.9-1.4,0.9-2.3C189.6,202.4,188,200.8,186.2,200.8 M176.8,204.3
		c0,2.1,0.7,4,1.9,5.5c-2,0.9-3.9,1.9-5.7,3.1c-5.2-4.5-10.1-14.9-8.5-24.4c4.6,1.5,8.9,6,16.2,8.4
		C178.3,198.6,176.8,201.2,176.8,204.3 M146.4,223.3c-4.4-0.1-9.1,0.8-13.7,3.6c-4.3-1.5-11.3-3.9-19.8-5
		c3.3-9.7,8.1-20.7,16.6-29.3c1.2,3.6,2.9,6.5,5,8.5c1.2,1.2,1.5,2.2,2.2,0c1.1-3.2,2.6-6.3,3.5-8.2c0.2,8.6,9.1,14.5,10.1,15.1
		c0.5,0.3,1.3,0.7,2.1,0.8c0.2,1.2,0.5,2.4,0.7,3.6C152,213.4,148.9,218.7,146.4,223.3 M135.1,233c5.6-4,16.3-4.4,23.3,1.2
		c-0.5,3.8-0.2,7.9,1,12.3c0.7,2.5,1.6,2.1,2,0c1.4-6.7,3.1-27.9,31-33.8c26.2-5.5,45.2,14.6,48.4,19.8c1.5,2.4,2,1.5,1.5-0.9
		c-0.6-2.8-1.9-5.6-3.6-8.2c10-5.9,29.9-9.9,42.6-7.7c-1,3.9-1.5,7.8-1.4,11.8c0.1,2.7,0.8,3.1,1.8,0.1c7.5-23,28-45.2,51.1-51.2
		c35.3-9.1,65,7.2,76.3,35.5c5.7,14.2,4.7,41.8-18.4,61c2.5,24.8-13,54.5-25.8,67.2c14.4,22.4,16.3,41.2,0.8,58.2
		c-18.2,19.8-62.6,17.7-91.2-3.6c-1.9-1.4-2.4-1.1-0.6,1c2.6,3.1,5.7,5.9,9.2,8.5c-13,14-49.2,27.9-67.7,9.3
		c-13.1-13.3-16.9-35.3,3.3-59.1c0.3,4.7,1,9.6,2.5,14.2c-1.3,1.5-2.5,3.2-3.6,4.9c-2,3.1-0.7,3.5,1.4,1.6
		c4.3-3.9,23.1-19.9,53-22.7c27.2-2.6,50.9,4,64.5,9.8c4,1.7,3.1,0,0.8-2.3c-1-1.1-2.7-2.3-4.8-3.5c-4.9-22.2,11.5-66.5,40.2-93.8
		c1.1-10.4-12.3-45.6-37.9-49.1c-3.2-0.4-1.1,1,0,1.6c3.4,1.7,6.4,3.7,9.2,5.8c-1.5,13.5-14,50.9-60.4,72.4
		c-24.4,11.3-56.2,8.5-73.3-5c-1.6-1.3-2-0.7-1.3,0.6c2.9,5.5,7.8,9.6,13.8,12.5c-5.4,3.6-26,15.5-50.3,12.3
		C123.2,307.1,107.1,252.7,135.1,233 M334.3,113.8c12.5,7.8,29.7,8.9,33.5,5.1c3.2,4.2,5.8,12.2,1.5,18.7c-4.6,7-26.4,3.6-36.9-5.1
		c-1.2-7.5-5.3-15.6-15.8-21.2c0.5-0.1,3.6,0,4.6,0.2c1,0.2,1.4,0.3,1.1-2.1c-0.3-2.3-6-16.4-22.3-18.8v0c3.3-3.7,11.3-4.8,17-3.4
		C314.8,90.7,321.9,106.1,334.3,113.8 M296.7,150.9c10.5,2.6,19.8,9.3,21.2,10.4c1.7,1.4,1.5,0.6,2.1-0.5c0.6-1.2,1.8-8.6,0.6-13
		c1.6,0.6,3.9,2.3,5.9,3.8c2.3,1.8,2.2,1.1,3.1-0.1c0.8-1,2.5-5.5,3-11.3c12.2,7.3,25.9,9,34.7,6.6c6.6,6.1,11.2,19.2,12.3,25.7
		c-14.1-5.8-30.9-7.2-48.1-2.8c-9.6,2.5-19.7,7.8-28.3,14.9c-0.9-0.1-1.9-0.1-3.2-0.1C302.5,175.9,301.7,158.9,296.7,150.9
		 M314.7,105.9c-5.4-0.3-11.3-0.6-16.4,0.7c-1.3,0.3-2,0.8-0.2,1.2c17.5,3.8,33.1,19.9,28,36.6c-6.4-4-13-5.3-14-5.6
		c-1-0.2-1.5-0.4-0.8,0.6c0.8,1.1,3.7,8.2,3.3,12.4c-6.5-4.1-18-8.4-29.3-7.3c-35.6,3.6-38.3,39.8-50,45c-9,4-17.6-8-17.1-25.1
		c3.4,3.4,10.8,2,13.9-4c3.1-6,28.6-67.5,65-63.9C307.2,97.6,313.2,103.2,314.7,105.9 M275.4,171.6c-5.5,0-10,4.5-10,10
		c0,3.4,1.7,6.5,4.4,8.3c-7.2,2.8-14.2,6.9-19.2,12.8c-2.4-1.2-7.6-4.3-10.5-10.7c11.3-10.9,16-41.3,48.4-42.1c0.4,0,0.9,0,1.3,0
		c7.9,8.7,7.7,27.4,5.3,34.7c-3.1,0.2-6.7,0.6-10.5,1.3c0.6-1.3,1-2.7,1-4.3C285.4,176.1,280.9,171.6,275.4,171.6 M283.4,181.6
		c0,1.8-0.6,3.4-1.6,4.8c-3.1,0.6-6.3,1.5-9.5,2.6c-2.9-1.2-4.9-4.1-4.9-7.4c0-4.4,3.6-8,8-8C279.8,173.6,283.4,177.2,283.4,181.6
		 M234.1,195.4c0.6-0.2,1.2-0.4,1.8-0.6c2.3,4.3,7.6,10.7,11.8,11.7c-0.5,0.8-1,1.6-1.4,2.4c-0.9,1.8-0.6,2.1,1.1,0.8
		c8.4-6.7,25.1-20.1,50.3-20.2c-5.9,5.8-10.8,12.6-14,19.7c-14.1-1.7-39.3,1.3-49.1,9.1c-2.5-2.5-5.5-4.8-8.9-6.7
		C233.1,208.1,234.4,199.6,234.1,195.4 M317.5,426.8c-6.5,5.7-25.7-12-31.5-18.1c0.4-0.6,0.8-1.1,1.2-1.7
		c8.5,5.2,18.7,8.8,29.3,10.5C318,420.9,318.1,424.2,317.5,426.8 M268.3,425.4c0,9.9-8,18-18,18c-8.9,0-16.2-6.4-17.7-14.8
		c12.2,2,25-0.9,35.4-6C268.2,423.5,268.3,424.5,268.3,425.4 M222.6,307.8c2.6-1.8,4.5-3.4,5.6-4.5c1.7,0.6,3.5,1.1,5.4,1.5
		c1.8,4,3.5,8.9,4.3,13.1c-1.6,4.9-2.8,10.3-3,15.4c-5-3.7-9-5.8-9.9-6c-1.4-0.4-2.3-0.6-3.1,0.7
		C222.9,320.9,223.5,313.1,222.6,307.8 M294.9,331c1.9,0.6,2.8,0.9,4.8-1.4c3.5-4,7-29.4,5.3-41c2.6-1.7,5.1-3.5,7.4-5.3
		c10.3,6,22.3,6.8,24.1,6.7c2-0.1,2.6-0.6,2.7-2.6c0.3-5.5-1.4-20.1-3.6-28.4c0.9-1.3,1.7-2.6,2.5-3.9c1.4,1.3,3.3,2.6,5.7,3.8
		c-1.9-0.2-2.8,0.9-2.8,3.1c0,3.3,0.5,17.5,4,25.7c-1.9,3.1-3.7,6.2-5.4,9.5c-9.1-6.1-14.1-6-15.5-5.9c-1.6,0.1-2.3,0.4-2.4,2.9
		c-0.5,7.5,2.8,22,7.8,29c-0.6,2.4-1.2,4.8-1.6,7.1c-6.9-7.8-17.2-13.4-18.5-13.8c-1.5-0.5-2.4-0.6-3.3,1.8
		c-1.3,3.3-4.1,18.8-2.5,27.7c-10.6-2.1-22.7-2.9-34.9-1.2c-3.9,0.5-10.5,1.8-17.8,4.4c-3.1-4.4-6.8-8.3-10.4-11.5
		c0.1-11.9,4.3-24.1,10.3-31.1c5.2,0,10.6-0.5,15.7-1.4C275.9,319.4,293,330.4,294.9,331 M273,303.8c4.2-1.1,8.2-2.5,11.9-4.2
		c5.1-2.3,9.9-4.8,14.3-7.4c1.1,9,0.7,25.1-2.8,32c-0.5,1-0.8,1.1-1.9,0.4C283.5,318.3,275.3,307.4,273,303.8 M317.1,279.5
		c5.8-4.9,10.6-10,14.5-15c1.4,5.3,3.2,14.4,3.2,19.9c0,1.1-0.5,1.3-1.1,1.2C324.9,284.4,319.8,281.6,317.1,279.5 M354.3,236.8
		c1.5,0,3,0.1,4.5,0.3c5.6,9.3,8,18.8,8.5,25.2c-2.5,1.9-4.9,4-7.3,6.3c-4.6-4.1-7.7-6.3-10-7.6c1.3,0.3,2.8,0.6,4.4,0.8
		c1.6,0.2,3.2,0.4,3.4-2.2C357.9,257,356.7,246,354.3,236.8 M356.5,272.3c-3.1,3.4-6,7.1-8.7,11c-1.1-4.7-2.4-12.1-2.1-17.4
		c0-1,0-1.7,0.9-1.2C352.2,267.6,355,270.5,356.5,272.3 M351.9,257.1c-5.1-1-9-3.7-11.4-6.1c3.6-6.8,5.8-13.1,7-18.3
		c1.8,4.8,4.9,15.8,5.4,23.5C353,257.1,352.9,257.3,351.9,257.1 M337.4,301.5c-2.5,5.4-4.7,10.9-6.4,16.3
		c-2.2-5.3-5.5-15.5-5.1-20.9c0.1-1,0.3-1.2,1.2-0.9C332,297,335.5,299.7,337.4,301.5 M327.3,353.5c-5-2.3-11.4-4.5-18.7-6.3
		c-0.4-4.8-0.8-18.4,0.7-23.7c0.3-1,0.6-0.9,1.5-0.4c7.8,4,13.3,9.7,16.1,13.2C326.2,342.6,326.2,348.4,327.3,353.5 M245.6,351.4
		c-7.1,3-14.4,7.2-20.5,13c-0.8-5.1-2.8-25-0.8-31.5c0.3-1.1,0.7-1.1,1.7-0.5C236.6,338.5,242.2,347.2,245.6,351.4 M191.3,319.7
		c10.5-1.4,19.1-4.8,25.5-8.3c0.2,6.3,0,21.6-2.3,27.4c-0.4,1.1-0.8,1-1.9,0.4C201.7,333.5,194.3,324.2,191.3,319.7 M183.3,355.7
		c-9.9,0-18-8-18-18c0-8.3,5.7-15.3,13.3-17.3c2,0.1,3.9,0,5.7,0c4.6,6.6,11.1,12.5,16.9,16.9C201.8,344.4,193.2,355.7,183.3,355.7
		 M123,289c-7,2.1-13.1,6.6-17.5,12.4c-0.6-6.8,1-17.8,12.7-22.3C119.4,282.4,121.1,285.8,123,289 M100.7,309.4
		c-0.5,1.2-1,2.4-1.4,3.6c-2.2,0.2-4.6,0.4-6.2,0.1c-2.9-0.4-2.7-1.2-1.7-3.9c1.4-3.6,4.8-7.5,7.4-10.1
		C98.8,302.3,99.3,305.7,100.7,309.4L100.7,309.4 M91,332.1c1.3-3.3,4.1-6.7,6.6-9.3c-0.1,4.5,0.7,8.9,2.7,12.9
		c-2.4,0.3-5.6,0.6-7.6,0.3C89.8,335.6,90,334.8,91,332.1 M102.5,343.5c0.1,4.5,1.2,9.2,3.6,13.8c-2.7,0.2-7.1,0.5-9.6,0
		c-3.1-0.6-2.8-1.5-1.6-4.3C96.5,349.5,99.7,346,102.5,343.5 M105.5,329.8c-5.2-14.1,5.2-31.9,21.2-35.6c3.3,4.3,7.1,8.3,11.6,11.8
		C123,309.5,110.8,318.5,105.5,329.8 M156.5,316.3c4,1.5,8.3,2.6,12.7,3.2c-5.4,4.2-8.9,10.8-8.9,18.2c0,12.7,10.3,23,23,23
		c11.7,0,21.3-8.7,22.8-20c4.1,2.8,7.2,4.4,7.9,4.7c1.7,0.9,3.4,1.3,5-3.4c-0.1,1.5-0.2,3-0.3,4.7c-25.2,26.1-25.4,55.3-8.7,70.9
		c5.3,5,11.3,8.1,17.5,9.9c1,11.7,10.9,20.9,22.9,20.9c12.7,0,23-10.3,23-23c0-1.8-0.2-3.6-0.6-5.3c4.3-2.5,8-5.4,10.8-8.4
		c13.2,13.1,23.4,20.5,30,20.5c-9.8,6.5-59.3,41-63.7,40.1c-41.1-8.3-102.1-98.4-104.7-142.5C144.8,325.3,151.5,319.3,156.5,316.3
		 M303.5,448.4c-0.3,5.8-1,15.3-1.6,19.2c-0.2,1.1-0.8,2.3-2.9,2.1c-4.4-0.5-14.6-2.5-20.5-3.8C286.9,460.4,295.8,454.1,303.5,448.4
		 M482.9,457.2c1.5,3.3,3.6,2.7,4.6,0.7c2.7-5.9-5.3-39.5-29.5-73.1c-23.4-32.4-48.6-51.1-71.1-64.1c1.6-3,3-6,4.3-9.2
		c17.5,9.2,53.6,33.3,77.6,71.8c18.2,29.2,40.5,74.3,22.3,82.7c-5.3,1.7-10.7,0.9-15.6-0.8C478.1,462.4,480.6,459.8,482.9,457.2
		 M422,298.9c0-3.1,0.4-5.7,1.3-8c12,8.7,27.1,11,37.8,12.7c-2.1,8.7-9.9,15.1-19.3,15.1C430.8,318.7,422,309.8,422,298.9
		 M543.6,452.5c-0.4,1.7-1.3,1.5-2.3,1.9c-0.8,0.3-14-0.5-22-1.2c8.5-8.3,17.5-17.7,24.6-25.6C545.2,437.2,544,450.9,543.6,452.5
		 M589.2,555c-26.5-10,4.5-109.7,33.9-98.4c8,3.1,10.3,9.9,11,14.3c-2.8-1.4-4.9-2-6.3-1.5c-21.8,7.1-37.1,68.3-23.3,77.7
		c1.3,0.7,2.8,1.2,4.7,1.7C606.1,553,598.7,558.6,589.2,555 M686.5,530.7c-2.3,7.2-75.4,17-79.2,11.3c-7.6-13.3,8.3-60.3,21.7-67.2
		C634.5,472.8,688.9,523.5,686.5,530.7 M680.9,447.7c-0.5,5.1-29.1,15.2-39.9,17.7c3.4-12.4,7.9-36.1,10-58.3
		C658.4,414.4,681.5,442.2,680.9,447.7 M706.8,301.7c2.6,6.8-53.3,56.2-61.4,54.7c-16.9-3.3-24.6-65.8-16.4-71.7
		C637.1,281.6,703.6,293.4,706.8,301.7 M632.5,277c-3.2,0-5.7,0.2-7,0.9c-11.3,4.5-3.4,84.2,19.7,85.2c1.4,0.1,3.1-0.3,5.1-1.1
		c-1.7,5.8-6.4,14.2-15.2,15c-29,2.8-48.3-103.3-20.7-106.9C623.2,268.9,629.7,273.4,632.5,277 M645.1,192.2
		c3.1,1.7-15.7,48.1-23.3,62.3c-8.3-17.1-23.8-38.8-40.6-56.4C595.4,194.1,638.6,188.7,645.1,192.2 M539.5,90.2
		c6.5,3.2,8.1,63.8,0.7,83.1c-4.6,10.8-68.7-17.4-69.1-32.3C471,132.2,533.7,87.4,539.5,90.2 M451.6,144.8
		c3.5-8.1,10.9-10.7,16.2-10.4c-1.8,2.6-2.9,4.9-2.9,6.7c-0.1,16.3,60.3,48.3,78,37.4c1.5-1.3,2.7-3.3,3.8-6c3.4,4,8,13.3,2.8,22.8
		C537.1,218.2,439,173.5,451.6,144.8 M449.9,135.1c-2.2,2-3.8,4.1-4.6,5.9c-15.9,37.5,92.3,86.9,109.3,57.4c2.3-4,3.3-7.9,3.5-11.5
		c23.7,19.7,43.1,44.4,58.3,76.4c-0.9,0.1-1.9,0.2-2.9,0.4c-38.2,7.7-11.2,123.3,22,119.3c3.6-0.4,6.6-1.7,9.2-3.4
		c0,20.6-4.9,61.4-10.1,79c-2.4-3.1-5.6-5.9-9.8-7.5c-38-14.3-69.7,98.5-37.6,108.9c2.3,0.8,4.6,1,6.8,1
		c-3.1,4.7-7.9,11.8-10.6,15.4c-4.8-3.9-8.9-9.8-11.4-20.8c-6.1-26.4,8.6-103.3,12.8-124.2c15.3-77.1,13-163.9-34.4-195.7
		c-28.9-19.4-68.4-20.4-82.2-18.6c-10.5-37.5-40.2-79.2-70.5-85.3c3.1-2,6-4.3,8.5-6.8C420.8,125.9,441.3,132.3,449.9,135.1
		 M416.7,63c5,32.8-9.6,63.8-38.5,68.8c0.4-8.4-4-15.9-6.9-18.6c5.3-9.7,8.2-21.5,9-33.7C391.6,85.1,411.1,80,416.7,63 M340.9,8.2
		c-0.7-2.3,0.2-3.5,2.9-2c38.9,21.5,33.9,88.2,21.2,108.4c-2.6,4.1-19.4,0.6-25.9-3.2c-8-4.6-20.4-18.8-15.5-23.5
		C337.5,74.5,354.8,51.9,340.9,8.2 M184.9,16.9c-3.8,26.8,9.6,42.7,11.4,45.1c1.8,2.4,1.8,2.6,1.8-0.5
		c-0.6-23.8,11.4-49.4,51.1-49.1c18.8,0.1,35.8,14.4,50.7,15.7c9.7,0.9,18.5-2.1,21.4-5.1c-1.1,4.8-5.5,18.9-17.2,29.2
		c-1.5,1.4-1.4,1.7,0,1.3c12.5-3.7,18.9-9.1,22.2-12c-1,6.8-6.9,13.7-8.8,16c-1.9,2.2-1.1,2.1,0.3,1.4c8.7-4.1,16.2-3.5,20.2-2.5
		c-3.5,10.4-9.9,18.4-17,26.2c-6.7-3.6-16.9-3-24.8,2.1c-40.7-10.3-78.9,2.7-106,23.9C155.3,85.2,162.8,37.2,184.9,16.9 M288.6,90.6
		c-32.5,4.4-50.8,44.2-61.5,66.5c-3.8,8-9.1,2.5-10.1,0.7c-0.9-1.6-1.1-1.9-1.9,0.2c-5,13.7-1.7,33.9,12.9,37.4c0.1,0,0.2,0,0.3,0.1
		c0.6,4.4-0.9,11.8-8.8,13.4c-5.6-2.2-12.1-3.4-19.1-3.4c-17.7-14.5-12.5-40.9-11.5-44.2c0.5-1.8-0.2-1.5-1.1,0
		c-1.9,3.2-3.2,6.4-4.1,9.4c-10.8-2.8-12.6-14.9-15.3-24.7C192.2,102.9,243.6,83.4,288.6,90.6 M170.7,129c-2,2.9-3.8,5.8-5.4,8.7
		c-1.4-2.3-3.2-4-5.7-4.7l0,0C161.7,130.3,165.6,127.3,170.7,129 M157.2,138.7c9.4,5.3,4.5,32,25.4,37.2c-0.9,6.7,0.3,12.6,2.2,17.5
		c-8.8-0.7-15.2-11-22.9-11c-5,0-11.7,5.7-12.4,18.3c-1.5-1.7-7.3-7.8-5.8-17.7c0.4-2.6-0.5-1.4-1.3-0.6c-0.8,0.8-6,7.4-6.8,11.1
		c-5.1-10.7-3.9-24.3,5-35.5c1.8-2.3,2.3-2.9,0.1-2.3c-1.7,0.4-4.3,2-6.5,3.5C137.9,146.6,149.2,134.3,157.2,138.7 M107.1,94.6
		c1.5-2.7,2.4-2,3.4,0.8c3.4,10,16.3,31.6,40.6,37.3c-8.9,1.7-18,10.1-22,29.1c-0.3,2.1-0.7,4.8,1.9,1.8c-1.1,2.3-1.9,4.8-2.5,7.4
		C114.4,160.1,92.6,127.3,107.1,94.6 M74,180.4c-0.7-3.7-0.2-3.8,1.7-4c10.9-1.5,37.2,0.5,51.9,4.6c0,1,0.1,2,0.2,3
		c-10.1,8-18.7,24-23.2,37.3c-5.5,0-11.4,0.7-17.4,2.6C81.7,213.4,77.1,196.6,74,180.4 M77.3,237.2c18-13.1,37.3-8.8,49.1-5.2
		c-10.6,10.3-13.7,24.6-10.7,38.8c-6.3-2.1-18.7-4.8-25.5,2.3c-1.2,1.3-4.8,6.3-9.5,13c-4.9,0.8-12.5,2.7-19,4.8
		C56.5,270.6,57.2,251.8,77.3,237.2 M53.1,302.6c-0.4-1.6,0.3-3.4,1.9-3.9c1.1-0.3,11.1-3.9,20.8-5.6c-5.8,8.6-12.2,18.5-17.4,26.9
		C56.6,314.6,53.9,305.7,53.1,302.6 M56.6,339.8c8.9-8.9,32.1,0.3,39.1,3.3c-2,2.3-3.8,4.6-5,6.5c-11.1-4.9-24.1-6.9-26.2-3.5
		c-0.7,1.1,0.3,1.4,1.9,2.3c-0.9,1.3-1.8,2.6-2.6,4C61.3,350.4,56.6,346.2,56.6,339.8 M54.3,486.5c0.6-0.3,1.1-0.8,1.5-1.3
		c3.1,4.1,7.5,7.2,11.6,7.2c1.8,1,4.4,5.1,5.1,9.6c0,0.4,1.1,0.5,1.1-0.1c0.1-3.6-2.6-8.9-3.6-9.9c0.8-0.3,1.5-0.7,2.2-1.2
		c4.4-3.7-0.4-19.9-10.3-23.8h0c0-0.1,0-0.1,0-0.2c0.6-7.1-2.6-18.2-7.9-22.8c-1.6-1.2-0.8-0.1,0.2,1.6c2.1,3.2,8.4,21.9,3.9,24.8
		c-4.1,2-8.7-9.2-10.4-8c0.7,1.1,10.8,19.3,5.5,22.2c-6.9-11-11.5-24.9-12.3-42c-1.5-32,20.4-77.5,32.3-92.8
		c5.9,0.6,11.5,1.9,15.6,4.4c-1.2,4.2,0.9,5.3,3.5,6.7c2.3,1.3,5.5,1.9,8.5,2.2c-8.1,8.3-13.5,16.5-16.6,23.3
		c-2.7,5.9-1.4,5.5,1.1,2.9c2.5-2.5,28.2-31.5,54.7-44.2c12.9,57.1,62.6,110.6,92.9,129.2c-10.3,7.6-56,39.4-101.1,45.7
		C107.6,523.2,73.2,514.5,54.3,486.5 M54.6,472.4c4.2,2.2,6.5-0.3,7.1-4.7c2,1.4,13.2,15.1,9.1,21c-2.3,3.3-10.3,0.1-14.1-5.5h0
		C57.4,479.1,54.9,473.1,54.6,472.4 M5.3,812c-1.4-3.4,12-24.8,21.7-26.6c3.8-0.5,11.9,3.8,14.7,13.2c-3.8,3.5-7.5,7.6-10.4,11.6
		C26.6,815.3,5.9,813.5,5.3,812 M30.7,822.6c-2.3-3.8,21.9-28.4,28.6-29.3c7.8-0.1,16,11.5,16.5,21.5c-3.9,3.8-7.4,7.9-10.1,11.4
		C54.7,829.8,33.7,826.5,30.7,822.6 M107,836.9c-8.9,7.1-37.5,0-39.1-3.4c-1.1-2.4,18.8-24.4,27.4-26.1
		C104.8,805.6,118.9,827.3,107,836.9 M168.4,828c-3.2,3.6-32.4,18-54.9,11c12-15.8-6.3-38.9-18.6-36.8c-1.3,0.2-2.8,0.7-4.3,1.4
		c3.7-7.9,15-17.4,29-18.8c0,0,2.7-0.8-0.4-1.4c-17.4-3.4-37.1,10.7-38,26.3c0,0.1,0,0.1,0,0.1c-0.4,0.3-0.7,0.6-1.1,0.9
		c-1.7-13.8-13.5-23-21.9-22c-2.2,0.1-4.8,1.2-7.8,3c2.1-11.5,22-19.1,32-19c1.3-0.4,1.3-0.9-0.3-1.4c-13.3-4.4-36.4,4.5-38,20.7
		c-3.8-6.8-11-13.4-18.1-11.3c-0.5,0.2-1,0.3-1.5,0.5l0,0c1.2-7.8,18.1-17.3,29-15.4c6.8-8.5,19.1-14.2,23.9-15.7
		c6.1,3.5,12.6,6.4,19.4,8.5c2.2,0.7,2.7,0.2,0.9-0.9c-25.2-14.4-68.5-48.9-67.5-99.5c2.1-30.2,26.1-61.5,92.8-84.7
		c7,38.9,21.2,66.8,40.6,91.8c16.5,21.1,39.2,37.8,64,48.5v0c-6.8,3.5-47.6,3.9-74.2-1.9c0,0-2.4-0.6-0.1,1
		c17.4,10.4,55.1,12.1,74.2,9c6.5,6.5,7,29.3,6.6,33.7C261.6,781.2,282.7,836.8,168.4,828 M176.5,667.8
		c36.6,14.1,140.4,27.7,206.2,1c3.9-1.6,4.9-2.3,6-3.1c2.5-1.7,1.1-2.3-0.9-1.7c-64.1,18.3-149.5,19.2-215.3-0.9
		c-7.6-9.1-21.6-32.2-27.9-47.1c42,19.7,195.1,27.5,260.4,2.3c4.4-1.7,7.4-4,8.3-5.2c1.4-1.9,0.6-1.3-1.8-0.4
		c-97.1,25.7-211,14.2-267.9,0.8c-8.8-21.8-13.3-42.8-15.5-59c33.5,18.8,171.1,35.5,281,8.2c3.9-1,9.6-3.1,11.5-4.5
		c2.6-1.8,2.9-2.4-1.1-1.6c-69.8,14.9-201.9,23.2-291.8-5.3c-1.4-10.6-1.7-18.9-1.8-23.4c2-0.1,3.9-0.3,5.6-0.5
		c15.4-2,31-7,45.5-13.1c8.6,3.1,70.8,10.8,82,9.7c9.3,5.6,19.3,10.6,29.3,13.8c36.1,11.7,89.6-5.1,134.4-32.1
		c16.2,101.1-28.2,198.6-108.3,211.5C253.1,727.2,204.3,698.8,176.5,667.8 M555,867.6c-1.6,2.7-40.7,3.6-46.8-3.9
		c-5.9-8.6,4.7-33.7,19-33.1C543.2,835.5,556.6,864.9,555,867.6 M556.8,855.2c-3-6.4-7.3-12.6-11.8-17.7c2.3-4.9,9.3-16.4,19-16.2
		c9.9,0.9,23.3,27.9,23.8,38.4C587.4,862.1,562.7,857.7,556.8,855.2 M615.7,851.3c-1.8,1.6-17.9-0.8-25.1-3.9
		c-2.4-6.2-6-12.9-10-18.6c0.3-0.1,0.5-0.3,0.7-0.6c0.7-1.9,1-4.1,0.9-6.3c2.7-3.8,7.2-8.2,12.8-7.9
		C606.8,814.6,618.5,848.3,615.7,851.3 M547.6,772.6c2.6-0.6,6.8-2.9,11.7-6.7c10.2,4.2,16.1,11.4,19,19.6
		c13.1,2.2,28.1,19.7,28,29.7c-3.6-4-7.3-6.7-10.7-7.2c-4.5-0.6-10.8,2.6-15,6.4c-4.1-11.9-15.8-24.2-26.9-25.4
		c-2-0.1-2.2,0.5-0.1,1.8c9.2,5.8,21.6,21.1,21.2,30.9c-3.5-3.6-7-5.9-10.3-6.2c-6.8-0.5-16,5.8-20.6,12.1
		c-4.5-18.6-19.6-27.1-28-28.4c-3.2-0.2-1.8,0.3,0.1,1.9c1.9,1.7,19.9,16.2,22.6,29.9c-4.4-3.8-8.5-6.1-11.5-6.3
		c-20,0.6-30.4,30.4-24.1,40c1.4,2.2,3.7,4,6.5,5.5c-7.6,3.5-29-1-44.3-13.6c-26.6-2.4-116.7-28.6-56.1-89.6c-2.1-2.1-3.8-26,2-35.1
		c13.8,2.4,27.8,1.1,38.4-3.9c0.7-0.4,1.1-0.9-0.1-0.9c-20.9,0.3-45.9,1.5-77.6-17.6c0,0-3.2-2.6-0.9,1c7.7,9.4,19.4,16,31.9,19.5
		c-2.1,4.5-3.8,14.5-3.7,23.9c-41.6-1-78.5-13.2-100.3-26.5c6.7-0.4,13.3-1.2,19.6-2.6C424.2,701.5,440.4,576.7,428,502.6
		c15.6-9.8,30-20.8,42-32.1c6.3,2.8,17.5,5.2,25.3,2.6c1.1-0.4,2.7-1.3,4.7-2.7c-4.5,23.3-7.3,70.4-0.5,100.6
		c-9-3.1-16.5-4.3-21.1-3.7c-2.1,0.3-2.6,0.8-1.7,1.2c44.5,15.7,91,46.8,109.4,89c20.3,46.5-14.2,89.1-40,114.6
		C546,772.1,545.5,772.9,547.6,772.6"/>
	<path class="st10" d="M168.1,245.5c0-1.1,0.5-2.2,1.7-2.2c2.7,0,7.1,7.6,7.9,8.7c0.8,1.1,1.2,1.2,1,0c-0.2-1.2-4.4-15.7-9.4-15.2
		c-5,0.6-2.7,7.9-2,9.1C167.8,246.6,168.1,247,168.1,245.5"/>
	<path class="st10" d="M78.4,666c-15.7,19.6-27.1,15.8-22.8-8.2c0.1-0.7-0.6-0.1-1,1.1c-0.7,1.8-1.2,3.6-1.6,5.2
		c-7.9,8.6-18.3,9.9-12.3-10.3c0.2-1-0.2-1-1.6,1c-4.1,6-3,13.6,0.7,16.5c0,0.1-0.1,0.2-0.1,0.3c-4.7,24.7,12.6,28.5,19.4,15
		c-0.3,16.6,14.4,15,16.9,4.8c0.2-0.9,0.5-2.4-0.3-1.3c-9.7,14.5-16.1,2-15.3-7.8c0-0.2,0.1-0.4,0.1-0.6c5.3,0.6,12.3-3.5,18-14.2
		C79,666.2,79.3,664.9,78.4,666 M41.3,672c2.9,1.1,6.9-0.2,11.2-5.8c-1.2,8.2,1.8,13.7,6.6,15C54.9,694.4,38.3,697.7,41.3,672"/>
	<path class="st10" d="M320,523.2L320,523.2c3.4,4.7,12.6,5,14.9,4.5c1.4-0.3,3.6-1.1,0.3-0.9c-4.6,0.3-13.7-2.3-13.9-7.4
		c-0.2-6.9,14.1-12.4,15.8-12.9c1.7-0.5,2.2-1.2,0-0.8c-7.3,1.2-20.2-0.7-21.7-6.2c-1.5-5.4,6.8-11.6,15-13.9c3.9-1.1,1.5-1.3,0-1.3
		c-11.2,0.4-18.2,8.4-17.6,15c0,0.1,0,0.2,0.1,0.3c-9.7-1.1-18.3,4.2-17.6,11.6C296.2,522,311.5,526.5,320,523.2 M313.2,500.7
		c2,5.6,12.7,7.5,15.4,7.4c-4.8,1.4-10.1,7.5-9.9,11.4c0.1,1.2,0.4,2.2,0.9,3.1c-12.4,0.2-20.9-5-21.2-11.4
		C298.1,506.2,304.1,502.2,313.2,500.7"/>
</g>
</svg>