<?xml version="1.0" encoding="utf-8"?>
<svg version="1.1" id="Koopa Paratroopa" xmlns="http://www.w3.org/2000/svg" xmlns:xlink="http://www.w3.org/1999/xlink" x="0px" y="0px"
	 viewBox="0 0 380.1 451.7" style="enable-background:new 0 0 380.1 451.7;" xml:space="preserve">
<style type="text/css">
	.st0{fill:#FFFFFF;}
	.st1{fill:#FFCB05;}
	.st2{fill:#ED1C24;}
	.st3{fill:#F3F4C2;}
	.st4{fill:#FFDAA2;}
	.st5{fill:#A0C9EC;}
</style>
<g>
	<path class="st0" d="M373.3,126c-0.2-6.6-10.2-10.5-19.6-10.9c-6.9-0.3-14,0.3-17.6,0.7l-0.4,0l-0.2,0.4c-0.4,0.8-0.8,1.6-1.2,2.4
		c-5.4,9.3-21.3,20.5-21.5,20.7l-1.4,1l1.7,0.4c0.2,0,4.6,1.1,5.1,6.5c0.5,6-5.7,16.1-20.5,24.2c-4,2.2-8.1,3.9-12,5.1l-0.9,0.3
		l0.5,0.8c0.5,0.9,1.7,3.3,0.5,6.9c-0.9,2.9-3.8,8.6-12.4,13l-0.8,0.4l0.6,0.7c1.5,1.9,2.8,3.9,4.1,5.9c0.3,0.5,0.5,0.9,0.8,1.4
		l0.2,0.3l0.4,0c1.7,0.2,3.2,0.3,4.6,0.3c6.9,0,10.4-2,11.4-4.1c0.5-1.1,0.4-2.2-0.3-3.3l-0.1-0.2l-0.2-0.1
		c-2.4-0.8-3.8-1.9-4.2-2.5c0.8-0.1,2.4-0.1,3.9-0.1c2.9,0,6.8,0,11.5-0.4c9.3-0.8,19.6-3.8,20.3-8.5c0.4-3.2-3.2-5.3-5.4-6.6
		c-0.2-0.1-0.4-0.2-0.6-0.4c0.4-0.1,0.8-0.1,1.2-0.2c2.6-0.4,7.5-1.1,15-3.3c12.7-3.9,15.5-8.2,15.8-13.6c0.2-4.2-4.8-6.7-7.9-7.9
		l-0.2-0.1l-0.2,0c-1.9,0.2-3.2,0.3-4.2,0.2c0.6-0.3,1.3-0.7,2.2-1.1c2.6-1.3,6.9-3.4,13.1-6.9C366.1,140.9,373.5,132.4,373.3,126z"
		/>
	<path class="st0" d="M284.5,261l-0.8-0.6l-0.4,0.9c-3,6.5-8.4,10.7-26.2,11.5c-16.3,0.8-38.3-7-52.4-18.5
		c-14.8-12.1-23-24.9-26.7-41.7c-2.8-12.7-2.4-23.1,1.1-30.7c0.6-1.2,1.5-2.4,2.7-3.6l0.7-0.7l-0.8-0.5c-3.2-2.2-8.4-4.4-14.7-2.5
		c-11.6,3.4-14.8,18.9-14,31.2c0.9,13.5,6,39.8,29.8,63.7c19,19.2,41.6,29.6,65.2,30.1c0.6,0,1.2,0,1.8,0c14.5,0,26.9-4,34.3-11.1
		c4.3-4.2,6.7-9.2,6.8-14.6C290.9,267.2,287.5,263.2,284.5,261z"/>
	<path class="st1" d="M289.8,290.8l-0.3,0.3c-5.8,6.3-15.1,10.5-27.7,12.3l-1.2,0.2l-0.1,0.6c-0.1,1-0.3,2-0.4,2.9l-0.2,1.2l1.2-0.4
		c3.9-1.2,11.4-2.7,17.4,1.6c0.4,0.3,0.8,0.6,1.1,0.9l0.3,0.2l0.4-0.1c12.5-2.5,22.5-9.7,26.1-13.1c2.1-2,2.8-3.4,2.3-4.5
		c-0.6-1.4-2.6-1.5-4.5-1.5l-0.8,0c-2.7,0-7.1,0-13.2-0.6L289.8,290.8z"/>
	<path class="st2" d="M300.1,346c1-8.7-3.6-14.4-8.1-16.7c-2.6-1.4-6.1-1.5-8.5-1.5l-0.5,0l-0.2,0.5c-0.5,1.3-1.1,2.6-1.7,3.8
		c-3.2,5.8-6.5,8-7.9,8.5c0.4-0.9,1.4-2.7,2.2-4.1c2.8-5.1,6.4-16.2-0.1-22.4c-5.4-5-12.5-2-15.2-0.5l-1,0.5l0.9,0.7
		c1.6,1.3,3.1,2.7,4.7,4.1l0.6,0.5l0.5-0.6c0.7-0.9,1.2-1.4,1.5-1.6c0.2,1.3-0.2,4.9-3.2,10.4c-4.2,7.4-12.1,14.2-23.7,20.2
		c-9.7,5-14.5,5.4-16,5.1c0.1-0.1,0.4-0.3,0.7-0.5c1.3-0.9,2.6-1.7,4-2.5l1-0.6l-1-0.7c-2.5-1.7-4.9-3.5-7.2-5.5l-0.7-0.6l-0.4,0.8
		c-2.1,3.9-6.3,13.6,0.5,20.1c8.5,8,23.6,2.8,26.6,1.7c1.1-0.4,1.8-0.6,2.2-0.7c-0.1,0.2-0.3,0.4-0.6,0.7c-1.7,1.9-6.7,5.7-13.8,7.1
		c-0.3,0-0.5,0.1-0.8,0.1l-0.6,0.1l0,0.6c-0.2,3,0.1,6,0.9,8.9c-1.9,1.9-10.7,11.3-12.8,23.9c-2.4,14.3,4.1,27.9,16,32.9
		c5.3,2.2,10,2.9,13.8,2.9c4.8,0,8.2-1.2,9.4-1.9c2.6-1.5,11.5-16.7,21.4-41.1C293.1,372.9,299.2,354.7,300.1,346z"/>
	<path class="st3" d="M305.7,346.2l-0.8-0.3l-0.2,0.8c-2,7.2-7.5,22.7-14,40.6l-0.7,1.9c-6.4,17.8-16,41.2-22.1,50.8l-0.4,0.7
		l0.7,0.4c5.4,3,7.5,3.5,8.4,3.5c0.3,0,0.5-0.1,0.6-0.1c1.7-0.5,4.4-5,12.6-25.2c5.3-13,8-24.3,8.2-33.7c0-2.7,0.1-4.8,0.1-6.4
		c0-1.6,0-2.9,0.1-3.5c0.5,0,1.2,0,1.8,0c2.3,0.1,3.7,0.1,4.3-0.2c1.8-0.8,4.5-10.6,5.4-14.3c1.7-7,1.9-9.8,0.8-11.9
		C309.8,348.3,308.2,347.2,305.7,346.2z"/>
	<path class="st1" d="M233.9,346.4l0.4,0.3l1.5-0.9c7.5-4.5,14.8-9.1,21.5-16.8c1.4-1.6,2.8-3.3,4.2-4.9l0.4-0.5l-0.5-0.5
		c-3.9-3.7-7.2-6.8-8.2-7.7c1.1-4.5,1.5-8,1.6-10.3l0.1-0.9l-0.9,0c-12.2,0.6-25.1-1.6-37.3-6.3l-0.7-0.3l-0.3,0.7
		c-1.6,4.3-5,15.3-3,23.8C215.4,333,229.4,343,233.9,346.4z"/>
	<path class="st4" d="M207.6,294.6l0.2-0.6l-0.6-0.3c-4.2-2.1-8.2-4.5-12.1-7.2l-0.7-0.5l-0.4,0.7c-3.6,6.4-9.1,12.4-13,16
		c-2,1.8-3.7,3.1-4.9,3.8c1.8-1.9,6.6-7.2,10.1-12c2.4-3.3,4.6-6.8,6-9.2l0.3-0.6l-0.6-0.4c-2.9-2.1-5.6-4.4-8.2-6.8l-0.8-0.7
		l-0.4,1c-4.3,10.6-8.6,21.3-12.8,31.9l-0.2,0.5l0.5,0.3c4.7,3.5,9.3,6.2,14.2,8.4c7.7,3.4,15.2,5.3,22.8,5.8l1,0.1l-0.2-1
		c-0.5-2.3-0.7-4.9-0.6-7.6l0.1-2.6l-1.5,2.1c-1.2,1.7-2.4,2.9-3.3,3.6l0.1-0.2c0.8-1.2,1.8-2.8,3-4.9c0.9-1.6,1.7-3.4,2.5-5.4
		c0.7-3.2,1.5-5.3,1.5-5.3l0.2-0.5l-0.4-0.3C209.5,302.8,206,299.4,207.6,294.6z"/>
	<path class="st1" d="M162.2,359.3c7.7-17.5-0.3-39.2-1.4-42c6-14.4,12.3-28.9,18.6-43.4l0.2-0.5l-0.4-0.4
		c-4.3-4.3-8.2-9.1-11.6-14.1c-2.8-4-5.3-8.2-7.6-12.5l-0.6-1.2l-0.7,1.1c-12.4,19.7-24,48.8-25,51.3c-1.4,1.3-12.7,12.2-15.3,30
		c-2.6,17.8,1.7,28.1,2.3,29.6c0.3,17.8,10.7,23.7,15.2,25.4l2.6,1l-1.8-2.2c-5.1-6.4-6.2-12.2-6.2-13.4c0-0.6,0.1-1,0.1-1.3
		c0.1,0.1,0.2,0.3,0.4,0.6l0.5,0.8c1.7,2.7,5.1,8.4,10.6,13c4.4,3.8,8.9,5.5,11.8,6.3l3.5,0.9l-2.8-2.3c-2.5-2-4.5-4.2-5.9-6.5
		c-4.1-6.8-4.7-11.6-4.6-13.1c0.4,0.5,1,1.4,1.6,2.4c1.5,2.4,3.8,6,7.5,10.1c5.4,6.1,10.6,8.4,13.5,8.5c1,0,1.7-0.2,2.2-0.7
		c1.6-1.6,0.7-6.3-1.5-14.5C166,366.2,163,360.8,162.2,359.3z"/>
	<path class="st4" d="M154.5,236.3l0.5-0.3l-0.2-0.6c-3.6-9-5.7-18.1-6.3-26.9l-0.1-1.2l-1,0.6c-1.7,0.9-4.2,2-7.5,3.1
		c-6.7,2.3-10.6,2.2-11.9,1.9c1-0.8,3.7-2.2,6.3-3.6l0.7-0.4l-0.4-0.7c-0.8-1.3-1.7-2.7-2.5-4l-0.4-0.6l-0.6,0.3c-2.9,1.6-8,5-9.9,9
		c-1.4,3.1-1.7,6-0.7,8.5c1,2.7,3.4,4.8,7,6.2c4.6,1.9,8.8,1.4,11.4,1.1c0.7-0.1,1.5-0.2,1.9-0.2c-0.5,1.1-3.8,4.5-9.6,5l-0.7,0.1
		l0,0.7c0,6.3,0.8,22.5,7.6,37.3l0.7,1.5l0.7-1.5c6-12.6,11.5-21.1,11.6-21.2l0.2-0.3l-0.5-1.3l-0.7,0.3c-6.1,2.7-10.4,3.6-12.4,3.8
		c0.9-0.5,2.4-1.2,3.4-1.6l1.3-0.6c2.2-1,3.7-1.7,7.5-3.9l0.4-0.3l-0.1-0.5c-0.3-1.7-0.2-3.4,0.2-4.9
		C150.8,239,152.9,237.3,154.5,236.3z"/>
	<path class="st1" d="M138.9,205.9l0.4,0.6l1.1-0.6c2.6-1.5,5.2-3.1,7.7-4.7l0.3-0.2l0-0.4c0.2-3.8,0.6-7.6,1.4-11.1
		c1.6-7.6,6.5-20.6,21.5-21.6c1.3-0.1,2.5,0,3.8,0.2l0.6,0.1l0.2-0.5c4-8.3,16.1-37.3,6.2-62.8c-9.5-24.3-31.9-26-36.3-26.2
		c-0.1-3.8-1.2-20.3-10.8-30.2l-1.2-1.2l-0.1,1.7c-1.1,14.6-4.6,25.6-6,29.7l-0.3,0.9l1,0.1c4.5,0.3,6.5,1.9,7.1,2.6
		c-0.6,0.1-1.5,0.3-2.5,0.4c-4.5,0.7-12.8,2-23.1,6.7c-6.9,3.1-11.3,6.1-14,7.8L95,97.7c-0.3,0.2-0.5,0.4-0.8,0.5
		c-0.4,0.3-1,0.7-1.3,0.8c0-0.7,0.3-2.2,1.9-4.1l0.6-0.7l-0.3-0.5c-2.1-2.9-7.2-11-10.4-22.6l-0.1-0.3l-0.2-0.2
		c-5.4-3.8-14.1-8.4-25.6-8.9C41,61.1,26.6,69.5,16.1,86.9c-8.9,14.7-11.2,32.9-6.5,52.6c4.5,18.9,12.8,28.3,24.7,37.3
		C47.7,186.9,66,190.5,68,189.4c0.8-0.4,1.2-1.6,1.8-3.7c1.2-3.9,3.3-10.4,9.8-17.9c9.7-11.1,21-13.4,23-13
		c1.9,0.4,5.2,6.5,7.3,12.2c1.9,5.1,2.9,11,2.7,11.8c-0.3,0.3-2.4,0.9-4.5,1.5c-2.5,0.7-6,1.7-9.9,3.2c-12.6,4.7-12.6,5.4-12.6,6.2
		c0,0.4,0.2,0.7,0.7,1.2c0.6,0.6,6.5,5.6,22.3,4.5c13.1-0.9,18.7-2.8,20.5-3.5C130.5,193.8,135.8,201,138.9,205.9z"/>
	<path class="st2" d="M94.2,179.9l0.3,0.5l0.6-0.2c3.8-1.5,7.7-2.9,11.6-4.2l0.6-0.2l-0.1-0.6c0-0.3-1-8-7-14.4l-0.3-0.3l-0.4,0.1
		c-0.3,0.1-7.5,1.8-13.8,7.5l-0.6,0.5l0.6,0.6C87.6,171.2,91.3,175.2,94.2,179.9z"/>
	<path class="st0" d="M98,90.4l0.5,0.8l0.7-0.6c5.5-4.9,12.3-8.3,19.7-10c0.7-0.1,1.3-0.3,2-0.4l0.4-0.1l0.2-0.4
		c2.1-4.6,5.8-14.5,7-28.5c1.1-13.5-0.3-32.2-8.2-40.5c-2.8-2.9-6.1-4.4-10-4.3c-4.7,0.1-8.8,2.1-12.2,5.8
		c-9,9.7-11.4,28.5-10.7,42.9C88.1,73.1,95.1,85.8,98,90.4z"/>
	<path class="st2" d="M180.9,207.9l0.1,0.6l0.6,0c11.7,1,15,3.4,15.9,4.3c-0.7-0.1-1.9-0.3-2.9-0.4c-1.7-0.3-3.8-0.7-5.8-0.8
		c-2-0.2-4.1-0.3-6.1-0.4l-1,0l0.3,1c1.8,7,4.6,13.7,8,19.5c0.7,1.2,1.5,2.4,2.4,3.7l1,1.4l0.4-1.7c0.5-2.3,1.1-4.8,1.7-7.3
		c1.2-4.8,2.9-9,3.9-10.5c0.1,3.1-1.3,13.7-3.7,21.7l-0.1,0.4l0.3,0.3c8.4,10,20.8,18.4,34.9,23.6l0.3,0.1l0.3-0.2
		c2.4-1.4,4.8-2.9,7.1-4.4c2.9-1.9,8.1-5.3,10.6-5.3l0.1,0l0.5,0c-0.2,0.3-0.8,1.1-3,2.5c-2.3,1.5-4.2,2.8-5.7,3.9
		c-2.3,1.6-4,2.8-5.4,3.6l-1.5,0.9l1.7,0.5c2.5,0.8,4.9,1.4,7.3,1.9c4.6,1,9.1,1.5,13.4,1.5c1.6,0,3.1-0.1,4.6-0.2l1.3-0.1l-0.7-1.1
		c-1.4-2.1-2.9-4.2-4.4-6.2c-1.9-2.4-3.8-4.6-5.1-6.1c-0.5-0.6-0.9-1-1.1-1.3l-0.7-0.9l-0.1,0.3l-0.1-0.3c-0.1-0.2-0.1-0.7,0-1.2
		c1-6.1,1.8-21.7,1.8-22.4l0-0.3l-0.2-0.2c-8.6-10.4-18.1-17.8-20.7-19.5c-1.4-0.9-2.2-1.7-2.5-2.2c0.3,0,0.9,0,1.4,0.2
		c2.3,0.6,5.8,2.8,11.2,6.8c7.1,5.3,12.6,13.5,12.9,14.1c0.4,1.6-0.6,23-1.1,24.6l-0.3,0.6l0.5,0.4c1.2,0.9,4.9,4.2,11.9,13.9
		l0.3,0.4l0.5-0.1c6.2-1.2,11.1-3.6,12.6-6.2c3.3-5.8,4.4-14.5,3.2-25.9c-0.3-2.5-0.7-5.1-1.2-7.6l-0.1-0.6l-0.6,0
		c-3.5-0.3-7-0.3-10.5,0c-3.1,0.2-5.8,0.5-8,0.8c-2.2,0.2-4.2,0.5-4.6,0.4c0,0,0-0.4,1.1-1.2c1.3-0.9,14.8-3.4,20.9-2.5l1.1,0.2
		l-0.3-1.1c-2.4-9.6-6-18.4-10.1-24l-0.3-0.5l-0.5,0.2c-2.6,0.9-5.3,1.7-8.1,2.2c-11.3,2.2-21.8,1.7-30.4-1.3l-0.7-0.3l-0.2,0.7
		c-1.4,4.3-3.3,4.3-3.3,4.3l-0.3,0l-0.2,0.2c-0.5,0.4-2.4,0.9-4.6,1.5c-2.5,0.7-5.6,1.5-9,2.7c-2.7,0.9-4.8,1.8-6.4,2.4
		c-1.9,0.8-3.7,1.4-4.1,1.5l-0.1-0.9c0.3-0.6,4.1-3.5,12.1-6.3c7.5-2.7,11.3-1.9,11.3-1.9l1.1,0.3l-0.2-1.1
		c-0.1-0.9,0.1-2.3,0.7-3.9l0.2-0.6l-0.6-0.3c-9.3-4.7-15.3-12.7-17.3-23.1l-0.1-0.7l-0.7,0.1c-11.1,1.1-18.9,3.5-23.1,7.2
		C179.6,186.1,178.4,195.7,180.9,207.9z"/>
	<path class="st0" d="M246,198.4c1.7,0,3.6-0.1,5.5-0.3c27.3-2.6,29.1-14.8,29.2-16.2c0.1-1.6-0.6-2.9-2-3.8l-0.2-0.1l-0.3,0
		c-3.3,0.4-5.5,0.3-6.6,0.1c0.7-0.3,1.7-0.6,2.7-1c4-1.4,10.7-3.8,19.1-8.5c13.8-7.6,20.6-15,19.9-21.3c-0.6-5-7.5-5.1-11.2-5.2
		c-0.4,0-0.8,0-1.2,0c0.4-0.3,0.9-0.6,1.5-1c2-1.3,5.3-3.6,10.8-7.7c14.8-11,21.6-22.1,18.2-29.5c-2.4-5.3-11.4-5.5-16.5-5.2
		l-0.3,0.1c-4.4,2.3-7.3,2.9-8.6,2.9c0.7-0.6,1.8-1.6,3-2.6c3.7-3.2,9.4-7.9,14-12.9c7.6-8.1,14.2-16.8,11.6-25.1
		c-0.5-1.7-1.8-3-3.7-4c-7.7-3.8-25.2-1.2-37.9,3.3c-9,3.2-39.9,15.9-61.9,47.4c-14.5,20.8-20.5,43-17.4,64.2
		C214.6,178.4,219.7,198.4,246,198.4z"/>
	<path d="M372.5,126c-0.1-5.6-9-9.8-18.9-10.2c-6.7-0.3-13.6,0.3-17.5,0.7c-0.4,0.8-0.8,1.6-1.2,2.4c-5.5,9.5-21.7,20.9-21.7,20.9
		s5.1,1.1,5.7,7.2c0.5,5.7-4.8,16.1-20.9,24.9c-4.4,2.4-8.6,4.1-12.2,5.2c1,1.6,1.7,4.2,0.6,7.5c-1.4,4.3-5.1,9.5-12.8,13.4
		c1.5,1.9,2.9,3.9,4.1,6c0.3,0.5,0.5,0.9,0.8,1.4c10,1.1,14.3-1.3,15.3-3.4c0.5-1,0.2-1.8-0.2-2.5c-3.5-1.2-5.3-3.1-4.9-3.7
		c0.6-0.8,6.9,0,16.3-0.8c9.4-0.8,19-3.9,19.6-7.8c0.5-4-6.9-6.3-6.6-7.2c0.3-0.8,5.2-0.3,17.5-4c12.3-3.7,15-7.8,15.3-12.9
		c0.2-3.8-4.7-6.2-7.4-7.2c-3.7,0.5-6,0.2-6-0.1c0-0.8,4.5-2.2,16.7-9.1C366.2,139.9,372.7,131.7,372.5,126 M257.2,273.6
		c-15.4,0.7-37.8-6.4-52.9-18.7c-13.6-11.1-23-23.8-27-42.2c-3-13.5-2.3-23.7,1.1-31.2c0.6-1.4,1.6-2.6,2.9-3.8
		c-3-2-7.9-4.2-14.1-2.4c-11.3,3.3-14.2,18.9-13.4,30.4c1.1,16.1,7.5,41.1,29.6,63.3c20.8,20.9,43.4,29.4,64.7,29.9
		c24.8,0.6,41.8-10.5,42.1-24.9c0.1-6.5-3.2-10.3-6-12.3C280.8,268.7,274.6,272.8,257.2,273.6 M290.1,291.6
		c-5.3,5.7-14.1,10.5-28.2,12.6c-0.2,0-0.4,0.1-0.6,0.1c-0.1,1-0.3,2-0.4,3c3.8-1.2,11.8-2.8,18.1,1.7c0.4,0.3,0.8,0.6,1.2,0.9
		c11.5-2.3,21.6-8.9,25.7-12.9c4.4-4.3,1.4-4.7-1.7-4.7C301.6,292.3,296.9,292.4,290.1,291.6 M283.5,328.6c-0.5,1.3-1.1,2.6-1.7,3.9
		c-3.7,6.9-8,9.1-9,9.1c-1,0-0.7-0.7,1.9-5.4c2.6-4.7,6.3-15.5,0-21.5c-5-4.7-11.8-1.8-14.4-0.4c1.6,1.3,3.1,2.7,4.7,4.1
		c1.4-1.7,2.2-2.5,2.5-2.1c0.7,0.8,0.6,5.2-3,11.7c-4,7.2-11.7,14.2-24,20.5c-11.3,5.8-16.2,5.6-17.2,5c-0.4-0.3-0.2-0.8,1.1-1.7
		c1.3-0.9,2.6-1.7,4-2.5c-2.5-1.7-4.9-3.5-7.3-5.5c-2.2,4-6,13.1,0.4,19.2c8.4,8,24,2.2,25.8,1.5c1.8-0.7,5.2-1.8,2.5,1.2
		c-1.6,1.8-6.7,5.9-14.2,7.3c-0.3,0-0.5,0.1-0.8,0.1c-0.2,3.1,0.1,6.1,1,9.1c0,0-10.6,10-12.9,23.8c-2.3,13.8,3.9,27.1,15.6,32
		c11.7,5,20.4,2.3,22.5,1.1c2.1-1.2,10.6-15,21.1-40.7c10.5-25.7,16.5-43.9,17.5-52.5c1-8.7-3.7-13.9-7.7-16
		C289.1,328.7,285.7,328.5,283.5,328.6 M290.7,389.5c-6,16.6-15.8,40.9-22.1,51c2.2,1.2,7,3.8,8.4,3.3c1.8-0.6,6.1-9.8,12.1-24.8
		c6.1-15,8-25.9,8.1-33.4c0.1-7.6,0-10.3,0.3-10.6c0.3-0.3,5.5,0.3,6.5-0.1c1-0.4,3.3-6.9,5-13.8c1.7-6.9,1.8-9.5,0.8-11.4
		c-0.6-1.3-2.9-2.3-4.3-2.8C303.3,354.4,297.5,370.7,290.7,389.5 M234.4,345.7l1.1-0.6c7.2-4.3,14.6-8.9,21.4-16.6
		c1.4-1.6,2.8-3.3,4.1-4.9c-4.7-4.6-8.6-8-8.6-8c1.2-4.8,1.6-8.5,1.7-10.6c-12.6,0.6-25.4-1.6-37.6-6.3c-1.5,4.1-4.9,15-2.9,23.4
		C215.8,331.7,227.4,340.7,234.4,345.7 M209,303.4c0,0-3.9-3.7-2.2-9.1c-4.2-2.1-8.3-4.5-12.2-7.2c-3.7,6.4-9.1,12.5-13.2,16.2
		c-4.3,3.9-7.4,5.5-7.9,5c-0.2-0.2,0.3-0.5,1.4-1.7c1.2-1.1,6.7-7.2,10.6-12.5c2.5-3.4,4.7-7,6-9.1c-2.9-2.1-5.6-4.4-8.3-6.8
		c-4.3,10.6-8.6,21.2-12.8,31.9c4.8,3.6,9.4,6.2,14.1,8.3c7.3,3.2,14.7,5.2,22.5,5.8c-0.6-2.6-0.7-5.3-0.6-7.8
		c-2.6,3.6-5.1,5.2-5.5,5c-0.6-0.4,1.5-2.5,4-7.2c1-1.9,1.8-3.7,2.5-5.2C208.2,305.5,209,303.4,209,303.4 M178.7,273.7
		c-4.3-4.4-8.2-9.1-11.7-14.2c-2.8-4-5.3-8.2-7.6-12.6c-13,20.7-25,51.3-25,51.3s-12.4,10.9-15.2,29.7c-2.8,18.8,2.3,29.3,2.3,29.3
		c0.2,17.2,10,23,14.7,24.8c-5.2-6.5-6.3-12.4-6.3-13.8c0-1.9,0.6-3.3,1.9-1.1c1.4,2.2,4.9,8.6,10.9,13.6c4.4,3.7,8.7,5.4,11.5,6.1
		c-2.3-1.9-4.5-4.1-6-6.7c-5.1-8.4-5.2-14.4-4.1-14.6c1.1-0.1,3.3,5.5,9.9,13.1c6.6,7.6,13.2,9.2,14.6,7.8c1.4-1.4,0.3-6.6-1.7-13.8
		c-1.9-7.2-5.6-13.3-5.6-13.3c8.4-18.6-1.4-42.1-1.4-42.1C166.1,302.7,172.3,288.2,178.7,273.7 M138.7,271.3
		c6.1-12.8,11.6-21.3,11.6-21.3l-0.1-0.2c-9.2,4-14.2,4.2-14.3,3.8c-0.2-0.7,1.4-1.5,4.7-3c3.1-1.4,4.3-1.8,8.7-4.4
		c-0.2-1.5-0.3-3.3,0.2-5.2c0.6-2.6,2.8-4.4,4.6-5.5c-4.1-10.3-5.8-19.5-6.4-27.2c-1.3,0.7-3.6,1.8-7.6,3.1
		c-8.4,2.9-13,2.2-13.2,1.3c-0.1-0.6,3-2.3,7-4.4c-0.8-1.3-1.6-2.6-2.5-3.9c-2.8,1.6-7.8,4.8-9.6,8.7c-2.6,5.5-1.3,10.8,5.9,13.8
		c7.2,2.9,13.4-0.2,13.8,1.3c0.3,1.1-3.5,5.5-10.3,6.1C131.1,239.9,131.8,256.5,138.7,271.3 M129.3,190.9c0,0,6.5,8.8,10.2,14.6
		l0.5-0.3c2.6-1.5,5.1-3,7.6-4.7c0.2-4.7,0.8-8.5,1.4-11.3c2.3-10.8,8.6-21.3,22.2-22.2c1.3-0.1,2.7,0,4,0.2
		c4.2-8.8,15.9-37.1,6.1-62.1c-10.4-26.7-36.4-25.7-36.4-25.7s0-19.5-10.6-30.4c-1.1,14.5-4.5,25.4-6.1,29.9c5.8,0.4,8,2.9,8,3.7
		c0,1.1-11,0.6-26.3,7.5c-7.5,3.4-12.1,6.6-14.6,8.3c-1.2,0.8-2.4,1.7-2.9,1.6c-0.6-0.2-0.7-2.6,1.7-5.5l0.3-0.3
		c-2.1-3-7.3-11.1-10.5-22.9c-5.2-3.7-13.9-8.3-25.2-8.7c-19.1-0.7-32.5,9-42.1,24.8c-9.6,15.8-10.6,34.2-6.4,52.1
		c4.4,18.7,12.6,28,24.4,36.9c13.4,10.1,31.2,13.4,32.9,12.5c1.7-0.9,1.7-10.3,11.4-21.5c9.7-11.2,21.1-13.8,23.7-13.2
		c2.6,0.5,6.1,7.7,7.9,12.7c1.8,5,3.1,11.6,2.6,12.5c-0.6,0.9-6.8,2-14.7,5c-7.9,2.9-12.1,4.8-12.1,5.5c0,0.7,6.2,6.1,22.2,5
		C124.6,193.5,129.3,190.9,129.3,190.9 M94.9,179.5c3.8-1.5,7.7-2.9,11.7-4.2c0,0-0.9-7.7-6.8-13.9c0,0-7.3,1.7-13.5,7.4
		C88.4,170.8,92,174.8,94.9,179.5 M88,55c0.9,18.1,8.1,30.9,10.6,34.9c5.9-5.3,12.9-8.6,20-10.2c0.7-0.2,1.4-0.3,2-0.4
		c2-4.4,5.8-14.2,7-28.2c1.5-17.5-1.6-44.4-17.5-44C93.6,7.6,86.9,32.7,88,55 M256.4,261.4c-2.6-3.3-5.4-6.4-6.3-7.4
		c-0.3,0.5-1.1,1.4-3.3,2.9c-5.7,3.8-8.8,6.1-11.1,7.5c2.4,0.7,4.8,1.4,7.2,1.9c6.8,1.5,12.8,1.7,17.8,1.3
		C259.5,265.4,258,263.4,256.4,261.4 M181.6,207.8c15.1,1.2,17,5,16.9,5.7c-0.2,0.7-5.2-0.7-9.8-1.1c-2-0.2-4-0.3-6.1-0.4
		c1.7,6.6,4.4,13.4,7.9,19.3c0.7,1.2,1.5,2.5,2.4,3.6c0.4-1.7,0.9-4.3,1.7-7.3c1.5-5.9,4-11.9,5.1-11.6c1,0.3-0.6,14-3.5,23.2
		c8.9,10.6,21.6,18.6,34.6,23.4c2.4-1.4,4.7-2.9,7.1-4.4c3.7-2.4,8.7-5.6,11.2-5.4c-0.2-0.4-0.2-0.9-0.1-1.6
		c1-6.2,1.8-22.3,1.8-22.3c-8.5-10.4-18-17.7-20.5-19.4c-2-1.4-3.2-2.8-2.9-3.3c0.2-0.4,1.6-0.3,2.4-0.1c2.5,0.7,6.3,3.1,11.5,7
		c7,5.2,12.6,13.4,13.1,14.5c0.6,1.1-0.5,24-1.2,25.2c1.4,1.1,5.1,4.4,12.1,14.1c6.7-1.3,10.9-3.8,12.1-5.8c2.1-3.7,4.6-11,3.1-25.5
		c-0.3-2.5-0.6-5-1.1-7.5c-3.5-0.3-7-0.3-10.4,0c-7.2,0.5-12.5,1.5-13,1.1c-0.6-0.5-0.7-1.1,1.1-2.4c1.6-1.2,15.5-3.5,21.5-2.7
		c-2.1-8.7-5.6-17.7-10-23.8c-2.7,0.9-5.4,1.7-8.2,2.2c-11.9,2.3-22.3,1.7-30.8-1.4c-1.7,5-4.1,4.8-4.1,4.8c-1.1,1-6.8,1.8-13.9,4.3
		c-7.1,2.5-10.4,4.3-11.2,3.8c-0.5-0.3-0.5-1.4-0.3-1.8c0.5-0.8,4.6-3.9,12.5-6.7c7.9-2.8,11.8-1.9,11.8-1.9
		c-0.2-1.3,0.4-3.2,0.8-4.3c-9.4-4.7-15.7-12.9-17.7-23.6c-10.3,1-18.4,3.3-22.6,7C180.1,186.7,179.4,196.7,181.6,207.8
		 M214.4,171.8c2,13.6,12.1,28,37.1,25.6c25-2.4,28.3-12.8,28.5-15.5c0.1-1.6-0.7-2.5-1.7-3.1c-5.2,0.7-8.3,0-8.3-0.5
		c0-1.1,9.4-2.7,23-10.3c13.6-7.5,20.2-14.7,19.5-20.5c-0.7-5.9-12.1-4-12.9-4.8c-0.7-0.7,0.7-0.7,13-9.9
		c14.5-10.8,21.1-21.6,18-28.6c-2.2-4.8-10.7-5.1-15.8-4.8c-7,3.7-10.6,3.2-10.3,2.6c0.4-0.9,10.5-8.4,17.8-16.3s14-16.3,11.4-24.4
		c-2.6-8.1-24.4-5.9-40.6-0.2c-16.2,5.7-42.6,20-61.5,47.1C212.7,135.3,212.4,158.2,214.4,171.8 M365.2,147.2
		c-4.1,2.9-8.7,5.2-13.5,6.8c11.3,6.9,5.5,18.8-3.9,23.4c-9.8,4.8-18.5,6.1-18.5,6.1c2.3,4.1,1.2,8.3-4.5,12.2
		c-5.7,4-16.1,5.2-25.5,4.8c1.8,4.7-1.9,8.4-7.8,10.3c-3.5,1.1-7.3,1.1-10,0.9c6.1,15,7,33,5,42.4c3.4,2.2,7.8,6.2,9.4,12.5
		c1.4,5.4,1.6,12.3-1.5,18.7c11.7,1.8,19.1,0.1,21.4,2.6c2.5,2.8,0.6,9.9-10.1,17.7c-7.8,5.7-16.9,9.6-21.2,11.2
		c0.4,1.6,0.5,3.3,0.4,5c3.4,0.1,9.3,0.9,13.7,4.3c4.9,3.8,7.1,8.2,7.6,12.7c2.8,1.4,8.5,4.6,9.8,7.9c2.4,5.9-1.1,18.7-2.8,24.5
		c-1.7,5.8-3.3,9.5-3.7,10c-0.4,0.6-5.9-0.5-6.7,0c-0.7,0.4,0.1,8-1.9,21.3c-2.1,13.3-8.7,30.1-12.7,37.4c-4,7.3-5.6,10.9-8.7,11.6
		c-3.3,0.7-11.3-1.6-17-5.5c-5.1,2-16,4.1-28.7-1.4c-17.5-7.6-23-27-18.3-42.5c4.7-15.6,12.7-21,12.7-21s-0.5-3.4,0-7.7
		c-3.7-0.3-7.5-1.5-11-4.1c-12.1-9.3-4.9-25.2-1.6-30.8c-2.1-2.2-4-4.7-5.5-7.2c-4.6-0.3-13.6-1.4-24.1-5.2c-5.5-2-11.6-5.1-18-9.4
		l-0.8,2.1c10.1,30,1.7,41.5,1.7,41.5c5.6,8.7,6.6,21.5,6.7,27.1c0.1,5.6-3.2,7-7.2,6.5c-1.4-0.2-3.6-0.9-6-2
		c-3.9,1.3-11.9,2.5-19.5-3.3c-4.3,0.6-11.4,0.4-17.6-5.4c-9.8-9.1-10.5-24.9-10.5-24.9s-6.1-14.2-2.6-31.2
		c4.4-21.8,17.5-33.1,17.5-33.1c1.5-4.5,3.1-8.9,4.9-13.3c-10-18.9-10.6-39.1-10.2-46.7c-0.7-0.2-1.4-0.4-2-0.6
		c-5-1.7-8.2-5.6-9.4-9.7c-1.3-4.8,0-9.9,2.2-13.6c3.4-5.7,8.7-8.9,12.4-10.8l-0.9-1.2c0,0-7,3.5-23.1,3.3
		c-16.2-0.2-22.2-5.7-24.1-7.2c-1.8-1.5-2.4-3.7-2.2-4.4c0.1-0.5,1.4-3.2,11.6-7.8c-2.1-3-4.5-5.6-7.3-7.9
		c-5.6,8.3-7.7,18.2-8.9,19.5c-1.3,1.5-11.6,3.5-28.1-4c-16.7-7.6-34-20.7-40.8-42.9c-6.8-22.2-5.1-48.4,9-68.9
		C26.2,58.4,55.8,46.3,82.1,62c-0.4-2.4-0.6-4.9-0.7-7.4C79.9,18.2,93.4-0.1,110.8,0c16,0.1,23.6,18.5,23.9,39.1
		c5.1,4.5,15.6,15.8,17.4,35.2c0,0,24.7,1,35.6,26.6c11.5,27-1.2,58.5-5.9,68.6c2.1,1.1,4,2.5,5.8,4.1c5-2.3,11.5-3.9,18.9-4.7
		c-1.5-26.9,8.9-67.8,53.8-98.1c26.7-18,47.6-22.6,61.4-22.2c9.9,0.3,14.8,2.3,18.1,5.2c3.2,3,3.5,9.9,2.1,14.9
		c-2.1,7.2-6.6,15.5-15.2,22.6c-1.2,1-2.3,1.9-3.4,2.7c5.8-1,10.8,1.6,12.8,4.3c1.6,2.1,3,6.3,2.2,11.7c3.5-0.5,8.9-0.9,15.9-0.6
		c14.7,0.6,23.9,6.2,25.6,13.2C381.2,128.6,379.1,137.3,365.2,147.2"/>
	<path d="M40.9,89.8c-3.2,5-9.1,7.2-10,6.9c-0.9-0.3,0.7-1.5,3.1-3.9c2.7-2.6,3.4-5.6,2.5-6.7c-0.9-1-4.1,1-7.8,6.3
		c-4.2,6-4.5,8.9-5.7,9.2c-1.5,0.4,0.6-9.7,5-15.9c4.6-6.4,10.3-7.1,13-5.7C43.8,81.5,43.2,86.1,40.9,89.8"/>
	<path d="M95.6,58.6c0,2.1,1,4.1,2.2,4c1.2-0.1,1.8-1.8,1.8-4.3s-0.7-4-2.2-4C96,54.4,95.6,56.6,95.6,58.6 M92,61.8
		c-0.6-9.5,2.2-14.9,5.8-15c4-0.2,7.4,6.1,7.4,15.3c0,9.2-2.2,13.1-5.4,13.5C96.7,76,92.6,71.3,92,61.8"/>
	<path class="st5" d="M254.1,112.3c0.5,0.4-3.1,4.9-7.8,14.7c-4.7,9.8-10,22.2-10.2,32.9c-0.2,10.7,2.9,14.3,4.7,16.4
		c1.9,2.3,2.9,2.2,2.8,2.8c-0.1,0.6-9.5,1.3-12.5-10.8c-3-12.1,3-26.3,8.4-37C244.9,120.6,253.2,111.6,254.1,112.3"/>
</g>
</svg>