<?xml version="1.0" encoding="utf-8"?>
<svg version="1.1" id="Luigi" xmlns="http://www.w3.org/2000/svg" xmlns:xlink="http://www.w3.org/1999/xlink" x="0px" y="0px"
	 viewBox="0 0 571 870.2" style="enable-background:new 0 0 571 870.2;" xml:space="preserve">
<style type="text/css">
	.st0{fill:#D8A775;}
	.st1{fill:#67433A;}
	.st2{fill:#2D5292;}
	.st3{fill:#0DB04B;}
	.st4{fill:#FFD300;}
	.st5{fill:#FFFFFF;}
	.st6{fill:#874C2F;}
	.st7{fill:#FCD0AF;}
	.st8{fill:#EC1C24;}
	.st9{fill:#2BC2E8;}
	.st10{fill:#0B0204;}
</style>
<g>
	<polygon class="st0" points="69.8,701.6 45.1,685.8 19.9,660.2 9.2,638.4 9.6,622.2 16.9,611.9 29.7,604.2 48.9,602.1 73.2,607.2 
		95,620.9 112.5,640.5 123.6,658.9 132.6,678.5 135.6,688.4 146.7,702 151.4,715.3 148.4,733.2 136.4,737 120.6,736.2 98,727.6 
		82.2,716.1 	"/>
	<polygon class="st0" points="9.6,622.2 5.3,618.3 11.3,594.4 30.1,584.6 54,581.6 78.8,586.3 101.4,599.5 118.9,619.2 134.3,644.4 
		143.3,662.3 149.2,676.4 156.9,684.1 163.8,698.2 165,714 148.4,733.2 151.4,715.3 146.7,702 135.6,688.4 132.6,678.5 123.6,658.9 
		112.5,640.5 95,620.9 73.2,607.2 48.9,602.1 29.7,604.2 16.9,611.9 	"/>
	<polygon class="st1" points="11.3,594.4 12.1,574.3 27.1,550.3 55.9,532.4 88,530.5 116.2,539.8 144.7,568.3 164.5,610.5 
		175.1,644.8 186,667.5 193.7,674.3 187.3,700.2 165,714 163.8,698.2 156.9,684.1 149.2,676.4 142.6,660.6 134.3,644.4 118.9,619.2 
		101.4,599.5 78.8,586.3 54,581.6 30.1,584.6 	"/>
	<polygon class="st2" points="116.2,539.8 137.3,532.7 135.4,505.8 141.1,457.8 146.3,461 156.5,461.6 168,454.6 176.4,439.2 
		192.4,400.1 236.6,408.5 227,427.7 222.5,449.4 225.7,468 236.6,480.2 254.5,484 269.2,478.9 279.5,464.2 283.3,445.6 284.6,434.1 
		308.9,466.7 327.5,455.9 325.6,475.7 333.9,498.1 340.3,525 338.4,554.5 330.7,580.1 312.8,603.2 287.2,619.8 256.4,627.5 
		222.5,625.6 210.3,644.8 205.8,666.6 193.7,674.3 186,667.5 175.1,644.8 164.5,610.5 144.7,568.3 	"/>
	<polygon class="st2" points="210.3,644.8 257.7,709.5 295.5,751.8 299.3,766.5 310.9,778 332,780 355.7,767.8 372.4,747.9 
		382.6,705 374.9,669.8 366,664.7 354.4,665.9 312.8,603.2 287.2,619.8 256.4,627.5 222.5,625.6 	"/>
	<polygon class="st1" points="310.9,778 309.6,804.3 319.2,835 340.3,858.1 370.4,865.1 401.2,851.7 414.6,826.1 418.5,797.2 
		415.3,767.1 408.9,740.2 410.2,711.4 403.7,681.3 392.2,671.1 374.9,669.8 382.6,705 372.4,747.9 355.7,767.8 332,779.9 	"/>
	<polygon class="st0" points="403.7,681.3 410.1,711.4 408.9,740.2 415.3,767.1 418.5,797.2 414.6,826.1 401.2,851.7 414,853.6 
		427.4,842.1 436.4,816.5 435.1,787 431.9,765.2 425.5,743.4 431.9,733.2 430,710.8 423.6,691.6 412.7,681.9 	"/>
	<polygon class="st2" points="141.1,457.8 137.9,446.2 139.2,439.8 145,446.2 150.1,448.8 157.8,446.2 165,437.3 170.6,421.1 
		170.2,409.1 165,403.5 159.9,401.4 179.1,378.8 198.8,365.5 222.7,354.9 221,360.4 207.3,376.2 192.4,400.1 176.4,439.2 168,454.6 
		156.5,461.6 146.3,461 	"/>
	<polygon class="st3" points="236.6,408.5 192.4,400.1 207.3,376.2 221,360.4 222.7,354.9 231.2,349.7 232.1,356.1 247.9,360.8 
		268,362.1 280.8,360 251.7,388.2 	"/>
	<path class="st2" d="M251.7,388.2l29-28.2l14.1-6.4l20.5,6.8l-6.8,6l-10.7,13.2l-7.5,22.4l-5.8,32l-1.3,11.5l-3.8,18.6l-10.3,14.7
		l-14.7,5.1l-17.9-3.8L225.7,468l-3.2-18.6l4.5-21.8l9.6-19.2L251.7,388.2z M239.1,466.1l9.6,3.5l13.1-2.9l9-12.2l2.6-15.1
		l-6.7-12.8l-11.9-5.1l-12.2,3.2l-7.4,9.6l-3.5,13.8l2.9,10.9L239.1,466.1z"/>
	<polygon class="st4" points="239.1,466.1 248.7,469.6 261.9,466.7 270.8,454.6 273.4,439.5 266.7,426.7 254.8,421.6 242.7,424.8 
		235.3,434.4 231.8,448.2 234.7,459.1 	"/>
	<polygon class="st4" points="139.2,439.8 145,446.2 150.1,448.8 157.8,446.2 165,437.3 170.6,421.1 170.2,409.1 165,403.5 
		159.9,401.4 150.4,406.2 143.1,415.8 139.2,425.7 	"/>
	<polygon class="st3" points="284.6,434.1 308.9,466.7 327.5,455.9 327.7,439 364.9,436 408,439 409.3,407.8 418.3,381.8 
		430.6,365.1 387.5,359.1 343.1,358.7 315.4,360.4 308.5,366.4 297.8,379.6 290.4,402.1 	"/>
	<polygon class="st5" points="430.6,365.1 418.3,381.8 409.3,407.8 408,439 414,452.3 428.1,458.7 440.2,479.5 461.4,494 479,492.7 
		487.3,487.6 512,495.9 534.7,488.8 544.7,467.1 556.8,459.1 561.6,429.6 567.1,405.9 558.4,387.3 551.7,369.7 527.4,354.3 
		502.1,351.4 477.7,356.3 462.7,362 452.1,357.9 	"/>
	<polygon class="st3" points="179.1,378.8 146.3,308.3 118.9,236.6 136,237 162.5,227.2 175.3,240 173.6,255.4 181.3,267.3 
		189.8,272 195.8,301.9 206.9,325.4 221,339.9 232.9,343.8 231.2,349.7 222.7,354.9 198.8,365.5 	"/>
	<polygon class="st5" points="118.9,236.6 136,237 162.5,227.2 157.4,211.4 160.3,191.7 170.6,176.4 179.6,170.8 189.4,169.1 
		204.3,141.4 189.4,124.7 178.3,98.7 178.3,75.6 154.8,59.8 130.9,59 103.6,68.3 75.4,89.3 60.4,112.8 54,139.7 57.9,169.5 
		74.5,193.5 84.8,202 97.1,207.5 97.6,220.8 105.3,231.5 	"/>
	<polygon class="st6" points="314.5,312.2 301.3,333.1 310.2,340.3 320,342.9 327.7,334.8 337.1,335.6 343.5,327.5 338.4,311.3 
		338.8,285.7 324.7,297.7 	"/>
	<path class="st7" d="M189.8,272l10.3-1.3l12-15l29,20.9l21.8-0.4l20.1-15.4L285,234l-23.1,6.4l-26-5.1l-24.3,9.8l-19.2,0.4
		l-17.1-5.6l-12.8-12.8l-5.1-15.8l3-19.6l10.3-15.4l9-5.6l9.8-1.7l13.7,2.6l9-23.1l13.7-23.9l12.8-10.2h12.4l37.6,10.2l18.4,7.7
		l12,23.1l15,8.1l18.8,1.7l4.3,11.5l-11.1,23.1l-13.2,12.4l-14.1,7.3l-4.3,6.4l1.7,9.8l6.4,6l10.7,3.8l9.4-4.3l12.4-13.2l7.7-7.7
		l9.8-6l18.8-0.8l10.7,9l5.6,11.1l-2.1,14.5l-10.2,22.6L382,283.1l-17.5,6l-25.6-3.4l-14.1,12l-10.3,14.5l-13.2,20.9l-6.4,20.5
		l-14.1,6.4l-11.5,2.1l-21.4-1.3l-15.8-4.7l-0.9-6.4l1.7-6l-12-3.8l-14.1-14.5l-11.1-23.5L189.8,272z M213.5,282.3l4.2,16l4.2,10.6
		l9,10.3l10.3,4.2l9-2.2l6.7-10.3l7-25v-7l-22.7,0.3l-7.4,1.9L213.5,282.3z M275.9,220.4l7.9-1.5l6.2-7.5l8.8-18.4l3-14.7l-0.2-14.5
		l-6.4-7l-13.4-1.5l-9.6,6.2l-8.3,13l-4.7,14.3l-1.1,14.9l2.8,9.2l5.8,4.7L275.9,220.4z"/>
	<polygon class="st5" points="213.5,282.3 233.7,281 241.1,279.1 263.8,278.8 263.8,285.8 247.8,291.9 228.2,296.7 217.7,298.3 	"/>
	<polygon class="st8" points="217.7,298.3 221.8,308.9 230.8,319.1 241,323.3 250,321 256.7,310.8 263.8,285.8 247.8,291.9 
		228.2,296.7 	"/>
	<polygon class="st6" points="314.1,225.9 318.3,219.5 332.4,212.2 345.7,199.9 356.8,176.8 372.1,214.4 362.3,220.4 348.7,234.9 
		342.3,241.3 332.9,245.5 322.2,241.7 315.8,235.7 	"/>
	<polygon class="st3" points="352.5,165.3 333.7,163.6 318.8,155.4 306.8,132.4 288.5,124.7 250.9,114.5 238.5,114.5 225.7,124.7 
		212.4,147.8 204.3,141.4 189.4,124.7 178.3,98.7 178.3,75.6 189.4,59 209.5,53 235.9,56.8 267.1,71.8 292.3,90.1 314.5,111 
		335.8,137.5 	"/>
	<polygon class="st3" points="235.9,56.8 253.5,65.2 257.7,46.1 266.2,33.3 281.6,26.5 300,27.3 312.4,35.9 318.8,47.8 320.5,61.1 
		316.6,82 302.2,99.4 314.5,111 335.8,137.5 352.5,165.3 356.8,176.8 372.1,214.4 390.9,213.5 401.6,222.5 407.2,233.6 425.9,216.1 
		432.4,187.1 422.5,163.1 396.5,148.2 388.4,95.7 370,51.7 334.6,14.5 294,4.3 256.9,19.2 243.6,34.6 	"/>
	<polygon class="st5" points="302.2,99.4 316.6,82 320.5,61.1 318.8,47.9 312.4,35.9 300,27.3 281.6,26.5 266.2,33.3 257.7,46.1 
		253.5,65.2 267.1,71.8 292.3,90.1 	"/>
	<polygon class="st7" points="219.6,178.5 232.7,191.6 239.8,173.4 243.3,161.9 243.6,150.3 240.1,144.2 233,142.6 224.1,148.1 
		218,158 212.5,175 	"/>
	<polygon class="st5" points="219.6,178.5 221.4,171.5 223.3,165.7 228,159.7 233.6,156.1 237.6,156.3 240.4,159.3 243.3,161.9 
		243.6,150.3 240.1,144.2 233,142.6 224.1,148.1 218,158 212.5,175 	"/>
	<polygon class="st9" points="231.7,168 228.9,173.8 226,185 219.6,178.5 221.4,171.5 223.3,165.7 228,159.7 233.6,156.1 
		237.6,156.3 240.4,159.3 243.3,161.9 239.8,173.4 238.7,167.4 234.9,165.7 	"/>
	<polygon class="st5" points="271.6,215.2 268.6,207.5 268.4,199.4 269.9,190 273.1,181.9 279.5,172.7 285.3,168.9 292.1,168.3 
		297.8,171 301.7,178.3 301.5,163.8 295.1,156.7 281.6,155.2 272,161.4 263.7,174.5 259,188.8 257.9,203.7 260.7,212.9 266.5,217.6 
		275.9,220.4 	"/>
	<polygon class="st9" points="275.9,220.4 271.6,215.2 268.6,207.5 268.4,199.4 269.9,190 273.1,181.9 279.5,172.7 285.2,168.9 
		292.1,168.3 297.8,171 301.7,178.3 298.7,193 295.1,181.5 286.7,183.6 281,196.7 280.8,210.5 289.9,211.4 283.8,218.9 	"/>
	<polygon class="st5" points="287,199.4 285.2,197.5 284.8,192.8 286.5,188.5 289.1,186.4 292.1,186.6 294,188.8 294.4,193.5 
		291.9,197.9 289.5,199.9 	"/>
	<polygon class="st5" points="234,169.1 236.8,169.1 238.3,173.4 236.6,177.7 233.8,180 230.8,178.3 231,173.2 	"/>
	<path class="st3" d="M265.5,66.6c3.5-12.5,11.4-27.2,15.3-32.8c5.1-0.4,8.5-0.4,13.7,0.4c-5,9.2-12.5,22.1-15.4,32.5
		c7.3,1,16.8,2.5,23.5,3.4c-1.3,4.1-2.8,7.9-4.3,13.2c-5.1-1.3-13.2-4.3-18.4-5.6C273.3,72,273.3,71.8,265.5,66.6"/>
	<path class="st10" d="M562.5,388.5c-0.1-12-9.9-34.3-44.1-39.3c-15.8-2.3-38.2,0.2-54,9.3c-10.8-5.4-22.6-4.7-33.1,2.2
		c-41.1-5.9-72.7-8.2-113.3-3.3c-5.1-3-13-5.2-19.2-5.8c1.4-4.4,2.9-8.6,4.6-12.5c3.3,3.3,7.7,5.3,11.9,5.9c6.7,1,13.1-0.6,14.4-7
		c5.4,2.2,11.4,1.1,14.1-2.9c4.8-7,1.6-13.1-1-22.1c-1.7-5.9-1.4-14.7,1-21.8c23.7,7.1,38.7,1.4,54.7-17.3
		c8.3-9.7,12.6-23.4,12-35.2c14.7-8.8,28.4-31.7,25.6-52.9c-2.8-20.3-17.3-34.5-35.8-39.3c0.5-25.5-8-58.4-20.2-85
		C361.7,20.9,333,0.7,301.3,0c-42.5-0.9-63,29.6-69.1,51.7c-21.4-5.3-39.7-2.3-50.4,9.9c-1.8,2.1-3.4,4.4-4.6,6.8
		C165,56.2,146.7,52.2,126.6,56c-35.2,6.6-66.8,36.2-75.1,70.5c-5.9,24.4,0.3,47.9,15.3,65.5c7.4,8.7,16.7,14.8,26,18.1
		c-1.4,8.7,3.1,18.7,8.9,23.5c3.6,3,7.5,5,11.8,6.4c15.7,41.5,37.5,93.4,59.7,140c-6.2,6-11.9,12.9-17.2,20.8
		c-6.5,2.2-13.1,8.7-17,17.9c-3.1,7.4-3.8,14.8-2.4,20.7c-1.6,4.8-2.3,11.9,0.3,17.7c-7.6,21.2-9.5,50-2.9,72.1
		c-0.4,0.4-0.8,0.8-1.2,1.2c-6.7-1.3-14.2-0.4-21.1,3.2c-6-2.7-12.6-4.8-20.1-6.2c-44.9-8.7-89.9,23.5-85.4,70.5
		c-3.4,5.3-5.5,11.6-6,18.7c-2.5,33.3,27.2,66.6,66.8,87.9c17.8,26.1,49.8,40.7,72,37.2c14.6-2.3,24.6-10.9,28.3-21.4
		c16.7-3.2,30.6-18.9,30.6-39.1c8.2-1.7,13.6-11.7,16.3-21.9c25,36.5,49.1,65.9,76.7,94c1.1,12.7,6.2,22.3,14.7,27.6
		c-3.1,37.1,11.8,85,52.8,88.8c17.7,1.7,30.7-2.5,40.2-10c60.5,2.1,41.3-96.4,30.9-113.8c4.2-4,7-4.8,6.7-13.5
		c-0.9-34.2-12.6-55.2-32.1-55.9c-5.7-7.8-14.5-12.5-28.1-10.7c-4.8-4.8-11.2-6.9-19.6-4.5c-12.2-18.2-24.8-37.8-36.7-57.3
		c27.6-29.3,34.4-68.9,11.5-129.3c1.1-11.4,1.3-20.9,1.5-31.4c22.3-2.2,47-2.1,71.7,0.6c3.1,9.1,9.6,16.1,21.4,17.6
		c5.6,22.6,25.6,36.4,41,38.1c7.2,0.8,15.5-0.9,21.7-6.9c21.5,11.9,43,6.6,52.4-4c4.2-4.8,6.1-10.9,6.4-17.2c8-1.7,12.6-7.3,16-15.8
		c2.2-5.4,2.7-12.8,1.4-20.3C573.5,422.4,573.5,398.9,562.5,388.5 M308.8,361.5c-19.2,14.2-26.6,53.5-30.3,88
		c-1.6,15.1-10.3,32.6-28.8,31.1c-19.2-1.6-26.6-19.9-23.1-39.1c5.9-32.4,46.1-75.2,67.1-83.5C298.3,357.9,303.9,358.4,308.8,361.5
		 M228.7,356.5c3.2,6.1,21.3,12.1,42.7,9.2c-12.5,9.9-25.7,23.8-35.7,39c-11.5-4.4-26.6-6.4-38.6-6.3c6.4-11.9,14.4-22.3,26.1-34.2
		c0,0,0.7-8.2,5.5-10.2C228.6,354.8,228.6,355.6,228.7,356.5 M338.1,329.7c-0.5,1.3-2.9,3-4.5,3.2c-3.2,0.5-8.2-0.6-11.9-4.6
		c-2.4-2.6-2.6-1.6-1.6,0.8c1.4,3.5,5.8,9.9-1.9,10.9c-2.7,0.3-8.5-1.9-12-6.9c8.6-17.6,19.5-30.3,28.5-40.1
		c-1.5,8.4-0.7,16.7,1.5,22.3C339.1,322.9,339.3,326.6,338.1,329.7 M391.3,266.9c-14.1,17.7-28.7,23.4-51.8,13.2
		c-2.7-1.2-3.1-1-4.7,0.6c-7.6,7.6-35.8,39.3-44.9,73.2c-2.1,1-4.3,2.2-6.6,3.5c-16.8,4.4-46.2,0.4-48.2-4c-0.2-1.2-0.2-2.7-0.2-4.2
		c2,0.3,4,0.4,6,0.4v-7.4c-26.7-4.2-39.9-26.1-45.4-64.7c9.4-1.5,14.8-9.5,16.9-16c3.5,6,11.6,12.8,22.3,16.5
		c-10.5,2.3-22.5,3-29,1.4c-1.9-0.5-1.9-0.2-1.1,1.3c1.1,1.9,3.2,3.3,6,4.1c5.8,30.6,21.3,42.9,34,41.2
		c11.2-1.5,19.9-17.6,22.3-47.9c22.1-7.9,28.9-29.9,21.3-48.7c-0.7-1.6-0.6-2.1-2.8-0.6c-10.1,6.9-29.3,10-41.7,6.3
		c1.4-1.5,2.8-3.2,3.9-4.9l-5.8-4.8c-13.4,15.4-33.4,19.6-50.9,15.4c-22.4-5.4-30.4-18.3-29.1-35.5c1-13.5,8.6-26.2,21.1-29.8
		c13.5-3.8,34.9,1.6,52.2,24.3l6.1-2.6c-1.3-2.2-2.7-4.3-4.2-6.3c12.3-30.7,12.2-46.1,2-49.2c-11.7-3.5-21.8,7.8-27.2,29.3
		c-1.2-0.6-2.4-1.1-3.6-1.5c3.6-9.5,11.1-27.7,20.3-41.4c3.3-3.7,7.1-6.3,11.3-5.7c6.5,1,9.1,7.9,9.6,11.5c0.4,2.8,1.1,3.2,2.1-0.6
		c1.1-3.9,1.6-9.2,0.9-14.3c9,1,20.8,3.5,32,8.6c-4,3.5-7.3,8.3-9.1,14.4c-0.8,2.6-0.2,2.6,1.9,1.1c8.5-5.9,19.1-8.2,26.4-4.2
		c10.1,5.6,10.8,19.2,10.5,23.5c-0.3,3.7,0.2,4.4,2.3,1c0.6-1,1.2-2.1,1.8-3.5c8.5,7.3,18.7,12,32.3,11.2c0.7,1.3,1.3,2.6,2,3.9
		c-2.1,12.8-11.6,29.3-23.6,35.9c-4.4,2.4-11.7,3.8-15.4,9c-4.7,6.5-4.5,16.3,2.1,22.9c5.4,5.4,16,8.8,25.1,3.6
		c6.5-3.7,10.2-9.6,14.1-14.1c11.5-13.4,24.3-17.9,34.9-13.2c4.7,2.1,9.9,8.1,11.2,14.2C403,243.3,398.9,257.3,391.3,266.9
		 M229.5,293.2c-4.5,0.4-11.5,1.1-13.1-7.4c9,0.5,20.9-1.7,30.1-5.1c4.4,0.4,9,0.2,13.8-0.8c-0.1,1.5-0.2,3-0.4,4.5
		C251.3,288.8,239.1,292.3,229.5,293.2 M259.3,289.9c-2.4,17.1-7.7,29.2-16,30.2c-5.4,0.6-10.9-2.1-15.8-8.1
		c-0.7-5.9,3.1-11.4,6.7-14.3C242.5,296.4,252.2,293.1,259.3,289.9 M195.6,166.2c4.5-5,7.7-11.2,10-17c0.9,0.7,1.7,1.3,2.6,1.9
		c-2.7,6.1-5.1,11.8-6.8,16.3C199.4,166.8,197.5,166.4,195.6,166.2 M237.1,164.4c-5.6-1-9.5,5.9-10.8,15.4c-1.5-1.2-3-2.3-4.6-3.4
		c1.4-12,9-19.3,13.6-19.4c2.7-0.1,5.3,2.3,5.1,6.4c-0.2,1.1-0.5,2.2-0.7,3.3C239.2,165.5,238.3,164.6,237.1,164.4 M236.9,175.3
		c-0.8,2.4-2.6,3.9-3.9,3.4c-1.3-0.5-1.7-2.8-0.9-5.1c0.8-2.4,2.6-3.9,3.9-3.4C237.3,170.7,237.7,173,236.9,175.3 M235.4,154.8
		c-6.7,0.2-13.2,7.1-16,20.2c-1.3-0.8-2.7-1.6-4.1-2.3c4.3-17.2,11.8-29.6,21.4-27.1c3.6,1,5.1,5.1,4.5,12.1
		C239.9,155.8,237.9,154.7,235.4,154.8 M357.5,186.2c3.8,8.9,7.1,18.2,9.8,27.7c-6.8,3.7-12.9,9.1-17.7,14.3
		c-3.6,3.9-6.9,9.4-10.8,11.4c-5.3,2.8-12.4,2.3-17.7-3.4c-2-2.2-5.1-7-2.1-12.2c2.2-3.8,7.3-3.8,13.3-7.7
		C345.6,207.9,354.3,195.9,357.5,186.2 M300,10.7c29.2,0.6,54.9,24.6,70,55.1c15.8,32.1,24.2,69.6,25.2,101c0.2,5.1,1.3,3.7,2.8-1.5
		c0.9-3.2,1.5-6.8,1.9-10.5c12.5,4.6,24.3,15.6,26.4,31.4c2.3,16.7-5.4,31.9-18,41.3c-2.7-7-7.8-13-14.6-16
		c-6.4-2.8-12.8-2.7-18.8-0.9c-14.1-47.4-39.3-85.7-67.3-113.1c17-15.7,18.8-37.8,13.4-52.1c-5.6-14.8-18.5-23.1-34.5-22.2
		c-21.1,1.2-32.9,16.3-34.9,35.2c-3.2-1.4-6.4-2.7-9.6-3.8C247.4,33.5,264.8,10,300,10.7 M303.5,93.6
		c-15.3-14.2-31.3-25.2-46.6-32.7c1.7-18.8,11.5-30.7,29.9-31.8c13.1-0.8,24.4,5.7,28.6,17.9C320,60.7,317.9,79.5,303.5,93.6
		 M189.5,68c28.8-29.3,111.4,15.2,156.1,94.2c-10.3-0.3-18-4.5-24.9-11.2c2.1-10.6,1.3-23.8-8.7-29c-4.2-2.2-9.8-2.6-15.4-1.1
		c-13.3-19-31-36.8-53.2-44.2c-4.1-1.4-4.8-1.1,0.4,2.3c18.9,12.6,30.9,25.3,41.3,40.7c-13.2-6-26.2-8.5-35.6-9.2
		c-1.9-3.2-4.7-5.6-8.8-6.2c-8-1.1-15.1,5.9-17.7,17.1c-3.9,6.8-8,14.8-11.7,22.6C178.2,115.4,177.8,80,189.5,68 M106.9,225.3
		c-3.5-2.8-6.7-6.5-6.8-13.1c6.8,1.5,13.4,1.4,19-0.1c5-1.4,5.1-2.1-0.1-2.5c-17.6-1.1-32.8-9-45.8-24.3
		c-13.2-15.5-16.9-36.9-11.9-57.8C68.7,97.4,96,70.7,127,64.9c18.7-3.5,36.9,0.8,46.8,14.5c-0.8,5.6-0.6,11.5,0.6,17.5
		c-3.2,0.1-6.2,0.3-9,0.7c-3-8.5-10.7-18.5-23-20.1c-5.1-0.6-7,0-2.9,1.4c8.1,2.7,14.2,10.4,17.8,20.5c-7.3,2.2-13.1,5.6-17.4,9.6
		c-4.6-8.6-12.8-15-22-16.1c-4.5-0.5-7.9-0.5-2.8,1.5c9.3,3.6,15.8,12.5,18.9,21.6c-1.7,2.7-2.9,5.4-3.6,8.2
		c-2.5,9.8-0.6,19.9,5.2,25.8c-0.9,1.8-2.2,3.2-3.4,3.9c-1.8,1.1-5.8,2.1-10.2,0.6c1.1-16.9-11.8-37.1-27.8-41.5
		c-4.7-1.3-6.8-1.3-2.9,0.8c18.9,10.3,24.7,35.2,20.7,45.5c-2.4,6.4-6.8,10.5-13.1,10.9c-7.8,0.5-15.7-7.6-17.3-14.4
		c-1-4.2-2-3.2-1.5,2.2c1,10.9,9.5,19,17.8,19.9c10.3,1,19.3-5.9,22.7-16.6c4.1,2.2,9.5,2.1,14.1,0.6c3.6-1.2,6.7-3.9,8.5-7.5
		c9,2.4,22.5-0.9,29.3-12.3c2.7-4.6,1-3.5-1.9-1.3c-7.2,5.6-19.6,9-26.7,4.7c-4.8-2.9-6.7-11.4-4.8-19c1.2-4.8,8.6-22,36.5-24
		c4.1,15.2,13.1,30.3,23,40.5c-2.9,8.8-7.3,17.7-12.6,23.1c-1.7,0.2-3.3,0.5-4.9,0.9c-18.3,5.2-27.9,22.1-27.6,40.1
		c0.1,6.6,1.1,12.5,3.1,17.7C140.2,231.3,121.9,237.4,106.9,225.3 M125.2,242c11.8,0.5,24.6-3,36.6-8c1.8,2.4,4,4.6,6.4,6.6
		c-5.3,18,6.7,33.4,17.9,36.4c4.8,38.4,21,62.8,40.7,70.2c-2.9,1-5,2.8-6.4,4.8c-15.5,5.6-28.3,12.3-39.4,21.1
		C160.2,329.3,140.4,281.7,125.2,242 M217.6,360.2c0,0.2,0,0.4-0.1,0.6c-26,25.8-33.7,46-42.2,72c-3.8,11.6-14.1,28.5-25.1,25.9
		c-5.7-1.3-7.2-5.3-7.4-9.2c0.5,0.4,1.1,0.7,1.7,1c12.2,5.9,21.4-9.5,25.1-18.1c6.5-15.4,4.1-28-4.2-31.5
		C180.3,381.5,196.6,368.2,217.6,360.2 M145.3,420.6c5.4-11.8,13.1-15.8,18.3-14.3c6.4,1.9,6.2,14.5,1.9,24.1
		c-3.5,7.9-9.6,19.8-18.8,14.7C142.2,442.7,140,432.1,145.3,420.6 M141.1,729.4c-1.9,0.6-3.9,1.1-6,1.6
		c-16.7,3.9-42.7-5.9-65.3-33.3C36.9,677.5,19.4,654,13,633.8c-4-31,37.7-31.6,56.7-23.9c32.4,13.1,49.6,40.4,63.4,79.7
		C146,703.1,156.2,721.7,141.1,729.4 M159.7,714.9c-1.4,3.5-3.7,6.3-6.7,8.6c3.5-7-1.9-23.6-14.1-36.1
		c-19.2-48.7-36.5-72.1-66.9-83.6c-17.1-6.5-50.8-8.4-61.7,12.1c0.1-4.2,0.7-8.2,1.9-11.7c4.7-14.1,31.1-25.2,63.9-13.9
		c39.2,13.5,59,60.8,71.4,87.3C159.5,689.2,163.5,705.3,159.7,714.9 M168.8,708.5c-0.8-10.9-6.5-25.3-18.1-34.6
		c-17.3-43.7-39.4-79.7-72.4-90.6c-26-8.6-49-6-63.2,4.9c1-23.9,26.5-59.5,75.1-50.6c39.6,7.2,54.3,36.2,69.1,73.3
		c2,4.9,14.8,52.3,28.2,66.6C187.8,689.2,181.5,702.7,168.8,708.5 M425.5,716.1c1.9,12.3,3.4,20.5-4.3,24.8
		c11.1,25.1,21.8,101.5-11.5,106.1c8.8-14.1,11.7-32.5,11.9-48.5c0.2-18.5-3.4-35.9-9-58.1c0.5-7.9,3.6-34.9-3.6-54.2
		C418.6,689,423.4,702.6,425.5,716.1 M382.1,675.8c30.2,1.2,25.4,47.8,23.3,64.7c6,21.4,9,40.3,9,58.1c0,40.6-20.5,63.3-55.1,59.4
		c-36-4.1-46.3-43.1-44.6-73.1c0.6,0.1,1.2,0.3,1.9,0.4c22.2,3.6,50.5-11.5,63.2-42.1C387.7,724.1,389.6,693.9,382.1,675.8
		 M352.5,672.1c27.3-12.8,29.5,39.3,17.5,66.2c-11.2,25.3-34.6,40.1-51.7,36.7c-10.6-2.1-16.9-10.4-17.5-24.1l-0.1-2l-1.4-1.4
		c-29.9-30.3-55.5-62.1-82.7-102.7c3.5-4.7,6.6-8.9,9.4-12.9c39.6,5.6,68.7-6.6,85.7-20.3C325.5,632.4,338.2,651.2,352.5,672.1
		 M309.8,598.6c-13.5,13-39,27.6-77.8,24.7c5-7.4,9.8-14.8,15.8-24.2l-8.5-5.8c-12,17.6-33.8,46.9-33.8,46.9
		c1.3,10.3-4.3,28.6-10.2,29c-11.1,0.8-25.7-55.6-28.1-61.7c-10.5-26.2-20.6-49.7-40.3-64.8c4.4-2.8,10.5-3.6,20.9,0.9
		c3.2,1.4,3.4,0.2,1-3.2c-1.6-2.2-3.6-4.1-5.8-5.7c23.7-23.5,46-35.9,64.7-37.5c22.5-1.9,41.4,8.4,56.2,32.8l8.8-5.3
		c-17-28-37.8-40.9-65.9-38.5c-24.2,2.1-46.7,18.2-64.6,34.9c-5.4-16.8-2.1-40.3,3.3-56.1c0.7,0.3,1.4,0.5,2.2,0.7
		c19.2,4.8,30.9-18.2,34.5-30.2c3.5-11.5,6.9-21,10.9-29.7c10.8,0.2,25,1.7,38.1,5.5c-5.1,8.8-9.1,17.9-11.2,26.8
		c-5.8,24.8,5,48.4,28.8,50c24.3,1.6,35.2-18.3,36.5-38.1c0.2-2.5,0.4-5,0.6-7.6c5.1,6.5,10.9,14.4,18.4,27.7l2.9,5.2l4.7-3.6
		c4.6-3.5,7.3-5.7,9.7-7.8c-0.3,5.5-0.5,10.8-0.6,14.8C335.4,509.9,348.2,561.5,309.8,598.6 M408.5,392.4
		c-3.9,10.4-7.7,26.8-6.3,41.1c-32.4-3.1-64.2-0.6-91.4,4.1l1,8.6c3.5-0.6,7.1-1.2,10.9-1.6c-0.1,2.4-0.1,5-0.2,7.7
		c-3.6,3.2-8.1,6.9-12.3,10.3c-7.5-12.7-13.5-20.3-18.4-26.6l-4.1-5.4c4.1-28.2,13.3-57.6,26.2-63.2c38.6-4.9,70.2-3.3,108,1.7
		C416.7,375.1,412.2,382.8,408.5,392.4 M560.1,421.6c-2.4-4.5-5.6-8.6-9.6-11.5c-2.4-1.8-6.9-3.9-3.4-0.1
		c7.2,7.8,12.7,29.9,7.9,40.1c-2.4,5.1-4.2,8.9-8.5,11.1c-1.4-6.8-4.2-12.7-7.3-15.8c-2.6-2.6-4.2-3.2-2.6,0.2
		c3.8,8,5.2,27.5-2.8,35.9c-7.9,8.2-23.5,12.8-40.6,4.9c1.5-2.8,2.6-6.1,3.4-10c2.2,1.1,4.2,2.4,5.9,4.1l6.8-6.8
		c-8.1-8.1-21-10.8-29.5-9.9l1,9.6c2-0.2,4.2-0.1,6.6,0.2c-2,12.3-9.4,16.3-19.5,15.6c-16.4-1-42.9-20.2-35.5-67.6
		c0.5-3.2-0.2-3.7-2.1,0.6c-4.8,11.2-6.4,21.4-5.8,30.4c-17.8,0.9-13.5-40.7-6.7-57.4c13.6-33.4,31.4-35,38.7-30.8
		c-2.8,2.5-5.1,5.4-6.9,8.6c-2.8,5-1.9,5.1-0.4,3.6c24-22.6,58.4-20.5,70-18.4c22.7,4.2,34.6,16.7,34.6,29.5
		C560.6,396.6,565.4,407.1,560.1,421.6 M382.6,235.3c-6.8-5.8-23.7-2-29.5,10.8c-4,9-1.7,21.2,5.1,24.2c2.9,1.3,3.6,1.3,2.1-1
		c-2.2-3.5-2.8-8.4-2.3-12.8c3.5-4.5,8.5-7.8,15.8-5.7c2.9,0.8,2.1-0.3,0.4-2c-2.5-2.7-8.4-4-13.4-1.5c3.6-5.9,11.6-12.1,21.3-10
		C384.6,237.8,384.7,237.1,382.6,235.3 M292.6,153.7c-13.8-4.4-26.1,5.9-32.5,23.9c-6.1,17.3-8.5,37.4,8.7,43.9
		c20.3,7.7,29.9-18.6,32.5-27.1C310,164.6,300.8,156.3,292.6,153.7 M292.9,193.8c-0.9,2.9-3.1,4.9-4.9,4.3c-1.8-0.5-2.5-3.4-1.7-6.3
		s3.1-4.9,4.9-4.3C293.1,188.1,293.8,190.9,292.9,193.8 M298.3,186.5c-0.5-3.6-2.2-7-5.2-7.8c-6.6-1.7-12.5,5.6-14.9,15.6
		c-2.4,10-1.3,16,1.8,18.6c1.4,1.2,2.9,1.8,4.4,1.7c-2,1.6-4.3,2.8-6.8,3.2c-8.7-1.2-10.6-17.3-5.1-31.5
		c4.8-12.5,13.5-17.4,18.8-16.8c5.3,0.6,7.9,4.3,8.5,9.2C299.4,181.2,298.9,183.7,298.3,186.5 M292,167.1
		c-6.6-0.9-16.9,4.4-21.8,18.6c-4.3,12.3-4.5,25.7,1.4,31.7c-0.5-0.1-1-0.3-1.4-0.5c-14-5.6-11.5-22.5-5.9-38.1
		c4.4-12.5,15-24.9,27-20.7c5.9,2.1,8.7,6.7,8.9,14.1C298.6,169.7,295.7,167.7,292,167.1 M259.9,419.8c-5.3-1.6-11.1-0.9-16.3,2
		c-6.3,3.5-11.1,9.9-13.3,17.5c-2.2,7.6-1.5,15.6,2,22.1c2.8,5.3,7.3,9.1,12.6,10.7c5.3,1.6,11.1,0.9,16.3-2
		c6.3-3.5,11.1-9.9,13.3-17.5C278.7,438.2,272.1,423.5,259.9,419.8 M269.1,450.9c-1.8,6.1-5.6,11.2-10.6,14c-3.9,2.1-8.1,2.7-12,1.5
		c-3.9-1.2-7.1-4-9.2-7.9c-2.7-5.1-3.3-11.5-1.5-17.7c1.8-6.1,5.6-11.2,10.6-14c3.9-2.1,8.1-2.7,12-1.5c7.2,2.2,11.8,9.7,11.8,18.4
		C270.1,446.1,269.8,448.5,269.1,450.9 M127.9,690.2c-9.8,0.3-41.7,2.4-50.8,4.2c-3.1,0.6-3.9,1.8,0.3,2.8c13.3,3.4,45.1-1.2,51-4.2
		C131.6,691.4,131.6,690.1,127.9,690.2 M262,437.9c0.9,7.7-1.7,16.4-7,21.3c-3.1,2.9-0.6,2.5,1.7,1.5c6.2-2.8,10.9-14.5,7-23.5
		C262.6,434.8,261.7,435.8,262,437.9 M153.5,438.1c6-3,10.9-12.4,10.5-20.1c-0.2-2.7-1-4.8-2.1,0.4c-1.6,7.3-5.7,13.7-9.7,18.2
		C149.8,439.3,150.4,439.7,153.5,438.1 M500.1,388.1c-7.3-1.3-18.1,1.4-18.1,2.9c0,1.9,7.3,7.3,13.7,8.8c5.3,1.3,9.6,0,10.7-3.8
		C507.5,392,504.9,389,500.1,388.1 M475.2,407.2c-0.9,0.9,2.5,12.1,6.4,16.5c3.3,3.7,7.5,4.3,10.4,2c3.1-2.5,2.6-6.8-0.1-10.2
		C487.5,410.1,476,406.4,475.2,407.2 M500.6,364.9c-6.2,1.1-15.9,9.4-15.7,10.7c0.2,1.4,9.8,0.6,15.4-0.6c4.5-1,7.3-2.7,7.6-5.5
		C508.3,366.2,504.6,364.2,500.6,364.9"/>
</g>
</svg>