<?xml version="1.0" encoding="utf-8"?>
<svg version="1.1" id="Princess Peach" xmlns="http://www.w3.org/2000/svg" xmlns:xlink="http://www.w3.org/1999/xlink" x="0px" y="0px"
	 viewBox="0 0 577.5 880.3" style="enable-background:new 0 0 577.5 880.3;" xml:space="preserve">
<style type="text/css">
	.st0{fill:#FFE600;}
	.st1{fill:#F399C0;}
	.st2{fill:#FBAE17;}
	.st3{fill:#00B8F1;}
	.st4{fill:#EC1C24;}
	.st5{fill:#FDDBC5;}
	.st6{fill:#FFFFFF;}
	.st7{fill:#2BC2E8;}
	.st8{fill:#F07DB0;}
	.st9{fill:#EE4D8E;}
	.st10{fill:#FFD300;}
	.st11{fill:#0B0204;}
</style>
<g>
	<path class="st0" d="M285.8,71.3c0,0-29.6-22.5-53.7-6.8c-24.1,15.7-17.3,33.3-15.4,40.1c-7.4,1.5-24.1-0.2-24.1-0.2
		c3.9,13.8,9.5,19.2,9.5,19.2c-9.8,0-17.6-1.5-17.6-1.5c8.4,32,19.5,34.5,29.5,34.9c-5.4,14.5,0.1,22.3,8.2,37
		c8.1,14.6,7.7,24.4,2.4,27.5c-5.3,3.1-20.1-1.6-21.5-8c-4.4,9.3-5.8,24.8,5.3,35.1l18.5,68.2c0,0-0.9,35.9-22.5,19.5
		c-9.8,13.3-0.8,32.6,26.5,31.1c-4.7,5.7-2,13.1-2,13.1L443,422.9c0,0,6.7-11.5,3-28.1c16.4-5.5,20.5-17.7,21.1-28.8
		c-15.8,0-31.7-7.1-17.5-38.2c14.2-31.1,2.4-46.8-3.1-54.8c15.4-3.2,29.1-20.4,12.4-45c-12.7,14.6-37.5,10-32.8-17.1
		c4.7-27.1,1.7-45.3-9-54.7c17.6-6.7,29.2-22.5,25.9-44.5c-8.4,6.6-19.1,3.3-19.1,3.3c6.7-11.5,6.2-25.3,6.2-25.3
		c-24,8-31.1,1.6-51.9-16.4C357.3,55.3,331.7,37.8,285.8,71.3"/>
	<path class="st1" d="M273,233.4c0,0-19.1-6.9-38.5-1.6c-19.4,5.3-37.3,24.6-22.9,40.1c-2.7,9.6,0,20.4,8.3,25.6
		c-0.8,15.3,10,26.4,31.9,21.5c-4.4-25.2,3-47.5,34.8-63.3L273,233.4z"/>
	<path class="st2" d="M352.2,55.2l3-16.9l-1.7-26.5L318.3,29L295.1,3.8l-20,23.2l-20-12.7l8.7,46c0,0,10,3.4,23.1,11.7
		C310.5,54.4,324.2,48.8,352.2,55.2"/>
	<path class="st3" d="M356.2,55.6c0,0,6.4-17-3.5-18c-8-0.8-5.2,15.7-5.2,15.7L356.2,55.6z"/>
	<path class="st4" d="M298.2,47c0,5.7-3.2,10.4-7.2,10.4c-4,0-7.2-4.6-7.2-10.4c0-5.7,3.2-10.4,7.2-10.4
		C294.9,36.7,298.2,41.3,298.2,47"/>
	<path class="st3" d="M260,39.9c0,0-10.5,1.8-6.6,17.3l10.2,1.6L260,39.9z"/>
	<path class="st5" d="M332.2,106.5c0,0-36.3,31.1-48.3,29.9c-12.1-1.2-26.9-19.5-26.9-19.5s-6.7,16.7-19.6,27.9
		c5.9,16.1,9.7,24.2,12.4,41.7c2.7,17.5,15,47.6,54.1,55.8l0.5,5.1l8.7,3.5c0,0,9.8-7,20.6-1.3l1-22.8l11.5-9.3l0.7-13l-10.5-0.7
		c0,0,25.2-17.5,24-60.6C347.4,133.6,338.5,125.6,332.2,106.5"/>
	<path class="st6" d="M273,182.3c7.4-3.8,3.9-36.6-13-35c-5.3,0.5-7.1,14.4-4,28.1c0.8,3.4,2.7,6.2,5.8,7.1
		C264.4,183.3,269.7,184.1,273,182.3"/>
	<path class="st6" d="M309.5,173.3c0.3,6.2,5.1,8.4,10.9,8.8c8.5,0.5,18.7-1.8,22.5-11.5c3.8-9.7-1.3-28.2-14.2-26.9
		C315.8,145.1,308.7,157.1,309.5,173.3"/>
	<path class="st7" d="M328.1,153.9c-6.1,0.8-8.2,8.5-8,15.5c0.3,6.9,4.7,13.1,9.4,12.4c4.7-0.7,7.8-7.3,7.4-14.1
		S333.7,153.1,328.1,153.9"/>
	<path class="st7" d="M268.9,157.6c-2.4,0-6.5,6.4-4.7,15c1.8,8.6,4.9,10.5,8.5,9.8c3.6-0.7,4.5-8.6,3.2-15.1
		C274.7,160.9,272.8,157.6,268.9,157.6"/>
	<path class="st8" d="M303.8,212.2c-1.6-2.8-4.6-5.9-10.6-6c-2.2-0.1-5.6,3.3-4.3,7.2c0,0.1-0.1,0-0.1,0.2c0.3,3,1,11.9,8.6,11.8
		c6.1-0.2,6.9-9.8,7.1-12.9C304.4,212.3,303.9,212.4,303.8,212.2"/>
	<path class="st5" d="M381.6,161.5c0,0,15.8-0.3,9.9,18.5c-5.9,18.8-17.7,21.1-17.7,21.1l-6.1-1.9
		C367.7,199.3,380.1,179.7,381.6,161.5"/>
	<path class="st3" d="M367.3,199.9c7.5-0.2,23.7,11.6,13.2,25.8c-12.1,16.4-28.9-0.6-28-7C352.6,218.7,365.1,203.8,367.3,199.9"/>
	<path class="st3" d="M282.9,234.6c-2.3,4.9-15.1,8.5-22.1,1.6c-7-6.9-6.4-17.7-1-23.2C267,224.7,282.9,234.6,282.9,234.6"/>
	<path class="st9" d="M350.3,246.6c3.8-4-11-2.9-16.7,2.9c-6.1-3.3-14.8-3-20.6,1.3c-6.8-3.5-11.5-4.9-17.8-0.3
		c-5.3-4.1-12.4-8.3-19.2-4.1c5.6,5.6,7.5,10.4,9.2,14.9c1.6,4.6,5.6,5.5,22,6.2c16.4,0.7,29.7-0.9,29.7-0.9
		S340.4,256.9,350.3,246.6"/>
	<path class="st1" d="M363.4,242.8c-21.7,3.8-37.4,37.9-28.4,60.2c9,22.3,25.2,28.2,34.9,17.8c6.9,0,17.3-6,17.3-6
		c14.5,4.9,27.2,0.9,32-19.5C423.9,274.9,402.6,235.9,363.4,242.8"/>
	<polygon class="st5" points="396,316.7 399.1,329.7 386.2,341.7 369.6,337.7 365,324.4 370.6,320.1 387.2,314.8 	"/>
	<polygon class="st5" points="220.3,303.8 200.4,306.4 191.8,295.9 193.8,279.8 211.1,274.5 211.8,286.6 219.3,297.5 	"/>
	<path class="st6" d="M191.8,295.9c0,0,9.3-22.9-10.8-33.1l-8.3,22.9c-25.1,1.5-67,14.1-96.7,28.5c-13.3-7.4-27.6-15.5-32.4-19.1
		c-4.8-3.6-8.4,3.5,4,22.3c-22.2,12.1-48.7,27.8-44.2,32c4.5,4.2,19.8-1.6,19.8-1.6c-11.4,15.8-17.2,22.6-6.8,24.6
		c3.7,3.7,10.9,2.4,10.9,2.4c7,1.3,22.3,1.3,54.3-36.2c46.9-8.9,88.8-17,97.2-24.1c9.6,7.1,20.6,12,20.6,12S206.9,307.5,191.8,295.9
		"/>
	<path class="st1" d="M336.9,266.6c0,0-36.5,1.6-42.7-0.1c-6.2-1.7-8.7-2-11.4-8.7c-23.9,14.4-38.1,31-29.2,66.4
		c8.9,35.4,12.3,41.6,12.3,41.6s15.3,9.5,19.7,16.7c19.7-11.1,36.3-20.4,55.9-21.9c1.5-10.9,11.1-34.7,11.1-34.7
		C333,314.7,326.7,292.3,336.9,266.6"/>
	<path class="st9" d="M341.6,360.6c-19.7,1.5-36.2,10.8-55.9,21.9c-4.4-7.2-19.7-16.7-19.7-16.7l-2.3-5.9c0,0-16.8,0.8-24,20.1
		c-14.8,1.8-27.5,9.9-29.6,29.4c-32.7,18-40.5,40.1-30.9,48.8c9.6,8.7,61.7,1.9,107.4-44.9c20,53.2,92.2,73.9,129.7,67.7
		s45.1-44.8,11.8-70.7c-33.3-26-38.4-37.9-52.8-45.5c-14.4-7.5-32.9-8.4-32.9-8.4L341.6,360.6z"/>
	<path class="st1" d="M416.2,481.1c-37.6,6.2-109.8-14.5-129.7-67.7c-45.7,46.8-97.8,53.6-107.4,44.9
		c-62.6,141.1-90.3,272.4-90.5,299.6c-0.2,27.2,5.7,39.5,65.2,38.2c4.2,16.7,18.2,29.3,101.2,34.6c83,5.3,103.4-6.5,111-21.4
		c63.6,11.2,133.4,5.1,136-20.2c39.4-0.8,41.4-10.7,41.8-27.9c1.6-60.1-37.6-191.7-73.8-259.7C448.6,461.4,416.2,481.1,416.2,481.1"
		/>
	<path class="st10" d="M289.1,272.7c-11.6,0-22.1,11.7-23.5,26c-1.4,14.4,6.8,26.1,18.4,26.1s22.1-11.7,23.5-26.1
		C308.8,284.3,300.6,272.7,289.1,272.7"/>
	<path class="st3" d="M286.6,281.5c-6.6,0-12.7,7.3-13.5,16.3c-0.8,9,3.9,16.3,10.5,16.3c6.6,0,12.7-7.3,13.5-16.3
		C298,288.8,293.2,281.5,286.6,281.5"/>
	<path class="st9" d="M542.3,773.8c0.8,6.4-11.8,14.7-40.3,15.3c-2.6,25.3-72.4,31.3-136,20.2c-7.5,15-28,26.7-111,21.4
		c-83-5.3-97.1-17.9-101.2-34.6c-43.6,1-58.4-5.4-63.1-19.5c-32.2,8.4-38.6,31-22,42.1c16.6,11.1,65.5,15.9,65.5,15.9
		c6,18.7,52.6,36.4,114.7,41.3c62.1,4.9,117.1-8.9,122.9-28c45.8,16.4,144.7,6.3,150.7-21.3c43.3,2.2,47.4-10.3,50-18.7
		C574.9,799.6,564.2,787,542.3,773.8"/>
	<path class="st6" d="M416.7,330.6c0,0-14.6-10.2-29.9,10.5c-12.4-4.6-24-4.7-30.2,6.9c12,7.1,17.6,9.2,19.9,19.2
		c2.3,10,10.6,38.5,23.4,60.2c12.8,21.7,13.7,25.4,13.7,25.4s-2.7,14.8,4.1,32.5c6.8,17.8,7.4,19.8,10.8,18.8
		c3.4-1,3.4-14.1,3.4-21.6c15.2,18.9,26.3,44.8,31.8,42.6c5.5-2.2,1.5-12.6,1.5-12.6s6.1-8.2,6.1-22.3c6.4,4.2,10.2,6.7,12,5.6
		c1.8-1,0.2-9.5-14.2-27.5c-14.3-18-34.6-31.4-34.6-31.4s-14.3-58.1-24.9-77.2c-3.1-5.7-5.9-7-0.2-14.5
		C415.2,337.7,416.7,330.6,416.7,330.6"/>
	<path class="st6" d="M270.1,166.4c0.2,2.2-0.7,4.1-2.1,4.1c-1.4,0-2.7-1.8-2.9-4.1c-0.2-2.2,0.7-4.1,2.1-4.1
		C268.6,162.3,269.9,164.1,270.1,166.4"/>
	<path class="st6" d="M327.4,163.8c0,2.5-1.4,4.5-3,4.5c-1.7,0-3-2-3-4.5c0-2.5,1.4-4.5,3-4.5C326.1,159.3,327.4,161.3,327.4,163.8"
		/>
	<path class="st11" d="M252.6,137.1c3.4-2.8,6.8-2.7,9.4-1.6c1,0.4,0.8,0,0.5-0.7c-2.2-4.4-8.1-2.8-10.1,1
		C251.7,137.3,251.9,137.6,252.6,137.1 M321.9,129.4c2.9-1.9,7.3-1.6,10.4,0.3c0.7,0.4,0.8,0.2,0.1-1c-3-4.6-9-4.3-10.9,0
		C321,129.7,321.1,129.9,321.9,129.4 M262,144.8c-4.4-0.2-7.1,2.6-8.4,6.7c-2.9-0.7-5.8-4.1-6.5-8.1c-1.4,6.1,1.3,11.1,5.7,11.8
		c-0.2,1.7-0.3,3.6-0.1,5.5c-0.6,0.1-1,0.1-1.6-0.1c-1.7-0.7-3.5-3.4-4.1-5.2c-0.4,4.9,1.8,8.9,6,9c0.2,1.5,0.5,3.1,0.9,4.6
		c-2.2,0.2-3.7-0.8-4.8-3.6c-0.2,5,2,6.7,5.7,6.9c0.3,1.1,0.7,2.1,1.1,3.1c0.7,2,1,1.9,0.6-1.3c-1.2-11.1-1.2-24.7,5.9-24.5
		c4.4,0.2,7.7,3.6,10,8.3c-1.1-0.9-2.2-1.4-3.4-1.4c-4,0-6.7,6.1-6,13.6c0.5,5.7,2.8,10.5,5.6,12.6c-2.5,0.1-5.4-0.2-7.7-0.7
		c-0.7-0.2-0.6,0.6,0.4,1.1c3.2,1.8,10.1,1.7,12.2,0.1c0.1-0.1,0.2-0.2,0.3-0.2c1.6-1.1,2.9-3.5,3.5-6.5c0.3-0.4,0.6-1.5,0.6-3.4
		C277.9,159.4,272.6,145.1,262,144.8 M271.3,181.9c-3,0-5.8-5.2-6.4-11.6c-0.6-6.4,1.4-11.6,4.3-11.6c3,0,5.8,5.2,6.4,11.6
		C276.2,176.7,274.3,181.9,271.3,181.9 M270.4,164.3c-0.3,0-0.5,0.1-0.7,0.3c0.2,0.5,0.4,1.1,0.4,1.8c0.2,2-0.5,3.6-1.6,4
		c0,0.2,0,0.3,0,0.5c0.3,3.6,1.7,6.5,3,6.5s2.2-2.9,1.9-6.5C273,167.3,271.7,164.3,270.4,164.3 M327.9,175.3c1.6,0,2.8-2.9,2.8-6.5
		c0-3.6-1.3-6.5-2.8-6.5c-0.2,0-0.4,0.1-0.6,0.2c0.1,0.4,0.2,0.9,0.2,1.4c0,2.1-1,3.9-2.4,4.3c0,0.2,0,0.5,0,0.7
		C325.1,172.4,326.3,175.3,327.9,175.3 M284.4,187.3c4.6-2.8,4-8.9,2.8-12.8c-0.3-1.2-0.9-2.4-1.2-2.8c-0.9-1,0.1,1.2,0.1,5.3
		c0,1.9,0.4,6-2.6,10c-0.6,0.7-0.5,1,0.4,0.6C284,187.5,284.2,187.4,284.4,187.3 M289.9,195.6c-1.2-1.6-3.7-2.8-4.9-3.5
		c-1-0.5-1.7-0.8-1.2,0.9c0.4,1.2,1.5,2.9,2.6,3.5C287.9,197.5,290.8,196.8,289.9,195.6 M289.6,209.3c1.3-2.3,3.6-3.4,6.8-2.5
		c2.2,0.7,2.9,1.4,4.1,2.2c2.1,1.4-1.1-4.6-6.8-4.5c-3.9,0.1-4.9,4.1-5.1,5.1C288.2,211.4,289.2,210.1,289.6,209.3 M303.6,216.6
		c-0.9,3.8-3,7.1-6.5,7.4c-3.3,0.3-5.3-1.6-6.8-4.7c-0.9-1.9-0.7-0.3-0.2,1.1c0.7,2.1,3,6.4,7.2,6.2c4.4-0.2,7.2-4.6,7.2-10
		C304.5,215.5,304,215,303.6,216.6 M304.6,209.1c-0.5,0.1-0.7,1-0.4,2c-0.2,0.3-0.4,0.4-0.7,0.5c-3.3,1.4-10.9,2.4-15.1,0.9
		c-0.3-0.1-0.7-0.2-0.9-0.5c-0.1-0.6-0.3-1.1-0.6-1.3c-0.5-0.4-2.1,2-0.7,3.1c0.5,0.4,0.8,0.3,1.1-0.1c0.5,0,1,0.2,1.6,0.5
		c2.8,1.1,9.4,1.8,15.3-0.9c0.4-0.2,0.8-0.2,1.2-0.2c0.5,0.4,1.1,0.6,1.9,0.4C309.6,213.1,306.4,208.8,304.6,209.1 M63.4,327.6
		c-7.1,1.3-14.8,11.5-13.6,20.8c0.2,1.7,0.7,0.9,1,0c2.8-7.3,9.1-16.4,13.8-20.3C65.3,327.6,65,327.3,63.4,327.6 M283.7,327.4
		c12.6,0,24.1-12.8,25.7-28.6c1.6-15.8-7.4-28.6-20.1-28.6s-24.1,12.8-25.7,28.6C262,314.6,271,327.4,283.7,327.4 M266.9,298.7
		c1.3-13.4,11.2-24.3,22-24.3c10.8,0,18.5,10.9,17.2,24.3c-1.3,13.4-11.2,24.3-22,24.3C273.3,323.1,265.6,312.2,266.9,298.7
		 M283.6,316.1c7.5,0,14.2-8.2,15.1-18.3c0.9-10.1-4.4-18.3-11.9-18.3c-7.5,0-14.2,8.2-15.2,18.3
		C270.8,307.9,276.1,316.1,283.6,316.1 M274.9,297.8c0.7-7.8,5.9-14,11.6-14c5.7,0,9.8,6.3,9.1,14c-0.7,7.8-5.9,14-11.6,14
		C278.3,311.9,274.2,305.6,274.9,297.8 M271.1,389c1.6-0.8,2.5-1.5,1.3-1.3c-7.4,1.5-24,2.5-31.4,0c-0.7-0.2-0.6,0.5,0.3,1.7
		C246.5,395.9,262.3,393.4,271.1,389 M214.5,420c10,6.7,40.7-2.1,56.3-18.2c1.7-1.7,2.4-2.7,1-1.8c-17.9,12-44.2,19.7-58.4,17.6
		C212.1,417.4,212.7,418.8,214.5,420 M548.4,772.2c0.2-2.4,0.3-5.2,0.2-8.4c-1.7-76.5-43-205.3-75.2-265.2c0.1-1.7,0.1-3.4-0.2-5.1
		c10.3,9.2,17.6,6.5,11.4-6.4c-6.3-13.1-14.5-24.2-32.1-38.8c-0.3-9.5-2.5-17.6-5.8-24.2c5.4-8.4,5.5-18.5,2.6-26.6
		c12.4-5.1,23.2-14.2,21.8-35.9c-16.2,3.8-30-6.3-17.5-33.4c5.8-12.6,11.8-32.7-1.8-53.5c10.2-2.5,16.4-9.8,18.6-20.1
		c2.5-11.4-1.2-25.1-13.2-34c-1.1,7.6-7.6,13.4-14.6,12.8c-11.2-1-15.4-8.9-11.5-31c3.6-20.8,1.9-34.5-8.8-45.9
		c16.4-5.8,31.2-23.8,24.4-50.8c-5.3,3.4-13.2,6.5-17.8,6.7c3.6-4.9,6.5-13.5,4.3-26.7c-12.7,5.2-29.9,6.4-40-4.8
		c-6.7-7.4-16.7-19.1-32.6-26.2c0.5-2,0.8-4.3,0.8-6.7c0-4.8-1.4-9.2-4.6-11.4c-0.2-1.7-0.5-3.1-1.1-4.2c0.2-6,0.9-24.8,0.9-25.2
		c0-0.6-0.5-1.1-1.4-0.6c-5.3,2.7-24,12.4-35.3,18.6c0,0-12.8-14.7-23.2-24.6c-1-0.9-1.5-0.8-2.3,0c-10.5,10.7-19.8,22.5-19.8,22.5
		s-10.5-8.1-21.5-15.5c-1-0.7-1.4,0-1.3,0.7c0.1,0.3,3,15.8,5.5,29.2c-5.5,2.8-7.5,9.8-6.1,17c-8.2-0.1-15.9,1.9-22.1,6.5
		c-12.1,9-18.1,25.9-14.1,41c-6.4,1.7-15.9,1.3-26-2.9c-0.2,9.2,5.5,19.4,8.5,22.1c-4.7,0-11.2-0.6-14.6-2.1
		c0.7,24.1,15,39.9,28.8,39.9c-2.5,11.7,0,22.5,8,34.5c9.4,14.2,8.3,25.7-0.3,25.7c-5.9,0-11.7-4.9-15.8-11.4
		c-8,9.3-10.2,31.6,1.4,42c-2.8,6.8-2.3,14.6,3.3,22.8c-3.2,0.8-7.1,2.1-12,3.7c-2-6.6-6.9-13.4-16.4-18.3
		c-2.5,10.9-8.8,24.9-8.8,24.9c-24.3,0-56.3,10.2-91.2,27.1c-1.3,0.6-2,1-3.6,0c-4.9-3.3-10.1-5.4-17.8-9.3c-4.1-2.1-9.2-5.7-12.3-8
		c-4.9-3.6-11.4-1.7-9.2,8.1c1.9,8.8,6.9,15.9,6.9,15.9c-11.6,6.9-23,12.7-32.7,19.2c-10.5,7-12.2,12.7-9.8,15.8
		c2.1,2.8,7,2.7,17.7-0.5C8,360.7,2.1,373.6,15,374.1c0.1,0.9,0.4,1.7,1.1,2.3c3.1,3.1,7.5,1.9,9.3,1.2c0.1,0.1,0.2,0.2,0.3,0.3
		c5.2,4.8,35.6-8.3,56.3-35.5c0.6-0.8,1.1-1.6,2.6-2c8-2.1,15.8-3.5,27.4-5.2c26.5-3.9,55.7-10.9,67.6-17.1c9.1,4.9,21,13.4,21,13.4
		c2.2-6,3.9-13.7,3.1-20.8c6.4-1.1,10-2,14.2-3c1.1,3.5,3.1,6.9,6.1,9.5c0.4,8.2-0.4,15.1-4.2,18.5c-5.4,4.8-12.3-0.4-15.1-4.6
		c-11,14.1-7.6,38,22.4,39.3c-1,3-1.5,6.3-1.4,9.8c-10.4,4.9-16.5,14.2-18.9,27.3c-25.7,6-41.4,40.6-31.2,53.6
		c0.1,0.1,0.2,0.2,0.3,0.4c-56.2,104-87.2,239.7-92.8,304.2c-0.2,2-0.4,4.2-0.4,6.2c-23.9,13-28.2,31-26.9,37.4
		c2.1,10.9,29.3,25.9,75.1,28c1.3,4.4,4.2,9,9.4,13.2c39.1,32.3,178,39,219.9,16.2c5.9-3.2,10-7.7,12.4-12.7
		c19.6,8.4,99.1,9.7,129.7-2.5c13.1-5.2,20.1-12,23-18.9C579.6,830.7,598.5,809.9,548.4,772.2 M479.6,488.1c2.6,4.8,2,8.3-7.7-0.1
		c-1.3-4-3.5-7.6-6.2-10.1c-0.6-0.5-2.4-2-1.7-0.7c3,6.1,5.4,12,4.7,19.8c-1.5-4.9-4.1-9.2-7.3-11.9c-0.8-0.6-1.7-1.2-1.4-0.6
		c3.1,6.3,5.6,13.2,4.9,21.3c-2.8-7.2-6.8-13.7-9.5-16.6c-0.9-0.9-1.5-1.2-1.2-0.5c4.3,8.8,10.2,31.1,8.3,32.1
		c-1.9,1-5.3-5.9-8.9-12.3c-10-17.7-19.1-28.5-24.3-32.3c0.8,11.7,0.2,24.4-2,25.3c-2.1,0.9-5.3-9.5-8-21.5
		c-2.7-12.1-3.2-25.3-3.1-26.8c0.1-1.5-0.2-2.9-1.6-5.6c-1.4-2.7-4.2-7.9-16.4-31.1c-12.2-23.2-17.3-40-19.5-54.2
		c-0.1-0.6,0-1.4-0.8-2.5c-0.7-1.3-6.5-7-17.5-12.4c3.2-6.6,13.5-9.4,26.3-1.9c8.3-13.1,17.9-17.2,27.1-13.5
		c-5,7.3-7.1,11.1-8.6,14.7c-1.1,2.6-2.1,5.9-2,6.8c0.1,1,0.7,2.1,1.2,3.2c11.6,22.6,17.3,44.9,27,79.8c0.4,1.4,1.3,2.6,2.8,3.7
		C449.7,452.4,468.3,467.4,479.6,488.1 M308.6,172.2c0.5,2.1,1.2,2.9,1.2,0.8c0.1-16,8-27,20.3-27c13,0,13.5,13,12.3,24.8
		c-0.2,1.8,0.4,1.3,1.1-0.7c0.3-0.8,0.5-1.6,0.7-2.5c3.2-0.3,7-2.3,7.8-5.8c-1,1.6-5.1,2.7-7.1,2.5c0.3-1.8,0.4-3.6,0.4-5.4
		c4.5-1.2,7.8-3.9,8.9-9.7c-2,3.4-6.6,5.9-9.2,4.8c-0.2-1.2-0.5-2.3-0.8-3.4c3.3-1.8,6.5-6.3,5.2-12.9c2.9,2.3,6,4.4,9.4,6
		c-0.1,23.7-4,41.7-28.4,62.4c7.4,1.2,14.2,0.5,14.2,0.5s-0.6,4.4-1.6,9.9c-14.5,12.3-32.7,22.8-39.1,22.8
		c-6.2,0-47.3-14.2-52.8-52.5c-2.6-18.3-6-30.4-11.3-42c7.6-5.8,14-15.7,17.3-22.7c5.4,7,14,13.5,27,18c16.2-5.9,35-18.6,46.1-29.7
		c3.5,9.4,9.7,19.7,18.7,27.1c-1.1,4.1-3.6,7.8-6.9,9c-2.4-3.5-6.2-5.8-11.9-5.8C315.8,140.5,306,156.9,308.6,172.2 M332,230.7
		l-0.2,16c-5.6-3.8-14.5-2.5-18.8,1.4c-1.4-1.2-3.3-1.9-5.4-2.4v-2.1C314.3,242,323.1,236.9,332,230.7 M300.9,243.8v1.8
		c-2.4,0.4-4.6,1.2-6,2.4c-3.5-3.5-8-5.7-12.7-5.6c-0.6-1.1-1.3-2-1.8-2.8c1.3-0.7,2.4-1.6,3.5-2.6
		C290.4,240.8,296.5,243,300.9,243.8 M259.2,216.3c6.1,7.7,13.5,13.9,20.7,18.5c-2.4,1.9-5.4,3-8.6,3c-7.8,0-14.1-6.3-14.1-14.1
		C257.1,220.9,257.9,218.4,259.2,216.3 M294.5,253.9c4.9-5.3,12.4-5.7,18.6,0.3c5.1-5.1,13.8-6.8,20.1-0.3c4.5-6.2,9.4-8.5,13.9-7.2
		c-5.4,4.4-9.9,10.3-13,17.1c-14.7,1.7-31.3,2.2-40.1,0.9c-3-0.5-4.7-1.5-5.8-3.7c-2.7-5.8-6.4-10.5-8.6-12.6
		C283.3,246.5,289,247.6,294.5,253.9 M392.3,314.2c4.2-4.7,5.7-10.5,4.6-16.8c-0.2-1-0.5-3.3-1-1.5c-4.4,16.2-21.3,25.1-38.3,20.2
		c-2.6-0.7,0.3,1.9,1.1,2.6c1.5,1.2,3.6,2.3,6,3.1c-4.9,4.3-17,1.2-23.2-10.4c-11.5-21.6-6-55.8,19.7-65.1
		c30.8-11.2,64.5,24.4,54.6,53.2C412,310.7,402.7,317.3,392.3,314.2 M395.1,328c-3.7,2.3-7.3,5.7-10.5,10.5
		c-4.5-2.3-8.7-3.3-12.4-3.4l-3.1-9.1c1.1-0.8,2.1-1.9,2.9-3c3.9,0.1,7.9-0.6,11.6-2.4c1.6-0.8,3-1.6,4.3-2.6c1.8,0.6,3.5,1,5.1,1.3
		L395.1,328z M283.3,261.1c0.5,0.9,0.9,1.8,1.2,2.5c1.6,3.9,4.9,4.8,9.9,5.5c11,1.4,29.4,0.8,37.6-0.1c-4.6,13.6-4.3,29.9,3.4,44.6
		c3.3,6.4,8.1,10.8,13.3,13.3c-6.1,9.9-9.6,20.5-10.8,30c-15.7,0.9-36.4,8.7-51,22.3c-6.1-9.5-16.6-15.1-18-15.5
		c-7.2-30.4-17.2-49.6-13.9-67.6C258,278.6,270.7,268,283.3,261.1 M355.6,329c2.9,0.5,5.8,0.3,8.4-0.4l2.1,7.3
		c-7,2-11.6,7.7-12.9,13.8c7,2.8,11.6,5.7,14.8,8.7c-6.6-3-13.8-4.9-22.2-5.2C347.9,342.7,351.4,335.3,355.6,329 M431.9,417.9
		c9.1,5.5,12.7,15.5,13.1,24.6c-2-1.5-4-3.1-6.2-4.7c-1.7-1.3-2.7-3.2-3.2-5.1C434.5,427.9,433.2,422.9,431.9,417.9 M357.4,48.6
		c0,1.9-0.3,3.5-0.8,4.7c-2.7-1-5.5-1.9-8.5-2.6c-0.1-0.9-0.1-2-0.1-3.3c0.2-4.2,2-7.5,4.6-7.5C355.2,39.9,357.5,43.2,357.4,48.6
		 M352.7,35.4c-0.1,0-0.1,0-0.1,0c-4.3-0.3-7.9,5.3-7.9,11.8c0,1,0,1.9,0.1,2.8c-1.5-0.3-3-0.5-4.6-0.7c-0.1-0.6-0.1-1.2-0.1-1.9
		c0-8,3.9-14.5,8.6-14.5C351,33,352.2,33.7,352.7,35.4 M275.7,33.5c0,0,10.9-16.1,19.1-24.9C306,18.6,318,34.2,318,34.2
		c14.4-8.9,32.9-17.9,32.9-17.9L350,28.9c-0.4,0-0.8-0.1-1.3-0.1c-6.3,0-11.5,6.8-12.5,15.6c-10.3-0.2-20.2-0.1-29.3,0.2
		c-0.9-10-7.1-17.7-14.7-17.7c-8,0-14.5,8.6-14.8,19.3c-5.6,0.4-10,0.9-12.9,1.2l-5.3-27.7L275.7,33.5z M336.1,49
		c-1.6-0.1-3.3-0.2-5-0.2c-9.6,0-18,2.2-25.2,5.7c0.6-2.2,1-4.5,1-7c9-0.3,18.8-0.4,29-0.2c0,0.1,0,0.1,0,0.2
		C336.1,48,336.1,48.5,336.1,49 M280.2,47c0-8.7,5.4-15.8,11.6-15.8c6.2,0,11.4,7,11.4,15.7c0,4.1-1.1,7.8-3,10.8
		c-2.6,1.7-5,3.5-7.1,5.4c-0.4,0.1-0.9,0.1-1.3,0.1C285.6,63.2,280.2,55.7,280.2,47 M289.4,66.8c-0.7,0.8-1.4,1.7-2.1,2.5
		c-6.1-5.5-13.4-9.6-20.9-12l-1.4-7c2.8-0.3,7.1-0.8,12.4-1.2C278.1,58,283,65.1,289.4,66.8 M258.2,44c1,5.2,1.8,9.6,2.2,11.7
		c-1.6-0.3-3.3-0.6-4.9-0.8C254.3,48.8,255.2,45.5,258.2,44 M204.6,218.9c3.4,4.7,9.9,6.9,14.6,6.9c17.5,0,16.9-19.5,5.3-36.2
		c-9.5-13.8-8.9-22.5-6.1-32.1c1.4-0.6,2.7-1.4,4.1-2.4c1-0.8,0.9-1.2,0-1c-16,4.7-30.9-11.5-33.3-27.7c9,1.7,15.3,0.1,19.2-2.1
		c-6-4.7-9.5-11.3-11.5-16.4c6.6,2.2,15.3,2,20.1,0.6c0.6,1.2,1.2,2.4,1.9,3.5c0.3,0.5,0.7,0.3,0.6-0.2
		c-2.7-16.1,1.1-35.3,13.3-43.6c12.3-8.4,30.2-10,51.5,5.5c-1.1,1.9-2,3.8-2.5,5.5c-0.7,2-0.3,2.3,0.9,0.9
		c10-11.9,26.2-24.2,48.5-24.2c25.5,0,40.8,11.3,57.3,30.9c9.4,11.2,23.2,10.9,38,8.5c-0.9,9-4.2,15.5-9,20.7
		c6.4,4.9,17.4,3.5,23.4-0.5c1.5,17.5-9.8,35.8-37.1,40.9c-1.2,0.2-4,0.6,1.7,1.7c2.6,0.5,5.4,0.7,8.2,0.4
		c10.7,8.3,15.8,20.8,10.7,43.7c-6.7,30,5.1,36.8,17.5,38.2c10.3,1.1,16.8-6.8,16.8-6.8c8.6,12.7,6.3,34.7-18.9,36.8
		c13.8,13,17.5,34.7,7.8,54.1c-11,22.1-8.6,43.3,16.4,44.5c-0.1,9.6-8,18.3-18,22.3c-1.8-2.7-4.1-4.9-6.5-6.4
		c-2-1.2-3.8-1.3-2.8-0.2c7,8.1,10.2,23.6,4.8,31.4c-3.9-5-8.5-8.7-13-10.8c-4.7-16.7-10.3-33.2-17.9-49.2c-0.7-1.4-1.2-3.2-0.2-5.7
		c2.8-6.5,10.8-19.4,10.8-19.4c-4.5-5.7-12.3-8.1-20.2-5.8l-0.9-5.4c9.5-0.5,16.7-6.2,21.5-18.7c9.9-26-18.7-74.3-62.7-61
		c-2.7,0.8-5.2,2-7.6,3.4c-4.7-2.3-9.9-2.4-14.2-0.1V227c1.5-1.1,2.9-2.1,4.3-3.2c-0.6,2.6-1.3,5.2-2.1,7.3
		c3.2-1.1,7.1-3.5,11.3-6.9c2.9,6.6,9.5,11.2,17.2,11.2c10.4,0,18.9-8.5,18.9-18.9c0-6.4-3.2-12.1-8.2-15.5
		c11.1-7.6,16.5-17.4,16.5-28c0-10.6-4.1-14.1-12.1-13.8c0.1-3.3,0-6.7-0.3-10.1c-0.2-3.4-0.9-2.9-1.1,0
		c-2.8,30.8-16.6,55.9-34.7,71.9c2.1-8.2,3.8-20.3,3.8-20.3c-3.6,0.6-8.9,1-8.9,1c13.8-15.1,19.8-25.2,21.4-56.2
		c1.6,0.5,3.2,1,4.9,1.4c2.7,0.5,5.3,0.8,3.6,0c-20.2-9.9-31.9-26-37.1-41.4c2.1-2.5,3.6-4.9,4.5-6.9c1.3-3.2,2.1-4.5,0-2.7
		c-11.6,10.6-33.1,28.2-55.1,37.7c-15.7-5.1-27.5-18.6-33.9-31c-1.1-2-1,0-0.7,1.9c0.6,3.9,1.9,8,4.1,12
		c-4.1,10.9-13.6,25.2-24.7,32.3c-1.9,1.4,1.3,0.6,3.1,0.2c1.3-0.4,2.6-0.9,3.8-1.5c6.7,14.2,8.1,23,10.7,40.2
		c1.4,9.4,5.1,17.8,10.1,25c-2.3,3.1-3.7,6.9-3.7,11c0,0.9,0.1,1.8,0.2,2.6c-16.7-1.2-35.7,6-44.8,17.6
		C202.7,236.1,202.2,227.2,204.6,218.9 M381.8,216.4c0,7.7-6.2,13.9-13.9,13.9c-6.2,0-11.5-4.1-13.2-9.7c5-4.7,10.1-10.8,14.6-18
		C376.3,203.3,381.8,209.2,381.8,216.4 M372,198c5.4-9.8,9.5-21.5,10.7-34.3c6-0.6,7.8,2.9,7.8,9.8c0,9.7-5.9,17.9-16.7,25
		C373.2,198.3,372.6,198.2,372,198 M196.7,322.3c-6.4-4.7-13.8-9-16.8-10.9c-1.1-0.7-1.8-0.5-2.9,0c-22.5,10.8-48.2,14.6-65.3,17.3
		c-17.5,2.8-28.4,5.8-29.7,6.2c-1.3,0.4-1.7,0.6-2.9,2c-14.5,17.2-42.6,40-49.4,34.9c-2.7-2.1,12.5-14,17-17.4
		c1-0.8,0.1-0.8-1.5-0.2c-6.5,2.5-18.3,11.1-20.7,18c-1.3,0.3-2.7,0.3-3.8-0.4c-1.5-0.9,4.1-11.5,19.9-23.1c0.7-0.5,0-0.7-1.4-0.2
		c-6.4,2.3-18.7,12.6-22.9,20.4c-2.3-0.4-3.6-2.6-1.2-6.1c8.6-12.2,17.7-19.8,18.9-21.1c1.3-1.3,0.3-1-1-0.7
		C23,344,7.6,349.8,6.3,348.1c-1.1-1.4,1-4.7,9.8-9.5c9.8-5.4,31-17.4,36.1-19.9c-7.6-9.4-11.9-19.2-10.1-20.6
		c1.9-1.4,5.4,2.6,8.9,5c6.7,4.6,13.6,6.5,21.9,12.7c1.1,0.9,2.4,1.5,3.1,1.6c0.7,0.1,2-0.3,3.4-1c26.2-11.9,61.5-25.6,93.3-28.1
		c1.6-0.1,2.5-0.4,3.3-2.3c2.7-6.3,6.5-17.6,6.5-17.6c6.4,4.1,12.4,16.6,5,27.9C199,304.8,198.3,315.1,196.7,322.3 M216.7,300.9
		c-4.6,1.4-11.4,2.8-14.8,3.5c-1.4-3.5-3.8-6.7-7.5-9.1c1.7-3,2.9-7.6,2.6-12.7c2.8-0.8,7.3-2.1,11.2-3.2c-0.1,2.6,0.2,5.2,0.8,7.4
		c1.3,4.1,4.1,8.3,7.8,11.2C216.8,299,216.7,299.9,216.7,300.9 M223.3,301.2c1.3,0.3,2.5,0.5,3.9,0.5c1.3,0,3.1,0.1,1-1
		c-13.9-7.2-18.1-23.9-8.7-36.8c0.4-0.6-0.4-0.7-2-0.1c-2.4,1-4.2,2.6-5.7,4.5c-10.6-18.4,16.5-39.4,43.5-35.4
		c3.2,5.5,9.1,9.2,15.9,9.2c1.1,0,2.3-0.1,3.4-0.3c0.5,0.7,0.9,1.4,1.4,2.3c-1.3,0.7-2.6,1.5-3.9,2.7c2.9,2.9,5.6,6.1,7.7,9.2
		C256,270.1,250.7,283.1,248,295c-1.4,6.2-0.9,13.3,0.5,21C237.6,318.3,223.9,316.1,223.3,301.2 M206.6,341.6
		c5.2,4.9,13.5,3.6,17.7-0.2c5.4-4.8,6.4-12,6.2-20.2c4.9,1.8,11.2,2.5,19.3,1.1c2.7,11.3,7,23.5,10.4,35.5
		c-10.5,0.9-19.8,10.2-22.4,18.9c-2.3,0.3-4.5,0.8-6.5,1.4c0.1-6.8,3.2-13.1,6.7-18.2c0.8-1.1-0.8-0.8-2.7,0.1c-1.9,1-3.6,2.4-5,4.1
		C212.4,364.3,201.9,355.6,206.6,341.6 M212.5,411.8c1.8-15.9,13-28.7,28.7-28.1c3.9-12.6,13.1-18.7,20.6-20.2
		c0.4,1.5,0.8,3,1.1,4.5c8.9,3.5,17.3,9.2,23.4,18.9c11.2-11.2,35.4-23.7,58.3-24.3c0.1-1.2,0.2-2.4,0.3-3.5
		c16.3,1.1,21.3,4.7,28.9,10c1,5.2,2.6,11,4.6,17.2c-12.6,5.4-43.6,6.6-73.7,2.2c-1.8-0.3-0.5,0.9,2.2,2c18,7.4,60.6,7,73.4,1.3
		c3.4,9.2,7.7,18.8,12.7,27.9c1.7,3.1,3.2,6,4.6,8.6c-21.7,5.3-67.7-5-96.8-23.6c-1.8-1.1-0.9,0.8,1.3,2.9
		c21.3,19.9,71.6,33.8,98.4,26.1c5.3,9.8,7.7,14.5,8,15.2c0.5,1,1.5,2.2,1.5,3.4c-0.1,7,0.8,15.8,2.5,24.4
		c-57.4,3.7-115.7-28.5-126.5-73.6c-0.3-1.1-0.9,0.8-1,2.7c-0.1,1.2-0.1,2.5-0.1,3.8c-25.4,35.3-95.3,56.9-104,45.1
		C176.1,448.2,185.9,419.1,212.5,411.8 M92.4,763.3c8.6-83.3,46.8-218.1,90.4-297.9c22.4,5.8,79.7-14.8,103.6-47.2
		c8.2,29.5,51.2,72.1,128.2,67.5c3.2,12.3,7.7,22.2,12.3,22.1c8.6-0.2,7.1-14.5,6.7-19.4c5.1,5.1,11.5,14.6,16.9,24.6
		c5.9,10.9,10.2,15.8,14,14c3.2-1.5,4.1-5.1,3.3-10.5c1-2.3,1.7-4.8,2-7.3c0.1-0.1,0.1-0.2,0.2-0.3c23.5,39.3,67.2,174.3,70.4,258.2
		c0.2,4.8-0.4,9-4.9,11.6c-4.2,2.4-15.6,5.4-30.3,6.3c0-1.9,0-3.9,0-6.1c-0.6-69.5-37.4-217.7-62.6-255.4c-1.8-2.7-3.6-3.8-2.8-2.2
		c26.1,56.6,57.8,184.2,58,262.5c0,9.5-3.1,14.2-8.5,17.5c-15,9-79.4,13-119.6,4.5c0.2-1.9,0.4-4,0.3-6.3
		c-0.6-84-16.8-237.5-29.2-273.1c-0.9-2.6-2.2-3.6-2-2c13.1,73.5,25.6,235.7,23.9,276.7c-0.4,8.6-2.9,13-9.8,16.1
		c-52.5,23.4-166.1,5.1-184.1-5.8c-7.5-4.5-12.2-10.3-10.8-24.3c6.6-64.6,31.3-199.9,50.6-266.4c0.5-1.7-1-0.4-2.4,2.5
		c-16,33.8-43.5,166.4-55.3,262.7c-0.3,2.2-0.4,4.2-0.4,6.2c-21.1,0.6-39-2.6-47.5-6.2c-4.5-1.9-9.2-4.4-10.6-8.2
		C91.1,774.6,91.8,768.9,92.4,763.3 M526.5,822.9c-0.9-9.6-8.4-18.2-16.6-21.5c10.5,15.6,13.5,32.4-14.8,42.7
		c-25.9,9.4-98.9,11.4-120.4,0.6c0.2-4.3-0.9-8.5-3.1-12.1c-1.4-2.2-3-3-2.6-1.6c2.8,11-3.8,23.7-16.9,29.6
		c-38.5,17.5-163.7,13.9-204.4-15.3c-13.6-9.8-10.6-21.5-2.9-31c0.5-0.7,0.2-1.5-3.1,0.2c-5.9,3.1-10.2,8.2-11.5,14.1
		C86.9,825.8,69,817,65.5,806.8c-2-5.9,3.7-18,18.7-25.4c3.6,7.1,11.2,10,18.1,12.5c17.5,6.3,39,6.5,48.9,6.3
		c2.1,9.8,8.5,16,18.6,19.9c46.9,18.3,148.8,24.5,189.5,2.3c3.7-2,6.8-4.9,8.7-9.7c43,9.2,100.9,4.8,119-1.8
		c12.4-4.5,16.4-9.3,17.7-17.4c8.1-0.2,18.1-1.3,29.3-4.8c5.7-1.8,9.2-3.9,11.4-6.9C580.4,806.8,573.4,820.9,526.5,822.9 M299.9,47
		c0-6.8-3.9-12.3-8.8-12.3c-4.9,0-8.8,5.5-8.8,12.3s3.9,12.3,8.8,12.3C295.9,59.3,299.9,53.8,299.9,47 M291.1,55.9
		c-3.1,0-5.5-4-5.5-8.9c0-4.9,2.5-8.9,5.5-8.9c3.1,0,5.5,4,5.5,8.9C296.6,51.9,294.1,55.9,291.1,55.9 M324.4,181.6
		c-1.5,0.1-3,0.1-4.6-0.1c-0.7-0.1-0.5,0.4,0.4,0.9c2.7,1.3,7.1,1.1,9.5,0.2c4.8-1,8.6-7.2,8.6-14.8c0-8.3-4.4-15-9.9-15
		c-5.5,0-9.9,6.7-9.9,15C318.3,174,320.8,179.3,324.4,181.6 M328.4,155.1c4.2,0,7.5,5.7,7.5,12.8c0,7.1-3.4,12.8-7.5,12.8
		c-4.2,0-7.5-5.7-7.5-12.8C320.9,160.9,324.2,155.1,328.4,155.1"/>
</g>
</svg>
