<?xml version="1.0" encoding="utf-8"?>
<!-- Generator: Adobe Illustrator 16.0.0, SVG Export Plug-In . SVG Version: 6.00 Build 0)  -->
<!DOCTYPE svg PUBLIC "-//W3C//DTD SVG 1.1//EN" "http://www.w3.org/Graphics/SVG/1.1/DTD/svg11.dtd">
<svg version="1.1" id="Layer_1" xmlns="http://www.w3.org/2000/svg" xmlns:xlink="http://www.w3.org/1999/xlink" x="0px" y="0px"
	 width="188.996px" height="340.366px" viewBox="0 0 188.996 340.366" enable-background="new 0 0 188.996 340.366"
	 xml:space="preserve">
<path fill="#FDD1B0" d="M91.953,173.094c-11.224,2.85-25.344,1.719-34.938-3.622c-13.854-7.71-21.592-25.477-18.285-41.907
	c2.021-10.043,9.017-24.646,16.479-32.129c0.441-0.035,0.892-0.068,1.354-0.098c18.918-1.176,32.066,3.557,42.09,8.779
	c7.227,3.768,14.523,10.043,21.021,17.914C121.78,136.4,115.954,166.997,91.953,173.094z"/>
<g>
	<ellipse cx="91.772" cy="334.844" rx="43.086" ry="5.521"/>
	<path d="M101.004,0.208C62.092-2.247,28.955,17.224,16.101,44.562c-4.927,10.477-12.423,33.9,0.593,56.561
		c4.577,7.969,11.502,15.615,18.997,20.521c-0.608,2.078-1.115,4.209-1.487,6.373c-0.889,5.188-0.926,10.023-0.321,14.479
		c-0.972-0.656-1.96-1.316-3.233-2.18c0.446-6.496,0.199-10.275-0.768-12.434c-1.317-2.947-3.323-2.457-5-1.178
		c-0.471,0.359-0.89,0.76-1.282,1.182c-1.578-2.568-3.728-5.496-6.162-7.09c-2.229-1.457-4.907-0.58-5.002,2.852
		c-0.019,0.688,0.015,1.355,0.081,1.994c-1.329-0.689-2.695-1.238-4.063-1.518c-2.444-0.498-4.022,0.873-3.733,3.463
		c0.162,1.457,0.834,2.842,1.382,4.098c-1.382-0.127-2.021-0.137-3.012,0.043c-2.239,0.408-3.055,2.297-2.512,4.164
		c0.312,1.076,0.984,2.49,3.327,5.205c-1.06,0.256-2.028,0.602-2.732,1.158c-1.103,0.871-1.816,2.404-0.322,4.408
		c3.633,4.873,11.2,7.366,16.979,7.916c0.414,0.693,1.413,2.33,1.416,2.323c5.123,8.311,10.328,16.547,15.505,23.147
		c-6.316,5.766-13.135,12.699-20.074,20.537c-1.79,2.021-1.403,2.701,0.61,5.182c2.603,3.211,7.685,8.459,13.333,12.307
		c-0.649,8.043,0.556,18.023,6.852,27.16c1.562,2.268,3.403,4.271,5.462,6.041c-8.197,9.922-10.155,23.369-6.818,33.424
		c3.528,10.635,15.221,14.834,26.068,10.951c13.308-4.764,22.365-20.859,23.047-32.523c4.137-0.094,7.979-0.447,11.259-0.967
		c0.815-0.129,1.61-0.271,2.393-0.42c0.592,16.949,6.518,26.719,15.396,33.146c9.342,6.76,27.738,7.189,31.904-10.912
		c2.654-11.541,1.289-29.08-6.678-39.963c-2.717-3.709-5.236-5.416-7.359-6.076c2.715-7.242,2.504-14.693,0.859-20.361
		c3.857-1.846,6.74-3.654,7.834-4.836c1.154-1.246,1.834-2.332-0.271-5.25c-1.787-2.48-10.896-14.717-14.885-18.963
		c5.625-6.326,14.23-17.359,17.691-22.108c6.926-0.611,13.148-1.29,17.697-4.548c1.389-0.996,2.693-3.439,0.996-5.069
		c-0.762-0.731-1.629-1.131-2.535-1.517c2.24-1.968,3.191-2.986,4.006-4.888c0.721-1.68,0.949-4.819-2.648-5.227
		c-0.01,0-0.023-0.002-0.037-0.004c15.805-8.939,25.537-25.689,28.506-41.408C199.526,39.294,141.194,2.742,101.004,0.208z
		 M123.881,17.441c5.758,6.467,8.146,14.869,6.91,24.299c-1.014,7.709-6.027,15.279-13.76,20.77
		c-10.854,7.705-25.215,10.428-39.403,7.469c-10.152-2.119-18.992-8.73-23.643-17.686c-4.171-8.031-4.47-17.092-0.838-25.512
		C59.819,11.308,77.48,5.576,91.784,5.367C105.178,5.173,116.877,9.574,123.881,17.441z M22.074,45.466
		c2.715-4.984,5.789-9.381,9.12-13.27c0.5-0.117,0.882-0.025,1.216,0.311c0.846,0.848,1.338,2.996,1.338,6.242
		c0,4.482-0.938,11.059-3.18,19.199c-3.533,12.832-9.02,24.469-13.031,29.82C13.701,75.654,13.638,60.96,22.074,45.466z
		 M19.812,151.275c-0.108-0.179-0.17-0.306-0.312-0.575c-4.877,0.37-11.938-2.002-14.758-4.037
		c-1.637-1.181-1.177-2.218,0.017-2.666c0.812-0.305,2.183-0.627,3.548-0.932c0.462-0.102,0.749-0.395-0.125-1.381
		c-1.767-1.992-3.191-3.688-3.906-4.787c-0.74-1.139-0.499-2.502,1.214-2.197c1.503,0.268,4.376,1.533,5.245,1.844
		c0.871,0.312,1.464,0.451,0.676-0.791c-0.537-0.85-2.866-4.178-3.527-5.756c-0.908-2.166,0.01-3.447,1.995-2.41
		c2.039,1.064,3.114,1.969,3.887,2.654c0.152,0.318,0.307,0.6,0.457,0.83c1.191,1.848,1.58,1.496,1.453,0.668
		c-0.362-2.361-0.95-5.326-0.916-6.873c0.033-1.494,1.339-1.656,2.238-0.838c0.771,0.699,2.867,3.375,4.592,6.836
		c-0.471,1.01-0.792,2.051-0.951,3.047c-0.438,2.703,0.26,3.85,0.968,2.475c1.433-2.781,2.486-4.535,3.533-5.746
		c1.341-1.549,2.533-1.363,2.779,0.797c0.331,2.885-0.023,6.264-0.524,10.293c1.69,1.611,5.283,4.425,7.667,6.518
		c2.465,8.925,7.501,15.991,12.935,20.889c-2.98,2.144-6.204,4.709-9.616,7.672C32.23,169.813,22.759,156.056,19.812,151.275z
		 M91.953,173.094c-11.224,2.85-25.344,1.719-34.938-3.622c-13.854-7.71-21.592-25.477-18.285-41.907
		c2.021-10.043,9.017-24.646,16.479-32.129c0.441-0.035,0.892-0.068,1.354-0.098c18.918-1.176,32.066,3.557,42.09,8.779
		c7.227,3.768,14.523,10.043,21.021,17.914C121.78,136.4,115.954,166.997,91.953,173.094z M120.604,150.287
		c2.697,0.568,5.32,0.953,7.869,1.174c-0.004,0.317-0.004,0.624,0.002,0.904c-1.914,0.957-7.07,3.444-11.547,5.983
		C118.399,155.766,119.618,153.061,120.604,150.287z M84.682,179.655c2.127,7.195,6.312,17.508,10.299,26.383
		c-10.917,1.186-19.641,1-27.438,0.502c-11.894-1.227-19.959-3.203-24.264-6.744c-1-0.824-1.121-1.064-0.657-2.535
		c2.846-9.018,9.753-18.74,13.665-22.383c0.632,0.312,1.253,0.596,1.859,0.84C66.956,179.288,76.809,180.473,84.682,179.655z
		 M29.292,213.006c-3.19-2.406-8.103-6.859-10.657-10.135c9.932-10.936,23.04-24.041,32.116-31.456
		c0.731,0.553,1.462,1.067,2.188,1.542c-1.687,1.555-4.261,4.656-6.782,8.461c-5.64,5.564-11.526,12.117-17.97,19.986
		c-0.252,0.309-0.245,0.754,0.018,1.053c0.807,0.922,2.101,2.053,3.215,2.982C30.673,207.303,29.873,209.905,29.292,213.006z
		 M32.108,203.885c-0.762-0.648-1.564-1.363-2.194-2.006c4.479-5.451,8.69-10.262,12.735-14.541
		c-1.472,2.816-2.718,5.758-3.475,8.588c-2.308,1.049-4.435,3.062-6.872,7.58C32.24,203.622,32.175,203.754,32.108,203.885z
		 M74.123,277.639c-9.052,15.477-26.069,19.641-33.9,8.643c-5.137-7.215-4.172-21.842,4.474-32.189
		c9.754,6.414,22.779,8.785,34.277,9.037C78.96,268.051,76.037,274.364,74.123,277.639z M88.604,258.088
		c-16.048,1.428-40.762-0.641-50.78-18.283c-4.898-8.627-7.748-22.971-1.267-35.938c0.606-1.215,1.418-2.359,2.429-3.027
		c0.533,1.17,1.692,2.141,3.683,3.361c5.041,3.094,13.358,5.174,24.43,6.152c7.538,0.666,18.536,0.521,29.378-1.033
		c2.334,5.055,4.496,9.391,5.998,12.018c1.488,2.602,2.045,3.301,5.16,3.057c6.488-0.514,13.611-2.67,19.459-5.082
		C131.44,239.485,113.141,255.905,88.604,258.088z M136.223,251.094c3.197,6.779,6.109,19.262,3.16,32.066
		c-1.779,7.723-8.26,12.445-17.867,10.67c-8.826-1.631-19.74-13.234-20.389-33.021c14.604-3.693,22.979-10.998,27.277-19.031
		C131.459,243.116,133.887,246.143,136.223,251.094z M135.762,209.661c-5.068,3.803-15.84,9.1-28.604,10.457
		c-6.357-10.492-15.049-31.182-19-40.984c0.458-0.092,0.912-0.186,1.351-0.293c1.17-0.287,2.302-0.611,3.403-0.967
		c4.056,9.908,10.941,23.156,17.24,34.977c0.172,0.324,0.539,0.494,0.898,0.412c4.947-1.123,12.428-3.148,21.375-7.881
		C133.7,207.045,134.846,208.528,135.762,209.661z M131.422,204.069c-8.326,4.369-15.322,6.344-20.127,7.459
		c-6.18-11.609-12.869-24.508-16.836-34.182c2.303-0.834,4.454-1.82,6.454-2.939c1.971,10.049,10.383,16.725,14.893,17.785
		c2.369,0.557,3.82,0.467,5.547-1.16C124.299,194.655,128.163,199.788,131.422,204.069z M157.895,150.375
		c-2.07,2.366-7.152,4.524-5.521,5.181c0.771,0.312,1.992,0.747,3.529,1.562c1.602,0.848,1.018,2.398-1.02,3.19
		c-2.791,1.086-9.752,2.626-15.547,3.123c-4.66,5.883-17.697,20.98-20.365,23.421c-1.584,1.447-2.443,1.9-4.117,1.268
		c-3.555-1.346-10.207-8.191-10.75-13.623c-0.156-1.559,0.693-2.322,1.154-2.717c2.783-2.375,19.688-13.305,26.883-17.649
		c-0.408-6.721,0.176-12.202,0.814-14.122c0.475-1.424,1.539-2.035,2.762,0c1.252,2.09,2.148,4.188,3.121,7.198
		c0.623,1.926,1.381,1.121,1.133-2.309c-0.039-0.541-0.129-1.119-0.26-1.711c1.705-2.158,4.158-4.355,5.771-5.451
		c2.33-1.584,3.395-0.441,2.885,1.459c-0.443,1.66-1.686,4.074-2.41,5.703c-0.689,1.554,1.727,0.018,3.512-2.66
		c1.193-0.793,2.445-1.59,3.742-1.877c1.629-0.361,2.104,0.951,1.764,2.004c-0.381,1.182-1.223,2.807-2.76,4.891
		c-0.416,0.271-0.848,0.569-1.303,0.901c-1.139,0.834-1.867,1.935-0.213,1.357c2.676-0.936,4.881-1.709,6.516-1.766
		C158.528,147.704,159.163,148.927,157.895,150.375z M157.961,138.927c-0.615-1.105-1.834-1.543-2.748-1.586
		c-1.449-0.07-2.9,0.33-4.074,0.855c0.082-0.477,0.123-0.939,0.113-1.377c-0.064-2.92-2.07-4.039-4.854-2.783
		c-2.934,1.324-5.82,3.602-7.893,5.684c-0.793-1.65-1.861-3.143-3.107-4.055c-2.023-1.482-4.084,0.045-5.023,2.309
		c-0.785,1.893-1.299,4.932-1.596,7.903c-2.129-0.147-4.328-0.409-6.605-0.809c1.465-5.893,1.977-11.916,1.719-17.545
		c0.998,1.396,1.969,2.828,2.908,4.297c1.926,3.008,1.674-2.039-0.295-5.996c-6.551-13.188-16.451-21.086-26.266-26.371
		c-17.613-9.48-41.326-11.986-55.742-4.451c-2.128,1.111-2.109,1.998-0.791,1.973c0.78-0.014,2.559-0.393,5.189-0.797
		c-3.138,3.938-7.888,11.164-11.283,19.85c-6.736-4.494-15.044-13.99-19.46-26.428c4.816-5.834,10.737-19.424,13.984-31.219
		c3.73-13.543,4.29-24.15,1.426-27.023c-0.311-0.312-0.66-0.535-1.035-0.674C43.961,18.064,58.158,11.23,71.269,7.828
		c-8.344,3.457-15.735,9.305-19.617,18.307c-3.828,8.881-3.514,18.436,0.889,26.908c4.874,9.387,14.129,16.314,24.757,18.531
		c14.63,3.051,29.456,0.23,40.678-7.736c8.102-5.75,13.361-13.727,14.43-21.885c1.303-9.914-1.227-18.764-7.307-25.596
		c-3.586-4.027-8.338-7.18-13.879-9.33c23.869,5.637,54.436,22.629,66.641,51.865c-7.873,1.115-18.439,9.543-23.66,22.291
		c-3.4,8.301-4.33,17.389-2.686,26.279c1.535,8.307,5.25,15.779,10.463,21.039c1.697,1.713,3.273,2.812,4.762,3.326
		C164.192,134.419,161.272,136.841,157.961,138.927z M180.116,109.007c-1.566,5.883-5.449,14.199-12.088,21.461
		c-1.434-0.242-3.07-1.277-4.893-3.115c-9.174-9.256-14.67-27.875-7.428-45.553c4.994-12.195,15.473-20.627,22.787-21.348
		C183.782,74.039,185.127,90.195,180.116,109.007z"/>
	<path d="M85.421,140c-0.954-0.756-1.345-0.17-0.921,1.531l-0.059-0.117c-3.44,0.543-10.886,0.43-17.538-1.268
		c-3.151-0.805-7.049-1.803-9.368-3.539c0.053-0.104,0.105-0.207,0.159-0.318c0.957-1.951-0.56-1.594-1.855-0.588
		c-1.517,1.176-3.146,3.541-3.35,5.307c-0.213,1.842,0.781,1.924,1.559,1.215c0.51,5.291,2.664,10.646,5.818,13.855
		c2.692,2.737,8.063,4.547,13.577,3.259c6.124-1.432,11.06-7.056,12.996-11.163c0.772,1.267,1.907,0.347,1.803-2.188
		C88.152,143.767,86.749,141.052,85.421,140z M73.941,156.303c-4.255,1.259-9.074,0.814-12.491-2.489
		c-0.343-0.332-0.675-0.704-0.996-1.103c2.355-2.745,6.107-4.06,9.64-4.282c6.18-0.392,9.989,1.817,11.407,3.01
		C78.235,154.781,75.01,155.987,73.941,156.303z M82.772,150.024c-1.698-1.279-6.311-4.191-12.814-3.61
		c-2.447,0.219-7.467,0.826-10.624,4.715c-1.843-2.969-3.153-7.038-3.532-11.403c0.238-0.379,0.472-0.764,0.714-1.189
		c2.32,2.008,7.023,3.4,10.637,4.324c8.046,2.059,15.814,1.232,18.046,0.959c0.22,0.729,0.349,1.227,0.484,1.801
		C84.778,147.34,83.788,148.796,82.772,150.024z"/>
	<path d="M54.073,115.82c2.005,0,5.294,0.609,7.874,2.715c1.346,1.098,1.981,0.539,1.562-1.154c-0.883-3.576-3.947-7.52-7.942-6.291
		C53.214,111.814,51.222,115.82,54.073,115.82z"/>
	<path d="M96.027,119.507c-1.782-0.791-5.975-1.268-10.229,1.9c-1.523,1.137-1.646,2.318-0.091,2.174
		c4.843-0.453,8.056,0.725,10.771,1.539C101.055,126.494,99.286,120.955,96.027,119.507z"/>
</g>
<path fill="#E60012" d="M123.881,17.441c5.758,6.467,8.146,14.869,6.91,24.299c-1.014,7.709-6.027,15.279-13.76,20.77
	c-10.854,7.705-25.215,10.428-39.403,7.469c-10.152-2.119-18.992-8.73-23.643-17.686c-4.171-8.031-4.47-17.092-0.838-25.512
	C59.819,11.308,77.48,5.576,91.784,5.367C105.178,5.173,116.877,9.574,123.881,17.441z"/>
<path fill="#E60012" d="M22.074,45.466c2.715-4.984,5.789-9.381,9.12-13.27c0.5-0.117,0.882-0.025,1.216,0.311
	c0.846,0.848,1.338,2.996,1.338,6.242c0,4.482-0.938,11.059-3.18,19.199c-3.533,12.832-9.02,24.469-13.031,29.82
	C13.701,75.654,13.638,60.96,22.074,45.466z"/>
<path fill="#FDD1B0" d="M19.812,151.275c-0.108-0.179-0.17-0.306-0.312-0.575c-4.877,0.37-11.938-2.002-14.758-4.037
	c-1.637-1.181-1.177-2.218,0.017-2.666c0.812-0.305,2.183-0.627,3.548-0.932c0.462-0.102,0.749-0.395-0.125-1.381
	c-1.767-1.992-3.191-3.688-3.906-4.787c-0.74-1.139-0.499-2.502,1.214-2.197c1.503,0.268,4.376,1.533,5.245,1.844
	c0.871,0.312,1.464,0.451,0.676-0.791c-0.537-0.85-2.866-4.178-3.527-5.756c-0.908-2.166,0.01-3.447,1.995-2.41
	c2.039,1.064,3.114,1.969,3.887,2.654c0.152,0.318,0.307,0.6,0.457,0.83c1.191,1.848,1.58,1.496,1.453,0.668
	c-0.362-2.361-0.95-5.326-0.916-6.873c0.033-1.494,1.339-1.656,2.238-0.838c0.771,0.699,2.867,3.375,4.592,6.836
	c-0.471,1.01-0.792,2.051-0.951,3.047c-0.438,2.703,0.26,3.85,0.968,2.475c1.433-2.781,2.486-4.535,3.533-5.746
	c1.341-1.549,2.533-1.363,2.779,0.797c0.331,2.885-0.023,6.264-0.524,10.293c1.69,1.611,5.283,4.425,7.667,6.518
	c2.465,8.925,7.501,15.991,12.935,20.889c-2.98,2.144-6.204,4.709-9.616,7.672C32.23,169.813,22.759,156.056,19.812,151.275z"/>
<path fill="#FDD1B0" d="M84.682,179.655c2.127,7.195,6.312,17.508,10.299,26.383c-10.917,1.186-19.641,1-27.438,0.502
	c-11.894-1.227-19.959-3.203-24.264-6.744c-1-0.824-1.121-1.064-0.657-2.535c2.846-9.018,9.753-18.74,13.665-22.383
	c0.632,0.312,1.253,0.596,1.859,0.84C66.956,179.288,76.809,180.473,84.682,179.655z"/>
<path fill="#FABF1B" d="M29.292,213.006c-3.19-2.406-8.103-6.859-10.657-10.135c9.932-10.936,23.04-24.041,32.116-31.456
	c0.731,0.553,1.462,1.067,2.188,1.542c-1.687,1.555-4.261,4.656-6.782,8.461c-5.64,5.564-11.526,12.117-17.97,19.986
	c-0.252,0.309-0.245,0.754,0.018,1.053c0.807,0.922,2.101,2.053,3.215,2.982C30.673,207.303,29.873,209.905,29.292,213.006z"/>
<path fill="#014099" d="M32.108,203.885c-0.762-0.648-1.564-1.363-2.194-2.006c4.479-5.451,8.69-10.262,12.735-14.541
	c-1.472,2.816-2.718,5.758-3.475,8.588c-2.308,1.049-4.435,3.062-6.872,7.58C32.24,203.622,32.175,203.754,32.108,203.885z"/>
<path fill="#884C2F" d="M74.123,277.639c-9.052,15.477-26.069,19.641-33.9,8.643c-5.137-7.215-4.172-21.842,4.474-32.189
	c9.754,6.414,22.779,8.785,34.277,9.037C78.96,268.051,76.037,274.364,74.123,277.639z"/>
<path fill="#FFFFFF" d="M88.604,258.088c-16.048,1.428-40.762-0.641-50.78-18.283c-4.898-8.627-7.748-22.971-1.267-35.938
	c0.606-1.215,1.418-2.359,2.429-3.027c0.533,1.17,1.692,2.141,3.683,3.361c5.041,3.094,13.358,5.174,24.43,6.152
	c7.538,0.666,18.536,0.521,29.378-1.033c2.334,5.055,4.496,9.391,5.998,12.018c1.488,2.602,2.045,3.301,5.16,3.057
	c6.488-0.514,13.611-2.67,19.459-5.082C131.44,239.485,113.141,255.905,88.604,258.088z"/>
<path fill="#884C2F" d="M136.223,251.094c3.197,6.779,6.109,19.262,3.16,32.066c-1.779,7.723-8.26,12.445-17.867,10.67
	c-8.826-1.631-19.74-13.234-20.389-33.021c14.604-3.693,22.979-10.998,27.277-19.031
	C131.459,243.116,133.887,246.143,136.223,251.094z"/>
<path fill="#FABF1B" d="M135.762,209.661c-5.068,3.803-15.84,9.1-28.604,10.457c-6.357-10.492-15.049-31.182-19-40.984
	c0.458-0.092,0.912-0.186,1.351-0.293c1.17-0.287,2.302-0.611,3.403-0.967c4.056,9.908,10.941,23.156,17.24,34.977
	c0.172,0.324,0.539,0.494,0.898,0.412c4.947-1.123,12.428-3.148,21.375-7.881C133.7,207.045,134.846,208.528,135.762,209.661z"/>
<path fill="#014099" d="M131.422,204.069c-8.326,4.369-15.322,6.344-20.127,7.459c-6.18-11.609-12.869-24.508-16.836-34.182
	c2.303-0.834,4.454-1.82,6.454-2.939c1.971,10.049,10.383,16.725,14.893,17.785c2.369,0.557,3.82,0.467,5.547-1.16
	C124.299,194.655,128.163,199.788,131.422,204.069z"/>
<path fill="#FDD1B0" d="M157.895,150.375c-2.07,2.366-7.152,4.524-5.521,5.181c0.771,0.312,1.992,0.747,3.529,1.562
	c1.602,0.848,1.018,2.398-1.02,3.19c-2.791,1.086-9.752,2.626-15.547,3.123c-4.66,5.883-17.697,20.98-20.365,23.421
	c-1.584,1.447-2.443,1.9-4.117,1.268c-3.555-1.346-10.207-8.191-10.75-13.623c-0.156-1.559,0.693-2.322,1.154-2.717
	c2.783-2.375,19.688-13.305,26.883-17.649c-0.408-6.721,0.176-12.202,0.814-14.122c0.475-1.424,1.539-2.035,2.762,0
	c1.252,2.09,2.148,4.188,3.121,7.198c0.623,1.926,1.381,1.121,1.133-2.309c-0.039-0.541-0.129-1.119-0.26-1.711
	c1.705-2.158,4.158-4.355,5.771-5.451c2.33-1.584,3.395-0.441,2.885,1.459c-0.443,1.66-1.686,4.074-2.41,5.703
	c-0.689,1.554,1.727,0.018,3.512-2.66c1.193-0.793,2.445-1.59,3.742-1.877c1.629-0.361,2.104,0.951,1.764,2.004
	c-0.381,1.182-1.223,2.807-2.76,4.891c-0.416,0.271-0.848,0.569-1.303,0.901c-1.139,0.834-1.867,1.935-0.213,1.357
	c2.676-0.936,4.881-1.709,6.516-1.766C158.528,147.704,159.163,148.927,157.895,150.375z"/>
<path fill="#FFFFFF" d="M157.961,138.927c-0.615-1.105-1.834-1.543-2.748-1.586c-1.449-0.07-2.9,0.33-4.074,0.855
	c0.082-0.477,0.123-0.939,0.113-1.377c-0.064-2.92-2.07-4.039-4.854-2.783c-2.934,1.324-5.82,3.602-7.893,5.684
	c-0.793-1.65-1.861-3.143-3.107-4.055c-2.023-1.482-4.084,0.045-5.023,2.309c-0.785,1.893-1.299,4.932-1.596,7.903
	c-2.129-0.147-4.328-0.409-6.605-0.809c1.465-5.893,1.977-11.916,1.719-17.545c0.998,1.396,1.969,2.828,2.908,4.297
	c1.926,3.008,1.674-2.039-0.295-5.996c-6.551-13.188-16.451-21.086-26.266-26.371c-17.613-9.48-41.326-11.986-55.742-4.451
	c-2.128,1.111-2.109,1.998-0.791,1.973c0.78-0.014,2.559-0.393,5.189-0.797c-3.138,3.938-7.888,11.164-11.283,19.85
	c-6.736-4.494-15.044-13.99-19.46-26.428c4.816-5.834,10.737-19.424,13.984-31.219c3.73-13.543,4.29-24.15,1.426-27.023
	c-0.311-0.312-0.66-0.535-1.035-0.674C43.961,18.064,58.158,11.23,71.269,7.828c-8.344,3.457-15.735,9.305-19.617,18.307
	c-3.828,8.881-3.514,18.436,0.889,26.908c4.874,9.387,14.129,16.314,24.757,18.531c14.63,3.051,29.456,0.23,40.678-7.736
	c8.102-5.75,13.361-13.727,14.43-21.885c1.303-9.914-1.227-18.764-7.307-25.596c-3.586-4.027-8.338-7.18-13.879-9.33
	c23.869,5.637,54.436,22.629,66.641,51.865c-7.873,1.115-18.439,9.543-23.66,22.291c-3.4,8.301-4.33,17.389-2.686,26.279
	c1.535,8.307,5.25,15.779,10.463,21.039c1.697,1.713,3.273,2.812,4.762,3.326C164.192,134.419,161.272,136.841,157.961,138.927z"/>
<path fill="#E60012" d="M180.116,109.007c-1.566,5.883-5.449,14.199-12.088,21.461c-1.434-0.242-3.07-1.277-4.893-3.115
	c-9.174-9.256-14.67-27.875-7.428-45.553c4.994-12.195,15.473-20.627,22.787-21.348C183.782,74.039,185.127,90.195,180.116,109.007z
	"/>
<path fill="#6D101D" d="M82.772,150.024c-1.698-1.279-6.311-4.191-12.814-3.61c-2.447,0.219-7.467,0.826-10.624,4.715
	c-1.843-2.969-3.153-7.038-3.532-11.403c0.238-0.379,0.472-0.764,0.714-1.189c2.32,2.008,7.023,3.4,10.637,4.324
	c8.046,2.059,15.814,1.232,18.046,0.959c0.22,0.729,0.349,1.227,0.484,1.801C84.778,147.34,83.788,148.796,82.772,150.024z"/>
<path fill="#ED1C24" d="M73.941,156.303c-4.255,1.259-9.074,0.814-12.491-2.489c-0.343-0.332-0.675-0.704-0.996-1.103
	c2.355-2.745,6.107-4.06,9.64-4.282c6.18-0.392,9.989,1.817,11.407,3.01C78.235,154.781,75.01,155.987,73.941,156.303z"/>
</svg>
