<?xml version="1.0" encoding="utf-8"?>
<svg version="1.1" id="Yoshi" xmlns="http://www.w3.org/2000/svg" xmlns:xlink="http://www.w3.org/1999/xlink" x="0px" y="0px"
	 viewBox="0 0 592.1 858.5" style="enable-background:new 0 0 592.1 858.5;" xml:space="preserve">
<style type="text/css">
	.st0{fill:#FFDD00;}
	.st1{fill:#FFFFFF;}
	.st2{fill:#72BE44;}
	.st3{fill:#EC1C24;}
	.st4{fill:#E66325;}
	.st5{fill:#0B0204;}
</style>
<g>
	<path class="st0" d="M490.7,660.2c0,0,22.4-1.3,31.7,11.4c9.3,12.7,3.8,45.2,1.7,50.3c0,0,16.9,21.5,11.4,57.9
		c-5.5,36.3-30,59.1-61.2,68.4c-31.3,9.3-48.1,5.5-53.2,1.3c-5.1-4.2-18.6-27.5-18.6-27.5l-31.3,11l-25.3,4.2l-19-5.1l-12.2-20.3
		c0,0,6.8-24.1,8.4-24.5C324.7,786.9,490.7,660.2,490.7,660.2"/>
	<path class="st1" d="M348.3,628.9l-29.6,0.4l-45.2-8l-41.4-22l-28.3-35.1l-17.3-44.8l0.8-53.2l6.8-34.2l-20.3-84.5l-3.8-28.7
		l5.9-35.5c0.4,1.3,103.9-103.5,103.9-103.5s84,7.2,84.5,3.4c0.4-3.8,38,33.4,38,33.4l3,60l-13.9,19.4l-13.5,14.4l-36.7,20.3
		l-32.1,15.2c0,0,5.5,19.8,6.3,18.6c0.8-1.3,49.4,56.6,49.4,56.6l13.1,17.3l17.7,14.4l17.3,5.5l11.4-0.4l8.4-11.4l5.1-18.6l11,5.5
		l4.6,15.2c0,0,0.4,11.8,0.8,13.1c0.4,1.3-3.4,11-3.4,11L348.3,628.9z"/>
	<polygon class="st1" points="500,501.8 481.8,545.7 454.8,579.9 422.2,603.1 407.5,549.9 	"/>
	<path class="st2" d="M258.8,253.2c0,0,9.7-20.1,32.9-34.2c12.2-7.4,28.4-13.6,48.6-13.3c43.3,0.6,54.9,31.9,54.9,31.9l12.2-5.7
		l7.6,0.8l0.8-15.6l-4.6-21.5l-4.2-10.1l11-22.8l3.8-19.8l0.4-24.1l9.7-22.4l3-28.3l-6.8-27l-10.6-11.8l-13.1-4.6l-24.1,4.6l-8,3
		L369,19.5l-7.6-11.4l-11-3.8l-22,3.4L306.1,19l-22.4,24.5l-9.3,19l-24.5-16l-28.7-14.8l-27.9-4.6l-31.7,2.5c0,0-25.8,8.4-27,9.3
		c-1.3,0.8-27.9,16.5-27.9,16.5L89,74.8l-13.1,27l-8.9,22.4l-3,33.4l2.1,23.7l9.7,22.8l9.3,19l17.7,21.1c0,0,19.8,17.7,21.1,17.3
		c1.3-0.4,32.5,16,32.5,16l24.9,7.6l30.4,3l27-4.6l19-3l-2.1-15.6L258.8,253.2z"/>
	<path class="st2" d="M313.8,566c0,0-46.3-31-57.9-104.2c-11.1-70.4,16.3-107.6,16.3-107.6l27.5-4.9l9.3-4.6l6.3,19.8l60.8-23.2
		l43.5-15.2v-37.6l-15.2-13.1l-11.8-5.9l-2.5-13.1l4.6-17.3l12.7-5.9l16.9,2.1l13.5,15.2l8.4,25.3l21.1-19.4l18.2-30.8l8.4-23.7
		l12.2-11l17.3-0.4l11,8l2.5,16.5l-3,13.5l-9.3,12.7l-11,13.1l-8.4,13.9l3,8.9l15.2-7.2l13.5-9.3L549,245l16.5-4.6l9.7,3.8l7.6,11.4
		l-0.4,16.9l-6.8,10.6l-10.6,5.9l-17.3,5.1l-26.2,11v6.8c0,0,8.9,1.3,10.1,0.8c1.3-0.4,19-0.8,19-0.8l14.8-3l12.2-0.4l8.9,11.4
		l1.3,10.6l-3.8,8.9l-10.6,7.2l-8.9,0.8l-40.5-2.5l-12.7,13.5l-15.6,8.9l-16,2.5l-26.2-1.7l-31.3,14.8l-49.4,29.6l-30.4,23.2
		l11,19.8l34.2,25.8c0,0,24.9,7.2,26.2,6.3c1.3-0.8,26.6-7.2,26.6-7.2l11.8-8.9l1.7-24.9l25.3-5.1l18.2-6.3l6.8,6.3V471l-4.2,27.9
		l-6.5,13.5c-17.9,41-56.5,53.8-56.5,53.8l10.1,64.1l-8.4,12.2c0,0-16.9,9.3-17.3,11c-0.4,1.7-18.6,11-18.6,11l-14.4,2.1l-30.8-22.8
		l-12.7,7.2l-19,7.6h-8.9l-16.5-11.8l-12.7-21.5l26.6,2.1l30.8,1.7l-12.2-18.6l-14.4-30L313.8,566z"/>
	<polygon class="st2" points="234.7,365.4 210.2,397 194.6,433.8 177.3,415.2 137.6,384.4 117.3,372.1 102.5,382.7 86.9,386.9 
		72.5,385.6 62.8,398.3 55.6,412.2 43,422.4 32.4,422.8 21.4,415.2 18.9,399.1 24,383.5 33.7,375.5 56.9,361.6 56.1,354.8 
		45.9,354.8 29.9,358.6 13.4,357.3 5.4,345.5 5.4,329.9 14.7,318.9 26.9,314.3 37.5,316.8 48.5,319.7 57.3,320.6 62.4,311.3 
		51,297.4 36.6,290.6 26.5,278.4 23.6,262.7 28.2,251.7 39.6,244.6 52.3,242.9 61.1,250.5 66.2,260.6 76.3,278.4 85.2,290.6 
		94.9,291 93.7,274.6 99.1,259.8 109.7,250.5 134.6,266.5 134.2,280.9 128.3,291.9 126.6,302 129.1,315.9 128.7,331.6 152.8,338.8 
		175.6,344.2 185.3,360.3 200.9,369.6 213.2,370.8 	"/>
	<path class="st3" d="M426,381.4c0,0-28.3,12.7-27.9,14.8c0.4,2.1-33.4,24.9-33.4,24.9l11.8,17.7l21.1,14.4l22.8,5.5l7.2-2.5l8-15.6
		l2.1-12.7l-0.4-24.9L426,381.4z"/>
	<path class="st3" d="M262.6,289.8l-8,15.6l-17.3,19.8l-15.2,10.6l-10.6,3.8l-11-2.1l-6.8-11c0,0-2.1-11-1.7-12.7
		c0.4-1.7,8-24.1,7.6-25.3c-0.4-1.3,19.4-1.7,19.4-1.7l40.1-9.3L262.6,289.8z"/>
	<polygon class="st1" points="323,150 352.1,152.1 369.9,158 375.8,160.5 393.9,143.2 402.4,121.7 408.7,84.9 405.4,65.5 
		393.1,50.3 377.1,46.9 353,52.8 346.2,51.6 343.7,33.4 335.7,21.1 321.3,19.5 306.1,20.7 289.6,36.4 274.4,62.5 287.5,77.3 
		305.7,103.5 315,122.9 	"/>
	<path class="st4" d="M420.1,155.5c1.3,1.3-5.9,16-5.9,16l-5.5,15.2l5.5,19l2.5,14.4l16.9-12.7l8.4-16.5l-0.8-11l-10.1-16.9
		L420.1,155.5z"/>
	<polygon class="st4" points="403.7,278.8 386.3,302 418.4,301.6 419.3,290.2 	"/>
	<path class="st4" d="M381.3,307.5c0.4-1.3-3.4,33.8-3.4,33.8l-24.5,11.8l-27.9-14.4l25.8-11.8L381.3,307.5z"/>
	<path class="st4" d="M292.6,639l22.4,20.3l24.9-3.8l17.7-11.8l29.1,22.4l26.2-4.6l18.6-12.2l15.2-17.3l-4.2-21.1l23.2,3.4l9.7,14.4
		l0.4,11c0,0,18.2,8.4,19.4,8.4c1.3,0,8.9,10.1,8.9,10.1l6.3,23.7v21.1c0,1.3-3,13.5-3,13.5l11.8,32.9c0,0,2.1,20.7,2.1,22.4
		c0,1.7-8.9,19.8-8.9,19.8s-13.5,19.8-14.4,21.5c-0.8,1.7-17.7,11-17.7,11l-26.2,11l-28.7,2.1l-24.9-3.8l-16.5-8.4l-10.6-11l-27,3.8
		l-26.6,0.4l-19-6.3l-15.2-19.4l-4.2-25.3l7.6-24.5l16-16.5l14.4-8.4l-0.8-31.3l-14.8-2.1l-14.4-11l-3.8-15.2L292.6,639z"/>
	<path class="st5" d="M589,315c-8.4-14.7-20.5-11.9-33.2-8.9l-5,1.1c-11.3,2.5-22.4,1.6-26.9,1.1c4.6-2.3,16.6-8.3,23.3-10.7
		c1.6-0.6,3.6-1,6-1.5c9.9-2.2,25-5.6,31.5-23c3.9-10.3,2.8-20.5-2.9-27.9c-4.9-6.3-12.5-9.6-19.9-8.8c-10,1.1-15.3,7.2-20.5,13.2
		c-2.4,2.8-4.9,5.7-8.1,8.3c-7.6,6.4-18.9,11.8-23.2,13.8c-0.4-0.5-0.8-1-1.2-1.5l0,0c5.7-10.6,10.6-16.5,14.9-21.6
		c3.8-4.6,7.4-9,10.8-15.6c4.7-9.1,7.3-23,2.7-33.6c-2.9-6.6-8.8-12-16.2-14.1c-22.9-6.5-29.8,13.3-36.4,29.9l-0.5,1.1
		c-6,15.3-19.3,35.7-21.5,39.1c-5.7,4.1-10.6,8.8-13.9,12.3c-3.7-15.2-11.5-27.9-21.5-34.3c-2.2-1.4-4.6-2.5-6.9-3.3
		c0-1.2,0.1-2.3,0.1-3.4c0-0.8,0-1.5,0-2.3c15.5-12.5,25.7-24,25.5-39c-0.2-13.2-16.7-27.9-22.2-32.4c3.1-14.8,3.7-27.8,3.8-33.9
		c11.3-17.9,14-45,10.7-62.7c-2.3-12.4-8.4-23.4-16.9-28.8c-15.8-10-32.3-8.1-47.4,0.2c-0.4-7.5-2.8-18.6-13.6-24.7
		c-15.6-8.8-43.2,1.1-65,21.6c-12.8,12-19.3,25.3-22.1,32.5C224.6,12.8,165,18,126.4,38.1C87.5,58.4,52,114.4,61.3,171.7
		c4.9,30,20.4,57.3,43.1,78.2c-2.6,1.5-5.7,3.9-8.4,7.8C92,263.5,90,270.9,90,280c0,2.2,0.2,4.5,0.4,6.9c-0.8-0.2-1.7-0.4-2.5-0.6
		c-3.1-4.1-14-18.2-16.9-26.9c-4.7-14.1-17.6-23.8-31.9-19.7c-7.7,2.2-14.5,7.7-18.1,14.7c-3.3,6.5-2.7,15.5-0.1,22.5
		c4.4,11.9,15.4,16.8,22.6,20.6c2.2,1.2,4.3,2.3,5.4,3.2c3.3,2.8,7.5,9.2,9.5,12.5c-0.8,1.5-1.5,3-2.3,4.7
		c-3.6-0.4-10.1-1.3-14.6-3.1c-5-2-20.3-8-31.5,1.5c-10.1,8.5-13,23.1-6.8,34.7c5.8,10.9,20.1,14.4,36.4,8.9
		c7-2.4,11.1-1.9,12.8-1.4c0.1,0.7,0.3,1.5,0.4,2.2c-4.4,3.2-16.4,10.4-25.6,15.6c-8.5,4.9-12.9,14.9-12.9,24.2
		c0,5.7,1.4,11.5,4.1,16.4c3.4,6.3,9.7,9.4,16.3,10.1c7.2,0.8,14.5-2.5,20.1-8.9c4.3-4.9,6-8.7,7.7-12.3c2-4.5,4-8.8,11.7-15.8
		c6.3,0.5,27,1.3,42.4-12.1c8.1,4.4,39,21.4,73,54.2c-2.9,8.8-5.2,18.2-6.4,28.3c-1.1,9.3-2,19.7-2,28.3
		c0,47.1,16.4,84.1,50.7,114.2c14.2,12.5,31.5,20,48.1,24.4c1.8,2.9,4.8,7.6,8.9,12.8c-2.7,4.2-9.3,16.2-5.1,30.7
		c2.2,7.5,9.4,14.6,18.2,18.2c3.4,1.4,7.7,2.2,12.3,2.4c-0.2,5.2,0,13.7,1.9,23.9c-7.6,2.6-15.7,7.2-23,14.7
		c-21.7,22.1-18.3,58.9-6.6,73.6c6.4,8,14.7,15.1,27.5,18.5c1.5,3.2,5.2,8.9,13.3,14.2c9.7,6.2,38.9,7.5,59.6-4.9
		c4.7,2.7,9.9,4.9,15.8,6.5c3.6,4.8,10.8,13.2,18.7,17c10.7,5.1,34.3,6.8,61.7-4.2c26-10.4,52-29.9,57.5-75
		c0.4-3.6,0.6-7.1,0.6-10.4c0-23.3-10.4-40.5-14-45.5c1.1-3.6,4.3-9.5,4.5-19.8c0-0.9,0-1.7,0-2.5c0-16.4-5.8-25.3-9.6-30.1
		c-4.2-5.4-11-7.7-14-8.5c-2.2-4.7-4.8-8.5-7.8-11.2c-8-7.3-16.5-9.6-20.5-10.4c1-16.1-7.7-24.4-15.6-28.2
		c-6.1-2.9-14.5-2.7-18.3-2.4c-0.7-4-1.4-7.9-2-11.7l0.3-0.3c7.7-7.2,33.9-30.8,48-60.1c18.1-37.9,18.8-73.4,18.6-82.9
		c-0.2-9.4-3.7-15.2-8.5-18.1c-4.8-2.8-11.1-2.6-18.9,1.6c-9.7,5.1-21.4,6.6-27.2,7c-3.7-11.5-11.5-16.9-14.3-18.5
		c0.1-1.5,0.1-3.1,0.1-4.7c-0.3-19.2-6.3-30.5-10.4-36c11.2-6,19.4-9.8,22.5-11.3c4.8,1.8,19.4,5.9,39.5,0.6
		c19.7-5.3,28.7-19.2,31.8-24.6c5.9,0.3,22.1,1.1,37.4,2.7c10.8,1.1,20.4-3.1,25.6-11.2C593.1,331.5,593.3,322.6,589,315
		 M538.2,263.7c3.6-3,6.4-6.3,8.9-9.1c4.9-5.7,8.5-9.8,15.5-10.6c4.8-0.5,9.8,1.7,13.1,5.9c2.4,3.1,5.8,9.9,1.8,20.5
		c-5.1,13.6-16.7,16.2-26.1,18.2c-2.5,0.6-4.9,1.1-6.9,1.8c-6.6,2.3-17.4,7.7-22.8,10.4c-0.9-6.9-3-15.3-7.3-22.8
		C519.8,275.6,530.5,270.2,538.2,263.7 M438.3,185.5c0.2,10.8-6.8,19.6-18.5,29.6c-1.7-14.4-6.2-24.5-8-28.4
		c4.5-8.2,7.7-16.9,10-25.4C428.5,167.4,438.2,177.8,438.3,185.5 M356.5,9.9c9.4,5.2,9.8,18,9.6,22.8c-6,4.3-11.8,9.5-17.1,15.2
		c0.4-10-1.4-23.5-12.2-30c-5.2-3.1-11.3-3.2-17.3-1.8C333.7,8.1,348.1,5.2,356.5,9.9 M389.2,53.3C398.3,57.9,405,70.8,405,88
		c0,14.2-3.7,33.1-13.3,53.2c-1.7,1.8-9.4,9.7-18.1,16.1c-11.6-9.4-32.2-13.6-47.8-12.9c-0.9-4.8-3-14.5-8.8-27.4
		c1.3-4.7,6.8-22,24.2-47.2c2.4-3.5,5-7,7.8-10.3C355.4,55.8,374.5,45.9,389.2,53.3 M300.6,30.2c0.3-0.3,0.6-0.5,0.8-0.8
		c9-6,21.5-10.6,31.5-5c9.4,5.3,9.6,22.2,8.8,32c-2.3,3-4.6,6-6.7,9c-12.8,18.6-19.4,33-22.7,41.8c-1.6-3-3.4-6.1-5.4-9.4
		c3-1.4,6.7-4.5,11.1-11c9.4-13.9,9.5-24.8,5.3-27.5c-4.6-3-14-1.1-21.6,12.8c-2.4,4.4-3.9,8.1-4.7,11.3
		c-5.1-6.7-11.2-13.8-18.3-20.9C281.2,56.3,287.8,42.5,300.6,30.2 M309.4,71.1c1.4-3.1,4.2-4.8,6.2-3.9c2,0.9,2.4,4.2,1,7.3
		c-1.5,3.1-4.2,4.8-6.2,3.9C308.4,77.4,308,74.2,309.4,71.1 M50.9,345c0,1.7,0.1,3.7,0.4,5.6c-3.4-0.3-8.2,0-14.4,2.1
		c-9.3,3.1-21.9,3.7-26.5-5.1c-4.5-8.4-2.3-19.5,5-25.7c6.6-5.6,15.8-3,23.1-0.2c4.7,1.9,11,2.9,15.1,3.4
		C52,331,50.9,337.5,50.9,345 M118.5,369.6l-2.4-1.2l-1.9,1.9c-15.1,15.1-40.5,11.9-40.8,11.9l-1.7-0.2l-1.3,1.2
		c-9.9,8.8-12.3,14.2-14.7,19.5c-1.5,3.3-2.9,6.4-6.5,10.5c-3.9,4.5-8.8,6.7-13.5,6.2c-4.1-0.4-7.7-2.8-9.9-6.9
		c-5.4-9.7-4.5-23.9,5.3-29.5c11.9-6.8,27.1-17.8,27.7-18.3l2-1.5l-0.5-2.4c-6.3-30.2,6-51.2,12.3-59.5c2.4-3.2,4-4.2,3-4.5
		l-0.4-0.1c-1.5,0.1-2.9,0.5-4.9,2c-2.1,1.6-4.7,4.1-7.2,7.4c-2.3-3.6-5.8-8.5-9.1-11.2c-1.7-1.4-4-2.6-6.7-4.1
		c-6.6-3.5-15.5-8.3-19-17.5c-2.4-6.4-0.9-11.7,0.7-14.9c2.6-5.2,7.6-9.2,13.3-10.8c9.9-2.8,18,5.4,21.7,14.6
		c4.4,11.1,18.3,29.2,18.9,30l0.9,1.2l1.5,0.2c1.4,0.2,3.2,0.6,4.7,1.1c-4.3,4.3-11.5,13.4-11.5,27.1c0,2.6,0.7,5.8,2,8.6
		c2.2,4.5,5.7,7.1,5.2,5.5l-0.1-0.5c-0.6-2.6-0.8-3.6-1-6c-1.6-20.1,12.3-30.8,13-31.3l2-1.4l-0.5-2.4c-6.2-32,8.6-38,11.5-38.8
		c6.6,5.4,13.7,10.3,21.2,14.6c-0.6,3.5-2.2,10.4-6.1,19.3c-3.7,8.5-2.8,12.9-1.6,18.4c1,4.9,2.3,11,1.3,23.7l-0.3,3.2l3.1,0.8
		c0.2,0.1,19.4,5,44.7,14.3c6.7,13.3,17.1,19.8,21.1,21.8c11.2,5.5,20.5,2.6,29.4,1.3c-8.3,9.9-21.4,27.4-30.6,50.4
		C153,385,119.9,370.3,118.5,369.6 M167.4,331.2c0.4,2.8,0.9,5.5,1.6,8c-17.3-6.2-29.6-9.3-35.6-10.9c0.1-2.2,0-3.7,0-5.5
		c0-7.9-1-12.8-1.8-16.6c-0.5-2.3-0.9-4-0.9-5.9c0-2.2,0.5-4.5,2-7.9c3.4-7.9,5.2-14.3,6.1-18.5c8.5,4.3,17.5,7.8,26.9,10.5
		c2,0.6,4,1.1,6,1.6C169.5,293.7,165,312.2,167.4,331.2 M294.5,798.3c-8.9-11.1-12.9-43.4,6.6-63.2c15.3-15.6,36.2-18.7,44-19.3
		c1.9-0.2,2.4-0.2,2.4-0.2c1,0,0.9-0.4,0.1-1c-0.5-0.3-1.6-0.9-2.6-1.2c-3.8-1.3-11.6-2.1-20.8-0.3c-1.7-9.5-1.7-17.5-1.5-21.9
		c9-0.9,17.5-3.9,20.9-8.8c0.7-0.9,1-1.5,1.2-2.2l0.2-0.6c0.3-1.2-1-0.1-3,0.8c-11.6,5.2-26.7,4.3-36.9,0.2
		c-6.6-2.7-11.2-7.2-12.7-12.4c-2.7-9.4-0.3-17.2,1.7-21.5c3.3,3.7,7,7.3,11,10.7c-0.6,0-1.2,0-1.7,0c-2.9-0.1-3.2-0.1-3.2-0.1
		c-2.4-0.3,1.6,1.8,3.1,2.5c20.7,10.4,47-5.9,54.7-11.2c0.9,0.8,1.8,1.6,2.7,2.4c-2.3,4.8-7.2,17.7,0.2,32.2
		c5.7,11.3,14,16.2,25.7,17.7c-0.4,4.7-0.5,13.7,2.5,24.6c-5.1,2.5-9.9,5.7-13.9,9.8c-12.1,12.7-17.8,30.3-16.1,47.9
		c1,10.4,3.6,19.7,7.9,27.6C315.4,825,302.1,807.7,294.5,798.3 M293.4,630.2c24.2,4.4,44.8,3.1,49.9,2.7c2.8,3.3,5.8,6.6,9,9.8
		c-11.8,8.5-24.6,12.1-34.6,13.5C307.3,647.4,298.4,636.7,293.4,630.2 M332,829.5c-2.6-1.7-4.6-3.8-6.2-5.8
		c11.8,0.8,26.6-0.9,45.6-6.5c2.3,3.2,5,6,8,8.6C362,833.5,341.2,835.5,332,829.5 M511.7,668.7c2,1.3,3.7,2.7,4.4,3.7
		c2,2.7,7.2,7,6.8,25.1c-0.3,12.3-3.7,21.2-3.7,21.3l-0.8,2l1.4,1.7c0.2,0.2,15.8,20.1,12.2,50.7c-5,41.1-28.3,57.4-53.3,67.9
		c-27.5,11.5-48.2,8.1-52.1,6.2c-3.3-1.6-6.9-4.5-9.6-7.2c3,0.3,6.1,0.4,9.3,0.4c47.8,0.2,77.2-17.9,92.4-52.3
		c4-9.1,5.5-18,5.5-26.4c0-22-10.5-39.9-13.9-45.2c2.8-9.3,4.1-18.4,4.1-26.8C514.4,682.2,513.4,675,511.7,668.7 M452.1,627.9
		c1.2-3.4,1.5-5.8,1.2-5.9c-0.3-0.1-1,0.5-3.3,3.1c-0.8-3.2-1.6-6.6-2.3-9.9c3.4-0.5,12.1-0.6,19.3,7.3c6.4,6.9,5.8,18,4.2,26.1
		c-0.1,0.6-0.2,1.2-0.4,1.8c-1.5,6.3-2.9,9-1.6,8.4c1.1-0.5,3.5-2.2,6.6-7c0.3-0.5,0.6-1.1,0.9-1.7c0.7-1.4,1.3-3.1,1.8-4.9
		c3.4,0.7,10.1,2.8,16.3,8.5c8.9,8.2,16.9,32.4,9.7,62l-0.6,1.8l1.1,1.6c0.2,0.3,21.5,35.1,7.1,66.7c-13.7,30.1-40.8,46.6-85.8,47.3
		c-32.5,0.5-55.1-19.7-58.1-50.5c-1.9-19.7,7.1-34,14.7-41.7c11.2-11.3,28.1-17,42.9-18.6c1-0.1,1.7-0.2,2.7-0.3
		c1.3-0.1,0.5-0.6-0.7-1.2c-0.7-0.3-1.2-0.5-2-0.7c-6.5-1.8-17.2-1.4-27.8,1.9c-2.4-9.1-2.4-16.5-2.1-20.6c0.4,0,0.7,0,1.1,0
		c9.2,0,14.4-2.3,17.4-4.5c1.6-1.2,2.5-2.3,3.1-3c1-1.2-0.6-0.7-0.6-0.7c-1.4,0.3-2.1,0.4-3.8,0.6c-11.9,1.7-29.2,1.8-39.8-9.5
		c-9.8-10.4-6.7-22.7-5.2-27.1c3.6,2.8,7.3,5.6,11.3,8.3c-2.8,0.3-3.6,0.4-3.6,0.4s-1.9,0.1-0.8,0.8c1.3,0.8,3.7,2.2,6.9,3
		c7.5,2,20.5,2.1,39.5-9.1C442.2,648.1,449.5,635.5,452.1,627.9 M449.9,453c0.2,8.6-2.7,15.8-8.2,21c-7,6.6-17.6,9.5-30.9,8.5
		c-24.2-1.9-49-19.5-64.1-45.2c5.1-4,10.2-7.9,15.3-11.7c2.4,3.7,7.4,9.9,17.5,20c21.1,21.2,43.4,17.7,50.7,12.7
		c2-1.4,3.3-2.8,4.4-4c1.5-1.8,1.8-3.1,1.8-3.1c0.3-1,0.2-1.4,0.1-1.4c-0.4-0.1-1.8,0.9-3.9,1.8c3.1-4.1,6.5-10.5,8.2-20
		C444.4,434.5,449.7,440.7,449.9,453 M434.3,418.8c0.4,22.9-10,33.8-11.9,35.7c-26.2,3-47-24.1-53.4-33.6
		c20.3-14.3,40.1-26,55.7-34.5C427.8,390.2,434,400.2,434.3,418.8 M582,334.7c-3.7,5.7-10.6,8.6-18.5,7.8c-19.3-2-40.1-2.8-40.3-2.8
		l-2.6-0.1l-1.1,2.3c-0.3,0.7-7.6,16.2-28.5,21.8c-21.3,5.7-35.9-0.8-36-0.9l-1.6-0.7l-1.6,0.7c-0.7,0.3-72.8,32.7-127.6,82.1
		l5.7,6.8c3.6-3.2,7.2-6.3,10.9-9.4c16.4,27.4,43.7,47,70,49c15.4,1.2,28.1-2.5,36.7-10.5c7.1-6.7,10.7-16,10.5-26.7
		c0-1.3-0.1-2.4-0.2-3.6c6.3-0.8,18.3-2.9,28.9-8.5c5.2-2.8,9.3-3.5,11.6-2.2c2.4,1.4,3.8,5.7,3.9,12c0.2,9.1-0.4,41.4-17.8,77.8
		c-12.7,26.6-33.6,47-42.1,55c-1.9-14.4-2.6-24.8-2.6-25l-8.8,1.7c0,0.3,3.1,40.3,12.7,70.5c-6.9,7.1-16.6,16.2-26.9,22.1
		c-9,5.1-18.8,8.1-26.8,9.7c-63.4-42.8-72.4-107-72.4-107.6l-8.9,0.6c0.1,1.9,2.7,34.3,28.8,69c-17.2,0.5-66.4-0.8-98.6-29
		c-38.6-33.8-53.9-77.2-46.9-134.3c6.5-53.5,45.5-93.2,45.9-93.6l7.4-7.3c1.4-1.3,2.5-2.4,2.2-2.7c-0.1-0.3-1.1,0.1-3,0.7l-10.4,2.9
		c-6.6,1.9-25.8,5.6-35.4,1.1c-4.7-2.2-20.1-11.2-23-33.6c-2.3-17.7,1.6-35.3,3.4-42.4c4.5,0.9,8.8,1.5,13,2
		c-1.3,5.9-4.1,20.7-2,32.9c1.8,10.7,6.3,17.7,12.9,20.3c7.4,2.9,16.8,0.1,28.1-8.3c17.2-12.9,27.2-28.2,31.5-36.8
		c3.8,4.5,7.1,6.8,9.6,7.9c3,1.4,4.1,1.2,4.1,1.2c1.5,0.1-1.3-2.5-2.3-3.7c-16.2-22.3-12.3-59-10.1-72.7c0.5-3.4,0.7-4,0.7-4
		c0.4-2.8-2.3,1.2-3.6,3.1c-3.4,5.1-6.4,13-8.2,23.4c-1.4,7.9-1.4,16.2,0,23.9c-11.6,3.5-44.4,11.1-83.8-0.2
		c-51.9-14.9-90.7-56.7-98.8-106.3c-8.8-53.9,23.8-105.8,60.3-124.9c37.5-19.6,94.2-23.8,140.7,23c43.2,43.4,47.4,80.2,47.4,80.6
		l0.4,3.6l3.6-0.2c0.3,0,35.6-1,56.4,16c2.2,1.8,3,2.7,2.6,0.6l-0.1-0.6c-0.3-0.8-0.6-1.6-1-2.4c-0.6-1.2-1.3-2.3-2.1-3.4
		c10-7.6,17.6-17.5,18-17.9l0.4-0.4l0.2-0.5c24-49.8,17.5-86.9-2.9-97.2c-12.2-6.2-24.4-3-33.4,0.9c17-15.4,37.4-23.5,56.2-11.5
		c6.8,4.3,10.5,11.7,12.5,22.2c3.9,20.9-2.6,49.8-16.3,71.1c-1.1,1.7-5.7,7.4-2.8,5.8l0.8-0.4c1.8-0.8,3.1-1.7,4.7-2.9
		c0.6-0.5,1.3-0.9,1.9-1.4c-0.3,10.3-2.4,32.9-13.8,54.8l-0.9,1.8l0.9,1.8c0.1,0.3,8.5,16.4,8.2,40.3c-3.1-0.1-6.2,0.4-9.4,1.4
		c-10.8,3.4-17.7,11.7-18.5,22.4c-0.1,0.7-0.1,1.4-0.1,2.1c0,9.5,4.9,18.3,12.4,22c0.7,0.4,1.4,0.7,2.1,1.1c-0.5,0.9-1,1.7-1.5,2.6
		c-27.1,46-103.8,67.6-122.7,72.2c-2.6,0.6-3.7,0.8-3.8,0.8l-0.6,0.2c-1.5,0.8,2.1,2.1,5.3,2.2c2.2,0,4.7-0.1,7.9-0.6
		c6-0.9,13.7-2.6,22.3-5.1c0.9,3.1,2.3,8.2,4.3,13.7c-6.3,2.5-10,4-10.1,4l2.8,7.1c0.5-0.2,55.4-22.2,118-44.5l3.2-1.1l-0.7-3.3
		c0-0.1-2.9-13.6-0.5-35.7l0.2-1.5l-0.9-1.2c-0.3-0.4-7.3-10.2-21.4-18.4c-5.1-2.9-8.2-9.2-7.6-16.4c0.6-7.6,4.3-13.1,12.1-15.5
		c6.3-2,12.4-0.7,18,2.9c9.9,6.3,17.4,20,19.6,36.6l0.4,2.8l2.8,0.5c0.8,0.1,19.9,1.1,23.7,19.9c0.3,1.7,0.4,2.2,0.5,4.1v0.9
		c-0.2,2.3,2.1-0.9,3.2-5.6c2.8-11.3-7.5-24-19.5-25.9c3.2-3.4,8.2-8.2,13.9-12.3l0.6-0.4l0.4-0.6c0.6-1,16.7-23.7,23.5-41l0.4-1.1
		c7.3-18.6,11.3-28.9,26.8-24.5c5.3,1.5,8.9,4.4,10.8,9c3.4,7.9,1.4,19.6-2.5,27.1c-3,5.9-6.2,9.8-9.9,14.3
		c-4.2,5.1-8.9,10.8-14.5,20.7c-2.6-2.2-5.1-3.7-7.9-4.7c-1.9-0.7-5.6-1.8-4.2-0.2c0,0,1,1.1,2.8,3.1c6.7,7.4,19.2,24.4,24.4,55.7
		c0,0,1.6,0.1,2.8-2.6c3.5,0.5,16.9,2.1,31.1-1l5.1-1.2c13.7-3.2,19.5-4.1,24.9,5.3C585.3,323.9,585.1,329.8,582,334.7 M197.3,316.7
		c1.9-7.6,6.3-19.9,15.8-26.3c19.4-0.4,34.3-4.1,41.9-6.4c0.7,2,1.5,4,2.5,5.8c-2.4,5.5-11.7,24.2-30.8,38.5
		c-8.9,6.6-16,9.2-20.7,7.3c-5.1-2-7.2-9-8.2-14.5C197.6,319.7,197.4,318.2,197.3,316.7 M384.9,308.8c1.1-1,2.1-2,3.2-3
		c5.3,0.6,15.2,1.2,26.2-0.6c0,0.8,0,1.6,0,2.4c0,7.7,0.6,13.4,1.1,16.7c-11.3,4-22.2,8-32.6,11.9
		C385.2,323.6,385,312.5,384.9,308.8 M414.6,297.4c-7.5,1.4-14.6,1.5-19.9,1.2c3.8-4.5,7.3-9.3,10.2-14.4c0.4-0.6,0.7-1.2,1-1.9
		c4.7,3.6,7.8,7.1,9.1,8.7C414.9,293.3,414.8,295.3,414.6,297.4 M332.8,340.7c15.1-6.3,30.8-14.7,44.5-25.5
		c-0.1,6-0.8,14.9-3.1,24.1c-8,3-15.6,5.9-22.7,8.5C342.6,346.5,336.5,343.3,332.8,340.7 M340.3,352.1c-8.6,3.3-16.1,6.2-22.3,8.6
		c-1.8-5.3-3.3-10.2-4.1-13.1c3.5-1.1,7.2-2.4,10.9-3.8C328,346.4,333.4,349.7,340.3,352.1 M219.5,70.8c-2.5-7-7.3-11-17.5-11.6
		c-7.2-0.4-16.1,5-20.7,10.2c-1.9,2.1-4.3,6.7-2.1,5.3c0,0,1.4-0.8,4.9-2.4c5.5-2.6,13.9-5.6,20.5-4c6.6,1.6,10.5,5.7,12.6,8.6
		c1.3,1.8,1.5,2.5,1.5,2.5c0.5,1.1,2.1-1,1.8-4.4C220.3,73.8,220,72.4,219.5,70.8 M154.3,42.6c2.2,2.4,0.2,10.3-1.2,15
		c-0.6,2-0.9,2.7-0.9,2.7c-1.1,2.2,2.4-0.3,3.6-1.5c3.8-3.9,6.4-11.8,4.4-15C157.7,39.5,154.3,42.6,154.3,42.6 M352.2,140.9
		c3.8,2.1,11.2,3,20.9-12.7c9.7-15.6,7.8-26.5,3-29.4c-5.3-3.2-14.8-1.5-23,14.8C344.6,130.4,348.4,138.7,352.2,140.9 M363,111.1
		c1.6-3.4,4.6-5.3,6.8-4.3c2.2,1,2.6,4.6,1.1,8c-1.6,3.4-4.6,5.3-6.8,4.3C361.9,118.1,361.4,114.5,363,111.1"/>
</g>
</svg>